SplineFontDB: 3.0
FontName: Prociono-Regular
FullName: Prociono
FamilyName: Prociono
Weight: Regular
Copyright: Copyright (c) 2011, Barry Schwartz (chemoelectric@chemoelectric.org)\n
Version: 2.301
ItalicAngle: 0
UnderlinePosition: -100
UnderlineWidth: 50
Ascent: 797
Descent: 203
LayerCount: 2
Layer: 0 1 "Back"  1
Layer: 1 1 "Fore"  0
XUID: [1021 288 713564382 12069914]
FSType: 0
OS2Version: 3
OS2_WeightWidthSlopeOnly: 0
OS2_UseTypoMetrics: 1
CreationTime: 1167379177
ModificationTime: 1314624645
PfmFamily: 17
TTFWeight: 400
TTFWidth: 5
LineGap: 0
VLineGap: 0
Panose: 2 0 5 3 0 0 0 0 0 0
OS2TypoAscent: 1008
OS2TypoAOffset: 0
OS2TypoDescent: -212
OS2TypoDOffset: 0
OS2TypoLinegap: 0
OS2WinAscent: 1008
OS2WinAOffset: 0
OS2WinDescent: 212
OS2WinDOffset: 0
HheadAscent: 1008
HheadAOffset: 0
HheadDescent: -212
HheadDOffset: 0
OS2SubXSize: 650
OS2SubYSize: 700
OS2SubXOff: 0
OS2SubYOff: 480
OS2SupXSize: 650
OS2SupYSize: 700
OS2SupXOff: 0
OS2SupYOff: 0
OS2StrikeYSize: 49
OS2StrikeYPos: 258
OS2Vendor: 'PfEd'
OS2CodePages: 00000012.00000000
OS2UnicodeRanges: 8000006f.40000042.00000000.00000000
Lookup: 1 0 0 "Single Substitution in Latin lookup 0"  {"Single Substitution in Latin lookup 0 subtable"  } ['CAPS' ('DFLT' <'dflt' > 'latn' <'dflt' > ) ]
Lookup: 1 0 0 "'salt' Stylistic Alternatives in Latin lookup 1"  {"'salt' Stylistic Alternatives in Latin lookup 1 subtable"  } ['salt' ('DFLT' <'dflt' > 'latn' <'dflt' > ) ]
Lookup: 1 0 0 "'ss01' Style Set 1 in Latin lookup 2"  {"'ss01' Style Set 1 in Latin lookup 2 subtable"  } ['ss01' ('DFLT' <'dflt' > 'latn' <'dflt' > ) ]
Lookup: 4 0 1 "'liga' Standard Ligatures in Latin lookup 3"  {"'liga' Standard Ligatures in Latin lookup 3 per glyph data 0"  "'liga' Standard Ligatures in Latin lookup 3 per glyph data 1"  } ['liga' ('latn' <'dflt' > ) ]
Lookup: 4 0 0 "'dlig' Discretionary Ligatures in Latin lookup 4"  {"'dlig' Discretionary Ligatures in Latin lookup 4 subtable"  } ['dlig' ('latn' <'dflt' > ) ]

StartChar: .notdef
Encoding: 65536 -1 0
Width: 500
Flags: HW
LayerCount: 2
Fore
SplineSet
50 0 m 1,0,-1
 50 531 l 1,1,-1
 450 531 l 1,2,-1
 450 0 l 1,3,-1
 50 0 l 1,0,-1
100 50 m 1,4,-1
 400 50 l 1,5,-1
 400 481 l 1,6,-1
 100 481 l 1,7,-1
 100 50 l 1,4,-1
EndSplineSet
EndChar

StartChar: numbersign
Encoding: 35 35 6
Width: 487
GlyphClass: 2
Flags: HW
LayerCount: 2
Fore
SplineSet
314 477 m 1,0,1
 325.666666667 484 325.666666667 484 366 484 c 1,2,-1
 380 485 l 1,3,4
 361 420 361 420 354 348 c 1,5,-1
 447 348 l 1,6,-1
 437 302 l 1,7,-1
 349 302 l 1,8,-1
 337 211 l 1,9,-1
 426 211 l 1,10,-1
 417 163 l 1,11,-1
 338 163 l 1,12,13
 327 114 327 114 327 15 c 1,14,15
 317.147058824 9.08823529412 317.147058824 9.08823529412 277 6 c 1,16,-1
 264 4 l 1,17,18
 275 61 275 61 284 162 c 1,19,-1
 184 162 l 1,20,21
 174 118 174 118 174 16 c 1,22,23
 168.482758621 12.6896551724 168.482758621 12.6896551724 125 6 c 1,24,-1
 112 5 l 1,25,26
 126 89 126 89 131 163 c 1,27,-1
 48 163 l 1,28,-1
 57 207 l 1,29,-1
 135 207 l 1,30,-1
 144 300 l 1,31,-1
 67 300 l 1,32,-1
 76 344 l 1,33,-1
 152 344 l 1,34,35
 164 437 164 437 164 475 c 1,36,37
 173.72972973 480.837837838 173.72972973 480.837837838 218 484 c 2,38,-1
 233 485 l 1,39,40
 213 426 213 426 206 346 c 1,41,-1
 302 346 l 1,42,43
 314 439 314 439 314 477 c 1,0,1
189 208 m 1,44,-1
 286 208 l 1,45,-1
 298 301 l 1,46,-1
 200 301 l 1,47,-1
 189 208 l 1,44,-1
EndSplineSet
EndChar

StartChar: dollar
Encoding: 36 36 7
Width: 480
GlyphClass: 2
Flags: HW
LayerCount: 2
Fore
SplineSet
375 459 m 2,0,-1
 372 361 l 1,1,-1
 335 361 l 1,2,3
 334 374 334 374 326.5 399 c 128,-1,4
 319 424 319 424 310 437 c 0,5,6
 295 460 295 460 256 465 c 1,7,-1
 256 311 l 1,8,9
 361.632542373 274.688813559 361.632542373 274.688813559 384.5 221 c 0,10,11
 396 194 396 194 396 149.5 c 128,-1,12
 396 105 396 105 381 80 c 0,13,14
 349 29 349 29 322 11.5 c 128,-1,15
 295 -6 295 -6 256 -13 c 1,16,-1
 256 -96 l 1,17,-1
 215 -96 l 1,18,-1
 215 -17 l 1,19,20
 116 -16 116 -16 94 19 c 0,21,22
 86 32 86 32 86 53 c 0,23,24
 86 134 86 134 90.5 152.5 c 128,-1,25
 95 171 95 171 111.5 171 c 128,-1,26
 128 171 128 171 132 157 c 128,-1,27
 136 143 136 143 139.5 118.5 c 128,-1,28
 143 94 143 94 154 79 c 0,29,30
 171 54 171 54 215 48 c 1,31,-1
 215 216 l 1,32,33
 116.666666667 248.777777778 116.666666667 248.777777778 94.5 300.5 c 0,34,35
 84 325 84 325 84 365.5 c 128,-1,36
 84 406 84 406 106.5 442 c 128,-1,37
 129 478 129 478 154 497.5 c 128,-1,38
 179 517 179 517 215 522 c 1,39,-1
 215 608 l 1,40,-1
 256 608 l 1,41,-1
 256 525 l 1,42,-1
 259 525 l 2,43,44
 302 525 302 525 341 508 c 0,45,46
 352 504 352 504 357.5 500.5 c 0,47,48
 375 489.363636364 375 489.363636364 375 459 c 2,0,-1
154.5 422.5 m 128,-1,50
 151 411 151 411 151 392 c 0,51,52
 151 354.903225806 151 354.903225806 215 326 c 1,53,-1
 215 465 l 1,54,55
 189 461 189 461 173.5 447.5 c 128,-1,49
 158 434 158 434 154.5 422.5 c 128,-1,50
256 48 m 1,56,57
 331 58 331 58 331 122 c 0,58,59
 331 153 331 153 311.5 171 c 128,-1,60
 292 189 292 189 256 202 c 1,61,-1
 256 48 l 1,56,57
EndSplineSet
EndChar

StartChar: percent
Encoding: 37 37 8
Width: 697
GlyphClass: 2
Flags: HW
LayerCount: 2
Fore
SplineSet
75.5 258.5 m 128,-1,1
 42 301 42 301 42 375.5 c 0,2,3
 42 477.6875 42 477.6875 135 514.5 c 0,4,5
 159 524 159 524 173 524 c 0,6,7
 238 524 238 524 271 477.5 c 128,-1,8
 304 431 304 431 304 367 c 0,9,10
 304 315.2 304 315.2 273.5 272.5 c 0,11,12
 261 255 261 255 231 235.5 c 128,-1,13
 201 216 201 216 168 216 c 0,14,0
 109 216 109 216 75.5 258.5 c 128,-1,1
100 424 m 0,15,16
 93 403 93 403 93 365 c 128,-1,17
 93 327 93 327 120 301 c 128,-1,18
 147 275 147 275 183.5 275 c 128,-1,19
 220 275 220 275 236 295.5 c 128,-1,20
 252 316 252 316 252 363.5 c 128,-1,21
 252 411 252 411 226.5 438 c 128,-1,22
 201 465 201 465 169 465 c 0,23,24
 113.666666667 465 113.666666667 465 100 424 c 0,15,16
150 -3 m 1,25,-1
 503 537 l 1,26,-1
 540 513 l 1,27,-1
 187 -27 l 1,28,-1
 150 -3 l 1,25,-1
425.5 30.5 m 128,-1,30
 392 73 392 73 392 147 c 0,31,32
 392 249.6875 392 249.6875 485 286.5 c 0,33,34
 509 296 509 296 523 296 c 0,35,36
 588 296 588 296 621.5 249 c 128,-1,37
 655 202 655 202 655 139 c 0,38,39
 655 105 655 105 645.5 83.5 c 128,-1,40
 636 62 636 62 623.5 44.5 c 128,-1,41
 611 27 611 27 581 7.5 c 128,-1,42
 551 -12 551 -12 518 -12 c 0,43,29
 459 -12 459 -12 425.5 30.5 c 128,-1,30
450 195.5 m 0,44,45
 443 175 443 175 443 137 c 128,-1,46
 443 99 443 99 470 73 c 128,-1,47
 497 47 497 47 533.5 47 c 128,-1,48
 570 47 570 47 586 67 c 128,-1,49
 602 87 602 87 602 135 c 128,-1,50
 602 183 602 183 576.5 209.5 c 128,-1,51
 551 236 551 236 519 236 c 0,52,53
 463.829268293 236 463.829268293 236 450 195.5 c 0,44,45
EndSplineSet
EndChar

StartChar: ampersand
Encoding: 38 38 9
Width: 780
GlyphClass: 2
Flags: HW
LayerCount: 2
Fore
SplineSet
116 38 m 0,0,1
 45 106 45 106 45 196 c 128,-1,2
 45 286 45 286 111 344 c 0,3,4
 162 390 162 390 229 430 c 1,5,6
 142 537 142 537 142 617 c 0,7,8
 142 674 142 674 194.5 720 c 128,-1,9
 247 766 247 766 323 766 c 128,-1,10
 399 766 399 766 429 752.5 c 128,-1,11
 459 739 459 739 459 711 c 0,12,13
 459 661 459 661 422 584 c 1,14,-1
 388 592 l 1,15,16
 393 622 393 622 393 633 c 0,17,18
 393 707 393 707 313 707 c 0,19,20
 278 707 278 707 253.5 685.5 c 128,-1,21
 229 664 229 664 229 626 c 0,22,23
 229 570 229 570 313 459 c 128,-1,24
 397 348 397 348 536 222 c 1,25,26
 590 322 590 322 590 413 c 0,27,28
 590 449 590 449 574 461.5 c 128,-1,29
 558 474 558 474 516 477 c 1,30,-1
 516 510 l 1,31,32
 553 507 553 507 623.5 507 c 128,-1,33
 694 507 694 507 732 510 c 1,34,-1
 732 477 l 1,35,36
 653.968085106 471.79787234 653.968085106 471.79787234 643.5 405.5 c 0,37,38
 639 377 639 377 621 315 c 128,-1,39
 603 253 603 253 570 191 c 1,40,41
 662 111 662 111 770 33 c 1,42,-1
 770 0 l 1,43,44
 688 0 688 0 637 -4 c 1,45,-1
 522 117 l 1,46,47
 485 69 485 69 435 35 c 2,48,-1
 403 13 l 2,49,50
 376 -6 376 -6 352 -12 c 128,-1,51
 328 -18 328 -18 268.5 -18 c 128,-1,52
 209 -18 209 -18 183 -9.5 c 128,-1,53
 157 -1 157 -1 116 38 c 0,0,1
144 221 m 0,54,55
 144 155 144 155 193 107 c 128,-1,56
 242 59 242 59 309 59 c 0,57,58
 410 59 410 59 489 152 c 1,59,-1
 259 396 l 1,60,61
 144 323 144 323 144 221 c 0,54,55
EndSplineSet
EndChar

StartChar: quotesingle
Encoding: 39 39 10
Width: 212
GlyphClass: 2
Flags: HW
LayerCount: 2
Fore
SplineSet
60 791 m 1,0,1
 73 797 73 797 105.5 797 c 0,2,3
 138 797 138 797 152 791 c 1,4,-1
 126 565 l 1,5,-1
 86 565 l 1,6,-1
 60 791 l 1,0,1
EndSplineSet
EndChar

StartChar: parenleft
Encoding: 40 40 11
Width: 330
GlyphClass: 2
Flags: HW
LayerCount: 2
Fore
SplineSet
118 121 m 128,-1,1
 100 211 100 211 100 297 c 128,-1,2
 100 383 100 383 118 472 c 128,-1,3
 136 561 136 561 150.5 597 c 128,-1,4
 165 633 165 633 178 654 c 128,-1,5
 191 675 191 675 204.5 693 c 128,-1,6
 218 711 218 711 233 728 c 128,-1,7
 248 745 248 745 261 758 c 2,8,-1
 308 802 l 1,9,-1
 330 780 l 1,10,11
 276 700 276 700 225 586 c 1,12,13
 195 525 195 525 195 297 c 128,-1,14
 195 69 195 69 225 6 c 0,15,16
 284 -118 284 -118 330 -187 c 1,17,-1
 308 -209 l 1,18,-1
 307 -208 l 1,19,20
 200.447272727 -117.756363636 200.447272727 -117.756363636 157 -20 c 1,21,0
 136 31 136 31 118 121 c 128,-1,1
EndSplineSet
EndChar

StartChar: parenright
Encoding: 41 41 12
Width: 330
GlyphClass: 2
Flags: HW
LayerCount: 2
Fore
SplineSet
0 -187 m 1,0,1
 46 -118 46 -118 105 6 c 0,2,3
 135 68 135 68 135 296.5 c 128,-1,4
 135 525 135 525 105 586 c 1,5,6
 54 700 54 700 0 780 c 1,7,-1
 22 802 l 1,8,-1
 45.5 781 l 1,9,10
 142.907692308 688.230769231 142.907692308 688.230769231 173 613 c 0,11,12
 194 561 194 561 212 472 c 128,-1,13
 230 383 230 383 230 297 c 128,-1,14
 230 211 230 211 212 121 c 128,-1,15
 194 31 194 31 173 -20 c 0,16,17
 135 -113 135 -113 23 -208 c 1,18,-1
 22 -209 l 1,19,-1
 0 -187 l 1,0,1
EndSplineSet
EndChar

StartChar: asterisk
Encoding: 42 42 13
Width: 520
GlyphClass: 2
Flags: HW
LayerCount: 2
Fore
SplineSet
50 554 m 1,0,-1
 72 633 l 1,1,-1
 86 641 l 1,2,-1
 246 564 l 1,3,-1
 208 749 l 1,4,-1
 290 751 l 1,5,-1
 302 741 l 1,6,-1
 279 565 l 1,7,-1
 442 659 l 1,8,-1
 470 581 l 1,9,-1
 464 566 l 1,10,-1
 289 535 l 1,11,-1
 429 408 l 1,12,-1
 364 357 l 1,13,-1
 348 359 l 1,14,-1
 264 515 l 1,15,-1
 186 343 l 1,16,-1
 118 389 l 1,17,-1
 115 405 l 1,18,-1
 237 533 l 1,19,-1
 50 554 l 1,0,-1
EndSplineSet
EndChar

StartChar: plus
Encoding: 43 43 14
Width: 480
GlyphClass: 2
Flags: HW
LayerCount: 2
Fore
SplineSet
11 250 m 1,0,-1
 25 316 l 1,1,-1
 208 316 l 1,2,-1
 208 501 l 1,3,-1
 264 514 l 1,4,-1
 275 502 l 1,5,-1
 274 316 l 1,6,-1
 460 316 l 1,7,-1
 472 305 l 1,8,-1
 459 250 l 1,9,-1
 275 250 l 1,10,-1
 274 67 l 1,11,-1
 208 53 l 1,12,-1
 208 250 l 1,13,-1
 11 250 l 1,0,-1
EndSplineSet
EndChar

StartChar: comma
Encoding: 44 44 15
Width: 240
GlyphClass: 2
Flags: HW
LayerCount: 2
Fore
SplineSet
85.5 45 m 128,-1,1
 63 78 63 78 63 84 c 128,-1,2
 63 90 63 90 71.5 104 c 0,3,4
 98.2142857143 148 98.2142857143 148 113.607142857 148 c 128,-1,5
 129 148 129 148 153 110 c 128,-1,6
 177 72 177 72 177 42 c 128,-1,7
 177 12 177 12 137.5 -51 c 128,-1,8
 98 -114 98 -114 83 -114 c 0,9,10
 81 -114 81 -114 74.5 -108.5 c 128,-1,11
 68 -103 68 -103 68 -100 c 128,-1,12
 68 -97 68 -97 88 -66.5 c 128,-1,13
 108 -36 108 -36 108 -12 c 128,-1,0
 108 12 108 12 85.5 45 c 128,-1,1
EndSplineSet
EndChar

StartChar: hyphen
Encoding: 45 45 16
Width: 270
GlyphClass: 2
Flags: HW
LayerCount: 2
Fore
SplineSet
17 250 m 1,0,-1
 31 316 l 1,1,-1
 242 316 l 1,2,-1
 253 305 l 1,3,-1
 241 250 l 1,4,-1
 17 250 l 1,0,-1
EndSplineSet
EndChar

StartChar: period
Encoding: 46 46 17
Width: 240
GlyphClass: 2
Flags: HW
LayerCount: 2
Fore
SplineSet
80 31.5 m 128,-1,1
 63 73 63 73 63 84.5 c 128,-1,2
 63 96 63 96 80.5 122 c 128,-1,3
 98 148 98 148 115 148 c 128,-1,4
 132 148 132 148 154.5 111 c 128,-1,5
 177 74 177 74 177 59 c 128,-1,6
 177 44 177 44 152.5 17 c 128,-1,7
 128 -10 128 -10 111 -10 c 0,8,0
 97 -10 97 -10 80 31.5 c 128,-1,1
EndSplineSet
EndChar

StartChar: slash
Encoding: 47 47 18
Width: 480
GlyphClass: 2
Flags: HW
LayerCount: 2
Fore
SplineSet
-20 -140 m 1,0,-1
 439 797 l 1,1,-1
 500 797 l 1,2,-1
 43 -140 l 1,3,-1
 -20 -140 l 1,0,-1
EndSplineSet
EndChar

StartChar: zero
Encoding: 48 48 19
Width: 480
GlyphClass: 2
Flags: HW
LayerCount: 2
Fore
SplineSet
30 252 m 0,0,1
 30 444.857142857 30 444.857142857 178.5 508.5 c 0,2,3
 217 525 217 525 239 525 c 0,4,5
 293 525 293 525 335 500.5 c 128,-1,6
 377 476 377 476 401.5 435.5 c 0,7,8
 450 355.326530612 450 355.326530612 450 248 c 0,9,10
 450 162.178571429 450 162.178571429 411 99.5 c 0,11,12
 368.326460481 30.9175257732 368.326460481 30.9175257732 311 1.5 c 0,13,14
 273 -18 273 -18 232 -18 c 0,15,16
 137 -18 137 -18 83.5 57 c 128,-1,17
 30 132 30 132 30 252 c 0,0,1
144.5 120 m 128,-1,19
 192 69 192 69 247 69 c 0,20,21
 323 69 323 69 351.5 108.5 c 128,-1,22
 380 148 380 148 380 241 c 128,-1,23
 380 334 380 334 334.5 386.5 c 128,-1,24
 289 439 289 439 232 439 c 0,25,26
 210 439 210 439 196.5 437.5 c 128,-1,27
 183 436 183 436 162 426 c 128,-1,28
 141 416 141 416 128.5 398 c 0,29,30
 97 352.64 97 352.64 97 261.82 c 128,-1,18
 97 171 97 171 144.5 120 c 128,-1,19
EndSplineSet
EndChar

StartChar: one
Encoding: 49 49 20
Width: 480
GlyphClass: 2
Flags: HW
LayerCount: 2
Fore
SplineSet
60 390 m 1,0,1
 294 516 294 516 339 525 c 1,2,-1
 351 514 l 1,3,4
 339 334 339 334 339 239 c 128,-1,5
 339 144 339 144 340 116.5 c 128,-1,6
 341 89 341 89 342.5 79.5 c 128,-1,7
 344 70 344 70 350 58.5 c 128,-1,8
 356 47 356 47 371 43 c 0,9,10
 410 32.6 410 32.6 474 31 c 1,11,-1
 474 0 l 1,12,-1
 92 0 l 1,13,-1
 92 31 l 1,14,-1
 117 31 l 1,15,16
 251 33 251 33 254 76 c 1,17,18
 259 111 259 111 259 175.5 c 128,-1,19
 259 240 259 240 253 409 c 1,20,21
 196 409 196 409 74 360 c 1,22,-1
 60 390 l 1,0,1
EndSplineSet
EndChar

StartChar: two
Encoding: 50 50 21
Width: 480
GlyphClass: 2
Flags: HW
LayerCount: 2
Fore
SplineSet
10 29 m 1,0,-1
 45 58 l 1,1,-1
 159 147 l 2,2,3
 241 211 241 211 281.5 257.5 c 128,-1,4
 322 304 322 304 322 351 c 0,5,6
 322 451 322 451 212 451 c 0,7,8
 183 451 183 451 158.5 444 c 128,-1,9
 134 437 134 437 75 410 c 1,10,-1
 61 439 l 1,11,-1
 183 521 l 1,12,13
 206 527 206 527 237 527 c 0,14,15
 310 527 310 527 366.5 491.5 c 128,-1,16
 423 456 423 456 423 377 c 0,17,18
 423 333 423 333 391 285.5 c 128,-1,19
 359 238 359 238 322.5 207 c 128,-1,20
 286 176 286 176 234 140 c 2,21,-1
 182 105 l 2,22,23
 155 87 155 87 142 76 c 1,24,25
 216 74 216 74 285.5 74 c 0,26,27
 355 74 355 74 443 83 c 1,28,-1
 455 72 l 1,29,30
 451 38 451 38 451 0 c 1,31,-1
 24 0 l 1,32,-1
 10 29 l 1,0,-1
EndSplineSet
EndChar

StartChar: three
Encoding: 51 51 22
Width: 480
GlyphClass: 2
Flags: HW
LayerCount: 2
Fore
SplineSet
148 171 m 1,0,-1
 126 170 l 1,1,-1
 119 214 l 1,2,3
 180 224 180 224 222 243 c 128,-1,4
 264 262 264 262 281 284.5 c 0,5,6
 309 321.558823529 309 321.558823529 309 350.779411765 c 128,-1,7
 309 380 309 380 295.5 401.5 c 128,-1,8
 282 423 282 423 263.5 433.5 c 0,9,10
 225.619047619 455 225.619047619 455 211 455 c 0,11,12
 166 455 166 455 70 401 c 1,13,-1
 54 429 l 1,14,-1
 164 517 l 1,15,16
 193 525 193 525 219 525 c 0,17,18
 288 525 288 525 343.5 484.5 c 128,-1,19
 399 444 399 444 399 379 c 0,20,21
 399 277 399 277 264 215 c 1,22,23
 326 214 326 214 369 171 c 128,-1,24
 412 128 412 128 412 76 c 0,25,26
 412 -28 412 -28 308.5 -115.5 c 128,-1,27
 205 -203 205 -203 43 -203 c 1,28,-1
 20 -157 l 1,29,-1
 25 -149 l 1,30,31
 44 -152 44 -152 63 -152 c 0,32,33
 159 -152 159 -152 239 -87.5 c 128,-1,34
 319 -23 319 -23 319 52 c 0,35,36
 319 171 319 171 148 171 c 1,0,-1
EndSplineSet
EndChar

StartChar: four
Encoding: 52 52 23
Width: 480
GlyphClass: 2
Flags: HW
LayerCount: 2
Fore
SplineSet
-3 46 m 1,0,-1
 68 182 l 1,1,2
 123 279 123 279 187 380.5 c 128,-1,3
 251 482 251 482 278 515 c 1,4,5
 286 518 286 518 315.5 522 c 128,-1,6
 345 526 345 526 362 526 c 1,7,-1
 369 518 l 1,8,-1
 369 77 l 1,9,10
 401 77 401 77 476 82 c 1,11,12
 480 79 480 79 484 75 c 1,13,14
 481 48 481 48 466 0 c 1,15,-1
 444 0 l 2,16,17
 396 0 396 0 369 -2 c 1,18,-1
 375 -192 l 1,19,20
 334 -194 334 -194 287 -207 c 1,21,-1
 274 -212 l 1,22,23
 277 -117 277 -117 278 -3 c 1,24,25
 70 -3 70 -3 21 0 c 1,26,-1
 -3 46 l 1,0,-1
82 89 m 1,27,-1
 94 78 l 1,28,29
 139 74 139 74 198 74 c 0,30,31
 257 74 257 74 279 75 c 1,32,33
 283 212 283 212 283 338 c 2,34,-1
 283 430 l 1,35,36
 244 387 244 387 172 267.5 c 128,-1,37
 100 148 100 148 82 89 c 1,27,-1
EndSplineSet
EndChar

StartChar: five
Encoding: 53 53 24
Width: 480
GlyphClass: 2
Flags: HW
LayerCount: 2
Fore
SplineSet
22 -157 m 1,0,-1
 27 -149 l 1,1,2
 47 -152 47 -152 65 -152 c 0,3,4
 162 -152 162 -152 235.5 -95 c 128,-1,5
 309 -38 309 -38 309 36 c 0,6,7
 309 138.428571429 309 138.428571429 263.5 163.5 c 0,8,9
 239 177 239 177 216 180.5 c 128,-1,10
 193 184 193 184 152 184 c 2,11,-1
 96 184 l 1,12,-1
 75 202 l 1,13,14
 117 464 117 464 121 496 c 1,15,-1
 135 510 l 1,16,17
 161 508 161 508 225 508 c 128,-1,18
 289 508 289 508 390 512 c 1,19,-1
 402 501 l 1,20,21
 396 472 396 472 396 423 c 1,22,23
 242 425 242 425 230.5 425 c 128,-1,24
 219 425 219 425 159 423 c 1,25,26
 141 342 141 342 137 268 c 1,27,28
 166 271 166 271 210 271 c 0,29,30
 289 271 289 271 349 225.5 c 128,-1,31
 409 180 409 180 409 92 c 0,32,33
 409 -44 409 -44 305 -123.5 c 128,-1,34
 201 -203 201 -203 45 -203 c 1,35,-1
 22 -157 l 1,0,-1
EndSplineSet
EndChar

StartChar: six
Encoding: 54 54 25
Width: 480
GlyphClass: 2
Flags: HW
LayerCount: 2
Fore
SplineSet
25 269 m 0,0,1
 25 541 25 541 215 684 c 0,2,3
 287 738 287 738 376 767 c 1,4,-1
 395 736 l 1,5,6
 361 723 361 723 295 680 c 2,7,-1
 278 669 l 1,8,9
 224 632 224 632 176.5 548.5 c 128,-1,10
 129 465 129 465 125 380 c 1,11,12
 149 417 149 417 183.5 436 c 128,-1,13
 218 455 218 455 289.5 455 c 128,-1,14
 361 455 361 455 409.5 408 c 128,-1,15
 458 361 458 361 458 255 c 0,16,17
 458 188 458 188 441 136.5 c 128,-1,18
 424 85 424 85 400 56.5 c 128,-1,19
 376 28 376 28 343.5 10.5 c 0,20,21
 292.428571429 -17 292.428571429 -17 235 -17 c 0,22,23
 25 -17 25 -17 25 269 c 0,0,1
121 338 m 1,24,-1
 120 310 l 1,25,26
 121 266 l 1,27,-1
 122 248 l 1,28,29
 128.875816993 93.2941176471 128.875816993 93.2941176471 190 54 c 0,30,31
 218 36 218 36 259 36 c 0,32,33
 316 36 316 36 345 93.5 c 128,-1,34
 374 151 374 151 374 227 c 128,-1,35
 374 303 374 303 353.5 338.5 c 128,-1,36
 333 374 333 374 283 389 c 0,37,38
 263 396 263 396 232 396 c 128,-1,39
 201 396 201 396 177 386 c 128,-1,40
 153 376 153 376 143.5 366.5 c 128,-1,41
 134 357 134 357 121 338 c 1,24,-1
EndSplineSet
EndChar

StartChar: seven
Encoding: 55 55 26
Width: 480
GlyphClass: 2
Flags: HW
LayerCount: 2
Fore
SplineSet
40 336 m 1,0,1
 45 419 45 419 45 448.5 c 0,2,3
 45 478 45 478 44 496 c 1,4,-1
 58 510 l 1,5,6
 96 508 96 508 248.5 508 c 0,7,8
 401 508 401 508 461 510 c 1,9,-1
 473 499 l 1,10,11
 467 407 467 407 333 154 c 128,-1,12
 199 -99 199 -99 109 -212 c 1,13,14
 91 -205 91 -205 69 -188 c 1,15,16
 196 8 196 8 261.5 148 c 128,-1,17
 327 288 327 288 365 415 c 1,18,-1
 353 426 l 1,19,20
 139 426 139 426 113 427 c 1,21,22
 102 421 102 421 69 336 c 1,23,-1
 40 336 l 1,0,1
EndSplineSet
EndChar

StartChar: eight
Encoding: 56 56 27
Width: 480
GlyphClass: 2
Flags: HW
LayerCount: 2
Fore
SplineSet
21 194 m 0,0,1
 21 265 21 265 51.5 313.5 c 128,-1,2
 82 362 82 362 154 403 c 1,3,4
 104 431 104 431 74 485 c 128,-1,5
 44 539 44 539 44 576 c 0,6,7
 44 662 44 662 100 719 c 128,-1,8
 156 776 156 776 246 776 c 128,-1,9
 336 776 336 776 390 731 c 128,-1,10
 444 686 444 686 444 619 c 0,11,12
 444 570 444 570 411.5 520 c 128,-1,13
 379 470 379 470 317 431 c 1,14,-1
 351 414 l 1,15,16
 403 386 403 386 430.5 332.5 c 128,-1,17
 458 279 458 279 458 216 c 0,18,19
 458 122 458 122 399.5 52.5 c 128,-1,20
 341 -17 341 -17 240 -17 c 128,-1,21
 139 -17 139 -17 80 40.5 c 128,-1,22
 21 98 21 98 21 194 c 0,0,1
127 287.5 m 128,-1,24
 99 245 99 245 99 187.5 c 128,-1,25
 99 130 99 130 146.5 83.5 c 128,-1,26
 194 37 194 37 240 37 c 0,27,28
 304 37 304 37 338.5 84 c 128,-1,29
 373 131 373 131 373 191.5 c 128,-1,30
 373 252 373 252 343 285.5 c 128,-1,31
 313 319 313 319 259 347 c 2,32,-1
 219 368 l 1,33,23
 155 330 155 330 127 287.5 c 128,-1,24
164 698.5 m 128,-1,35
 134 672 134 672 134 625.5 c 128,-1,36
 134 579 134 579 168.5 534 c 128,-1,37
 203 489 203 489 259 463 c 1,38,39
 310 486 310 486 338 522 c 128,-1,40
 366 558 366 558 366 608.5 c 128,-1,41
 366 659 366 659 334 692 c 128,-1,42
 302 725 302 725 248 725 c 128,-1,34
 194 725 194 725 164 698.5 c 128,-1,35
EndSplineSet
EndChar

StartChar: nine
Encoding: 57 57 28
Width: 480
GlyphClass: 2
Flags: HW
LayerCount: 2
Fore
SplineSet
35 274 m 0,0,1
 35 419.043478261 35 419.043478261 108.5 475.5 c 0,2,3
 172.943396226 525 172.943396226 525 269 525 c 0,4,5
 321 525 321 525 359 502 c 128,-1,6
 397 479 397 479 416 441 c 0,7,8
 452 369 452 369 452 280.5 c 128,-1,9
 452 192 452 192 437 119 c 128,-1,10
 422 46 422 46 398 -3 c 128,-1,11
 374 -52 374 -52 339 -89 c 128,-1,12
 304 -126 304 -126 269 -147 c 128,-1,13
 234 -168 234 -168 191.5 -181.5 c 0,14,15
 127.703501094 -201.764770241 127.703501094 -201.764770241 45 -204 c 1,16,-1
 39 -170 l 1,17,18
 172 -151 172 -151 243.5 -93.5 c 128,-1,19
 315 -36 315 -36 340 87 c 1,20,21
 279 50 279 50 219 50 c 0,22,23
 139 50 139 50 87 112.5 c 128,-1,24
 35 175 35 175 35 274 c 0,0,1
121 301 m 0,25,26
 121 153.844827586 121 153.844827586 189 117.5 c 0,27,28
 218 102 218 102 267 102 c 128,-1,29
 316 102 316 102 347 128 c 1,30,31
 356 192 356 192 356 246.5 c 128,-1,32
 356 301 356 301 352.5 325.5 c 128,-1,33
 349 350 349 350 338.5 386.5 c 128,-1,34
 328 423 328 423 301 445 c 128,-1,35
 274 467 274 467 230 467 c 128,-1,36
 186 467 186 467 153.5 424.5 c 128,-1,37
 121 382 121 382 121 301 c 0,25,26
EndSplineSet
EndChar

StartChar: less
Encoding: 60 60 31
Width: 480
GlyphClass: 2
Flags: HW
LayerCount: 2
Fore
SplineSet
-3 247 m 1,0,-1
 11 317 l 1,1,-1
 471 522 l 1,2,-1
 483 511 l 1,3,-1
 471 450 l 1,4,-1
 87 279 l 1,5,-1
 471 108 l 1,6,-1
 483 47 l 1,7,-1
 471 36 l 1,8,-1
 -3 247 l 1,0,-1
EndSplineSet
EndChar

StartChar: equal
Encoding: 61 61 32
Width: 480
GlyphClass: 2
Flags: HW
LayerCount: 2
Fore
SplineSet
4 172 m 1,0,-1
 18 238 l 1,1,-1
 464 238 l 1,2,-1
 476 227 l 1,3,-1
 462 172 l 1,4,-1
 4 172 l 1,0,-1
4 328 m 1,5,-1
 18 394 l 1,6,-1
 464 394 l 1,7,-1
 476 383 l 1,8,-1
 462 328 l 1,9,-1
 4 328 l 1,5,-1
EndSplineSet
EndChar

StartChar: greater
Encoding: 62 62 33
Width: 480
GlyphClass: 2
Flags: HW
LayerCount: 2
Fore
SplineSet
-3 47 m 1,0,-1
 9 108 l 1,1,-1
 393 279 l 1,2,-1
 9 450 l 1,3,-1
 -3 511 l 1,4,-1
 9 522 l 1,5,-1
 483 311 l 1,6,-1
 469 241 l 1,7,-1
 9 36 l 1,8,-1
 -3 47 l 1,0,-1
EndSplineSet
EndChar

StartChar: at
Encoding: 64 64 35
Width: 920
GlyphClass: 2
Flags: HW
LayerCount: 2
Fore
SplineSet
48.5 73.5 m 128,-1,1
 20 152 20 152 20 243 c 128,-1,2
 20 334 20 334 49.5 417.5 c 128,-1,3
 79 501 79 501 128.5 560 c 128,-1,4
 178 619 178 619 243 661 c 0,5,6
 371.452380952 744 371.452380952 744 523 744 c 0,7,8
 678.306818182 744 678.306818182 744 784.5 655 c 0,9,10
 837 611 837 611 868 541 c 128,-1,11
 899 471 899 471 899 388.5 c 128,-1,12
 899 306 899 306 858.5 212.5 c 128,-1,13
 818 119 818 119 759 53.5 c 128,-1,14
 700 -12 700 -12 652 -12 c 0,15,16
 586 -12 586 -12 571 100 c 1,17,18
 528 59 528 59 474.5 23 c 128,-1,19
 421 -13 421 -13 394 -13 c 0,20,21
 369 -13 369 -13 343 6.5 c 128,-1,22
 317 26 317 26 300.5 48.5 c 128,-1,23
 284 71 284 71 272 111.5 c 128,-1,24
 260 152 260 152 260 209 c 128,-1,25
 260 266 260 266 285 327 c 128,-1,26
 310 388 310 388 346.5 429.5 c 128,-1,27
 383 471 383 471 423.5 496.5 c 128,-1,28
 464 522 464 522 504 522 c 128,-1,29
 544 522 544 522 618 494 c 1,30,-1
 653 525 l 1,31,-1
 675 516 l 1,32,33
 662 482 662 482 653.5 332 c 128,-1,34
 645 182 645 182 645 126 c 0,35,36
 645 49 645 49 674 49 c 0,37,38
 697 49 697 49 729.5 96.5 c 128,-1,39
 762 144 762 144 786.5 222 c 128,-1,40
 811 300 811 300 811 375 c 128,-1,41
 811 450 811 450 783 510.5 c 128,-1,42
 755 571 755 571 708.5 608 c 0,43,44
 614.243243243 683 614.243243243 683 487 683 c 0,45,46
 419 683 419 683 361.5 661 c 128,-1,47
 304 639 304 639 264 601.5 c 128,-1,48
 224 564 224 564 193.5 517.5 c 128,-1,49
 163 471 163 471 145.5 418.5 c 0,50,51
 111 315 111 315 111 232 c 128,-1,52
 111 149 111 149 133.5 82 c 128,-1,53
 156 15 156 15 201.5 -39 c 128,-1,54
 247 -93 247 -93 324 -124.5 c 128,-1,55
 401 -156 401 -156 483 -156 c 128,-1,56
 565 -156 565 -156 667 -133 c 1,57,-1
 675 -162 l 1,58,59
 641 -175 641 -175 577 -189 c 128,-1,60
 513 -203 513 -203 473 -203 c 0,61,62
 363 -203 363 -203 274.5 -166 c 128,-1,63
 186 -129 186 -129 131.5 -67 c 128,-1,0
 77 -5 77 -5 48.5 73.5 c 128,-1,1
332 225 m 0,64,65
 332 174 332 174 364.5 121 c 128,-1,66
 397 68 397 68 430 68 c 128,-1,67
 463 68 463 68 503 92.5 c 128,-1,68
 543 117 543 117 574 156 c 1,69,70
 587 309 587 309 587 390 c 1,71,72
 518 459 518 459 459.5 459 c 128,-1,73
 401 459 401 459 366.5 394 c 128,-1,74
 332 329 332 329 332 225 c 0,64,65
EndSplineSet
EndChar

StartChar: A
Encoding: 65 65 36
Width: 755
GlyphClass: 2
Flags: HW
LayerCount: 2
Fore
SplineSet
0 0 m 1,0,-1
 0 36 l 1,1,2
 33 39 33 39 49 50.5 c 128,-1,3
 65 62 65 62 83 94.5 c 128,-1,4
 101 127 101 127 134 210 c 2,5,-1
 342 730 l 1,6,7
 349 735 349 735 374.5 739 c 128,-1,8
 400 743 400 743 410 743 c 1,9,10
 666 110 666 110 674.5 94 c 0,11,12
 683 78 683 78 690.5 68.5 c 128,-1,13
 698 59 698 59 715 49 c 128,-1,14
 732 39 732 39 755 36 c 1,15,-1
 755 0 l 1,16,-1
 469 0 l 1,17,-1
 469 34 l 1,18,19
 558 41 558 41 558 78 c 0,20,21
 558 105 558 105 537 153 c 2,22,-1
 518 197 l 2,23,24
 506 224 506 224 497 249 c 1,25,-1
 208 249 l 1,26,27
 190 208 190 208 168 150.5 c 128,-1,28
 146 93 146 93 146 83 c 0,29,30
 146 47 146 47 236 39 c 1,31,-1
 236 0 l 1,32,-1
 0 0 l 1,0,-1
222 292 m 1,33,-1
 484 292 l 1,34,-1
 351 621 l 1,35,-1
 222 292 l 1,33,-1
EndSplineSet
EndChar

StartChar: B
Encoding: 66 66 37
Width: 649
GlyphClass: 2
Flags: HW
LayerCount: 2
Fore
SplineSet
29 0 m 1,0,-1
 29 37 l 1,1,2
 59 39 59 39 75.5 42 c 128,-1,3
 92 45 92 45 105.5 55 c 128,-1,4
 119 65 119 65 119 83 c 0,5,6
 119 429 119 429 112 661 c 0,7,8
 111 683 111 683 96.5 690.5 c 128,-1,9
 82 698 82 698 43 700 c 2,10,-1
 29 701 l 1,11,-1
 29 738 l 1,12,13
 83 734 83 734 170 734 c 128,-1,14
 257 734 257 734 308 739 c 128,-1,15
 359 744 359 744 369 744 c 2,16,-1
 389 744 l 2,17,18
 441 744 441 744 480.5 731 c 128,-1,19
 520 718 520 718 541.5 700 c 128,-1,20
 563 682 563 682 576 657 c 0,21,22
 597 616.615384615 597 616.615384615 597 563.807692308 c 0,23,24
 597 463.490909091 597 463.490909091 486 409 c 2,25,-1
 456 394 l 1,26,27
 623 338 623 338 623 213 c 0,28,29
 623 124 623 124 550 59 c 128,-1,30
 477 -6 477 -6 384 -6 c 2,31,-1
 363 -6 l 2,32,33
 334 -6 334 -6 284 -2 c 2,34,-1
 252 0 l 2,35,36
 198 4 198 4 140.5 4 c 128,-1,37
 83 4 83 4 29 0 c 1,0,-1
217 140 m 0,38,39
 217 84 217 84 251 70 c 128,-1,40
 285 56 285 56 398 56 c 0,41,42
 440 56 440 56 478.5 98 c 128,-1,43
 517 140 517 140 517 212.5 c 128,-1,44
 517 285 517 285 470 324.5 c 128,-1,45
 423 364 423 364 339.5 364 c 128,-1,46
 256 364 256 364 219 358 c 1,47,48
 217 244 217 244 217 140 c 0,38,39
219 406 m 1,49,50
 284 412 284 412 323 412 c 128,-1,51
 362 412 362 412 386 410 c 1,52,53
 440 426 440 426 464 465 c 128,-1,54
 488 504 488 504 488 547.5 c 128,-1,55
 488 591 488 591 473 621.5 c 128,-1,56
 458 652 458 652 437.5 666.5 c 0,57,58
 397.206896552 695 397.206896552 695 377 695 c 0,59,60
 267 695 267 695 235 683 c 1,61,-1
 223 672 l 1,62,63
 220 531 220 531 219 406 c 1,49,50
EndSplineSet
EndChar

StartChar: C
Encoding: 67 67 38
Width: 675
GlyphClass: 2
Flags: HW
LayerCount: 2
Fore
SplineSet
579 536 m 1,0,-1
 546 645 l 2,1,2
 540 664 540 664 530 671 c 1,3,4
 457 690 457 690 381 690 c 0,5,6
 238 690 238 690 190 619.5 c 128,-1,7
 142 549 142 549 142 362 c 0,8,9
 142 153 142 153 275 72 c 0,10,11
 332 38 332 38 406.5 38 c 128,-1,12
 481 38 481 38 548 89 c 1,13,14
 558 107 558 107 577 178 c 2,15,-1
 591 232 l 1,16,-1
 628 232 l 1,17,18
 624 191 624 191 624 33 c 1,19,20
 489 -17 489 -17 376 -17 c 0,21,22
 226.576470588 -17 226.576470588 -17 138.5 63.5 c 0,23,24
 42 151.698924731 42 151.698924731 42 366 c 0,25,26
 42 490 42 490 77 572 c 0,27,28
 98 621 98 621 163 677.5 c 128,-1,29
 228 734 228 734 313 745 c 0,30,31
 364 752 364 752 430 752 c 0,32,33
 559 752 559 752 612 723 c 1,34,-1
 623 712 l 1,35,36
 623 662 623 662 614 536 c 1,37,-1
 579 536 l 1,0,-1
EndSplineSet
EndChar

StartChar: D
Encoding: 68 68 39
Width: 776
GlyphClass: 2
Flags: HW
LayerCount: 2
Fore
SplineSet
377 -6 m 1,0,-1
 168 4 l 1,1,2
 83 4 83 4 29 0 c 1,3,-1
 29 37 l 1,4,5
 59 39 59 39 75.5 42 c 128,-1,6
 92 45 92 45 105.5 55 c 128,-1,7
 119 65 119 65 119 83 c 0,8,9
 119 429 119 429 112 661 c 0,10,11
 111 683 111 683 96.5 690.5 c 128,-1,12
 82 698 82 698 43 700 c 2,13,-1
 29 701 l 1,14,-1
 29 738 l 1,15,16
 83 734 83 734 172.5 734 c 128,-1,17
 262 734 262 734 321 739 c 128,-1,18
 380 744 380 744 401 744 c 2,19,-1
 422 744 l 2,20,21
 585 744 585 744 660 664 c 128,-1,22
 735 584 735 584 735 409 c 0,23,24
 735 319 735 319 713.5 246 c 128,-1,25
 692 173 692 173 657.5 127 c 128,-1,26
 623 81 623 81 577.5 50 c 0,27,28
 495.306451613 -6 495.306451613 -6 398 -6 c 2,29,-1
 377 -6 l 1,0,-1
216 140 m 0,30,31
 216 90 216 90 255.5 73 c 128,-1,32
 295 56 295 56 414 56 c 0,33,34
 487 56 487 56 522 82.5 c 128,-1,35
 557 109 557 109 594.5 176 c 128,-1,36
 632 243 632 243 632 377 c 0,37,38
 632 541 632 541 567.5 617.5 c 128,-1,39
 503 694 503 694 364 694 c 0,40,41
 268 694 268 694 235 683 c 1,42,-1
 224 672 l 1,43,44
 216 460 216 460 216 140 c 0,30,31
EndSplineSet
EndChar

StartChar: E
Encoding: 69 69 40
Width: 640
GlyphClass: 2
Flags: HW
LayerCount: 2
Fore
SplineSet
29 0 m 1,0,-1
 29 37 l 1,1,2
 59 39 59 39 75.5 42 c 128,-1,3
 92 45 92 45 105.5 55 c 128,-1,4
 119 65 119 65 119 83 c 0,5,6
 123 211 123 211 123 387.5 c 128,-1,7
 123 564 123 564 119 661 c 0,8,9
 118 683 118 683 103.5 690.5 c 128,-1,10
 89 698 89 698 51 700 c 2,11,-1
 37 701 l 1,12,-1
 37 738 l 1,13,14
 91 734 91 734 173 734 c 128,-1,15
 255 734 255 734 300 737 c 1,16,-1
 563 738 l 1,17,-1
 575 727 l 1,18,19
 573 719 573 719 561 636 c 128,-1,20
 549 553 549 553 548 542 c 1,21,-1
 514 542 l 1,22,23
 495 644 495 644 490.5 656.5 c 128,-1,24
 486 669 486 669 476 676 c 1,25,26
 443 685 443 685 355.5 685 c 128,-1,27
 268 685 268 685 250 678.5 c 128,-1,28
 232 672 232 672 231 651 c 0,29,30
 229 597 229 597 227 413 c 1,31,32
 368 413 368 413 473 418 c 1,33,-1
 463 344 l 1,34,-1
 446 344 l 1,35,36
 410 370 410 370 226 370 c 1,37,38
 224 222 224 222 224 83 c 0,39,40
 224 59 224 59 260 51.5 c 128,-1,41
 296 44 296 44 388.5 44 c 128,-1,42
 481 44 481 44 496 56 c 0,43,44
 521 78 521 78 547 178 c 2,45,-1
 561 232 l 1,46,-1
 598 232 l 1,47,48
 595 206 595 206 592 111 c 128,-1,49
 589 16 589 16 589 0 c 1,50,-1
 29 0 l 1,0,-1
EndSplineSet
EndChar

StartChar: F
Encoding: 70 70 41
Width: 564
GlyphClass: 2
Flags: HW
LayerCount: 2
Fore
SplineSet
120 157 m 1,0,-1
 122 421 l 1,1,2
 122 559 122 559 119 661 c 0,3,4
 118 683 118 683 103.5 690.5 c 128,-1,5
 89 698 89 698 51 700 c 2,6,-1
 36 701 l 1,7,-1
 36 738 l 1,8,9
 92 734 92 734 173 734 c 128,-1,10
 254 734 254 734 300 737 c 1,11,-1
 538 738 l 1,12,-1
 550 727 l 1,13,14
 548 719 548 719 536 636 c 128,-1,15
 524 553 524 553 523 542 c 1,16,-1
 489 542 l 1,17,18
 470 644 470 644 465.5 656.5 c 128,-1,19
 461 669 461 669 451 676 c 1,20,21
 415 685 415 685 341 685 c 128,-1,22
 267 685 267 685 249 678.5 c 128,-1,23
 231 672 231 672 230 651 c 0,24,25
 226 431 226 431 226 413 c 1,26,27
 368 413 368 413 473 418 c 1,28,-1
 463 344 l 1,29,-1
 445 344 l 1,30,31
 411.382352941 368.279411765 411.382352941 368.279411765 282 369.5 c 0,32,33
 229 370 229 370 226 370 c 1,34,35
 223 148 223 148 223 83 c 0,36,37
 223 51.5151515152 223 51.5151515152 265.5 42.5 c 0,38,39
 282 39 282 39 313 37 c 2,40,-1
 351 34 l 1,41,-1
 351 0 l 1,42,-1
 29 0 l 1,43,-1
 29 37 l 1,44,45
 59 39 59 39 75.5 42 c 128,-1,46
 92 45 92 45 105.5 55 c 128,-1,47
 119 65 119 65 119 83 c 2,48,-1
 120 157 l 1,0,-1
EndSplineSet
EndChar

StartChar: G
Encoding: 71 71 42
Width: 757
GlyphClass: 2
Flags: HW
LayerCount: 2
Fore
SplineSet
42 374.5 m 0,0,1
 42 490 42 490 77 572 c 0,2,3
 98 621 98 621 163 677.5 c 128,-1,4
 228 734 228 734 313 745 c 0,5,6
 364 752 364 752 426.5 752 c 128,-1,7
 489 752 489 752 560 743.5 c 128,-1,8
 631 735 631 735 652 723 c 1,9,-1
 664 712 l 1,10,11
 664 662 664 662 655 536 c 1,12,-1
 620 536 l 1,13,14
 593 628 593 628 584 651 c 1,15,16
 564 664 564 664 506 677 c 128,-1,17
 448 690 448 690 382 690 c 0,18,19
 239 690 239 690 190.5 620 c 128,-1,20
 142 550 142 550 142 362 c 0,21,22
 142 48 142 48 428 48 c 0,23,24
 529 48 529 48 575 91 c 1,25,-1
 575 230 l 2,26,27
 575 253.148148148 575 253.148148148 548.5 261 c 0,28,29
 523.22556391 268.488721805 523.22556391 268.488721805 493 270 c 2,30,-1
 468 272 l 1,31,-1
 467 306 l 1,32,33
 521 302 521 302 605.5 302 c 128,-1,34
 690 302 690 302 744 306 c 1,35,-1
 744 269 l 1,36,-1
 730 268 l 2,37,38
 696 266 696 266 682.5 259 c 128,-1,39
 669 252 669 252 669 237 c 2,40,-1
 669 51 l 1,41,-1
 658 40 l 1,42,43
 497 -17 497 -17 376 -17 c 0,44,45
 226.576470588 -17 226.576470588 -17 138.5 63.5 c 0,46,47
 42 151.698924731 42 151.698924731 42 374.5 c 0,0,1
EndSplineSet
EndChar

StartChar: H
Encoding: 72 72 43
Width: 849
GlyphClass: 2
Flags: HW
LayerCount: 2
Fore
SplineSet
218 370 m 1,0,-1
 216 83 l 2,1,2
 216 51.5151515152 216 51.5151515152 258.5 42.5 c 0,3,4
 275 39 275 39 306 37 c 1,5,-1
 306 0 l 1,6,-1
 29 0 l 1,7,-1
 29 37 l 1,8,9
 59 39 59 39 75.5 42 c 128,-1,10
 92 45 92 45 105.5 55 c 128,-1,11
 119 65 119 65 119 83 c 0,12,13
 119 429 119 429 112 661 c 0,14,15
 111 683 111 683 96.5 690.5 c 128,-1,16
 82 698 82 698 43 700 c 2,17,-1
 29 701 l 1,18,-1
 29 738 l 1,19,-1
 306 738 l 1,20,-1
 306 701 l 1,21,-1
 292 700 l 2,22,23
 253 698 253 698 238.5 690.5 c 128,-1,24
 224 683 224 683 223 661 c 0,25,26
 220 484 220 484 219 413 c 1,27,-1
 630 413 l 1,28,29
 629 534 629 534 625 661 c 0,30,31
 624 683 624 683 609.5 690.5 c 128,-1,32
 595 698 595 698 556 700 c 2,33,-1
 542 701 l 1,34,-1
 542 738 l 1,35,-1
 819 738 l 1,36,-1
 819 701 l 1,37,-1
 805 700 l 2,38,39
 766 698 766 698 751.5 690.5 c 128,-1,40
 737 683 737 683 736 661 c 0,41,42
 729 461 729 461 729 83 c 0,43,44
 729 51.5151515152 729 51.5151515152 771.5 42.5 c 0,45,46
 788 39 788 39 819 37 c 1,47,-1
 819 0 l 1,48,-1
 542 0 l 1,49,-1
 542 37 l 1,50,51
 572 39 572 39 588.5 42 c 128,-1,52
 605 45 605 45 618.5 55 c 128,-1,53
 632 65 632 65 632 83 c 0,54,55
 632 221 632 221 630 370 c 1,56,-1
 218 370 l 1,0,-1
EndSplineSet
EndChar

StartChar: I
Encoding: 73 73 44
Width: 335
GlyphClass: 2
Flags: HW
LayerCount: 2
Fore
SplineSet
29 0 m 1,0,-1
 29 37 l 1,1,2
 59 39 59 39 75.5 42 c 128,-1,3
 92 45 92 45 105.5 55 c 128,-1,4
 119 65 119 65 119 83 c 0,5,6
 119 429 119 429 112 661 c 0,7,8
 111 683 111 683 96.5 690.5 c 128,-1,9
 82 698 82 698 43 700 c 2,10,-1
 29 701 l 1,11,-1
 29 738 l 1,12,-1
 306 738 l 1,13,-1
 306 701 l 1,14,-1
 292 700 l 2,15,16
 253 698 253 698 238.5 690.5 c 128,-1,17
 224 683 224 683 223 661 c 0,18,19
 216 461 216 461 216 83 c 0,20,21
 216 51.5151515152 216 51.5151515152 258.5 42.5 c 0,22,23
 275 39 275 39 306 37 c 1,24,-1
 306 0 l 1,25,-1
 29 0 l 1,0,-1
EndSplineSet
EndChar

StartChar: J
Encoding: 74 74 45
Width: 312
GlyphClass: 2
Flags: HW
LayerCount: 2
Fore
SplineSet
0 -162 m 1,0,-1
 27 -141 l 1,1,2
 75 -98 75 -98 89 -52 c 128,-1,3
 103 -6 103 -6 103 92 c 0,4,5
 103 598 103 598 97 661 c 1,6,7
 96 684 96 684 81.5 691 c 128,-1,8
 67 698 67 698 29 700 c 2,9,-1
 15 701 l 1,10,-1
 15 738 l 1,11,-1
 292 738 l 1,12,-1
 292 701 l 1,13,-1
 277 700 l 2,14,15
 251 698 251 698 238 695.5 c 0,16,17
 209 689.923076923 209 689.923076923 209 661 c 0,18,19
 202 56 202 56 193 8 c 1,20,21
 175 -105 175 -105 64 -170 c 1,22,-1
 20 -194 l 1,23,-1
 0 -162 l 1,0,-1
EndSplineSet
EndChar

StartChar: K
Encoding: 75 75 46
Width: 670
GlyphClass: 2
Flags: HW
LayerCount: 2
Fore
SplineSet
224 369 m 1,0,-1
 225 83 l 2,1,2
 225 51.5151515152 225 51.5151515152 267.5 42.5 c 0,3,4
 284 39 284 39 315 37 c 1,5,-1
 315 0 l 1,6,-1
 38 0 l 1,7,-1
 38 37 l 1,8,9
 68 39 68 39 84.5 42 c 128,-1,10
 101 45 101 45 114.5 55 c 128,-1,11
 128 65 128 65 128 77 c 128,-1,12
 128 89 128 89 126 201.5 c 0,13,14
 120.953271028 485.378504673 120.953271028 485.378504673 115 661 c 0,15,16
 114 683 114 683 99.5 690.5 c 128,-1,17
 85 698 85 698 47 700 c 2,18,-1
 32 701 l 1,19,-1
 32 738 l 1,20,-1
 218 738 l 1,21,-1
 230 727 l 1,22,23
 224 601 224 601 224 411 c 1,24,25
 254 412 254 412 317.5 478.5 c 128,-1,26
 381 545 381 545 429.5 611 c 128,-1,27
 478 677 478 677 478 684.5 c 128,-1,28
 478 692 478 692 466.5 695.5 c 128,-1,29
 455 699 455 699 419 701 c 1,30,-1
 419 738 l 1,31,-1
 651 738 l 1,32,-1
 651 701 l 1,33,34
 609 698 609 698 595.5 692.5 c 128,-1,35
 582 687 582 687 544 654 c 128,-1,36
 506 621 506 621 396 496 c 1,37,-1
 332 422 l 1,38,39
 520 156 520 156 608 60 c 1,40,-1
 670 36 l 1,41,-1
 670 0 l 1,42,43
 573 0 573 0 518 -4 c 1,44,-1
 256 362 l 2,45,46
 251 369 251 369 241 369 c 2,47,-1
 224 369 l 1,0,-1
EndSplineSet
EndChar

StartChar: L
Encoding: 76 76 47
Width: 558
GlyphClass: 2
Flags: HW
LayerCount: 2
Fore
SplineSet
29 0 m 1,0,-1
 29 37 l 1,1,2
 61 39 61 39 77.5 42.5 c 0,3,4
 119 51.303030303 119 51.303030303 119 83 c 0,5,6
 119 436 119 436 112 661 c 0,7,8
 111 684 111 684 96.5 691 c 128,-1,9
 82 698 82 698 43 700 c 2,10,-1
 29 701 l 1,11,-1
 29 738 l 1,12,-1
 319 738 l 1,13,-1
 319 701 l 1,14,-1
 305 700 l 2,15,16
 277 698 277 698 262 695.5 c 0,17,18
 223 689 223 689 223 661 c 0,19,20
 216 461 216 461 216 83 c 0,21,22
 216 44 216 44 314 44 c 2,23,-1
 335 44 l 2,24,25
 442 44 442 44 456 56 c 0,26,27
 481 78 481 78 507 178 c 2,28,-1
 521 232 l 1,29,-1
 558 232 l 1,30,31
 555 206 555 206 552 111 c 128,-1,32
 549 16 549 16 549 0 c 1,33,-1
 29 0 l 1,0,-1
EndSplineSet
EndChar

StartChar: M
Encoding: 77 77 48
Width: 953
GlyphClass: 2
Flags: HW
LayerCount: 2
Fore
SplineSet
2 701 m 1,0,-1
 2 738 l 1,1,-1
 230 738 l 1,2,-1
 239 711 l 1,3,-1
 463 155 l 1,4,5
 585 420 585 420 690 711 c 1,6,-1
 699 738 l 1,7,-1
 927 738 l 1,8,-1
 927 701 l 1,9,10
 842.554376658 697.984084881 842.554376658 697.984084881 826.5 683 c 0,11,12
 819 676 819 676 819 669 c 128,-1,13
 819 662 819 662 838 116 c 2,14,-1
 839 88 l 1,15,16
 842 57 842 57 857.5 48.5 c 128,-1,17
 873 40 873 40 920 37 c 1,18,-1
 920 0 l 1,19,-1
 643 0 l 1,20,-1
 643 37 l 1,21,22
 673 39 673 39 689.5 42 c 128,-1,23
 706 45 706 45 719.5 55 c 128,-1,24
 733 65 733 65 733 83 c 0,25,26
 730 276 730 276 711 597 c 1,27,28
 572 292 572 292 460 0 c 1,29,-1
 421 0 l 1,30,-1
 165 601 l 1,31,32
 150 343 150 343 150 83 c 0,33,34
 150 47 150 47 239 39 c 1,35,-1
 239 0 l 1,36,-1
 3 0 l 1,37,-1
 3 36 l 1,38,39
 48 41 48 41 65 62.5 c 128,-1,40
 82 84 82 84 86 132 c 0,41,42
 106.024038462 440.370192308 106.024038462 440.370192308 109 610 c 2,43,-1
 110 666 l 2,44,45
 110 685 110 685 83.5 691.5 c 128,-1,46
 57 698 57 698 2 701 c 1,0,-1
EndSplineSet
EndChar

StartChar: N
Encoding: 78 78 49
Width: 777
GlyphClass: 2
Flags: HW
LayerCount: 2
Fore
SplineSet
109 527 m 1,0,-1
 108 620.5 l 1,1,-1
 108 667 l 1,2,3
 104 692 104 692 65 696 c 2,4,-1
 15 701 l 1,5,-1
 15 738 l 1,6,-1
 204 738 l 1,7,8
 216 703 216 703 633 159 c 1,9,10
 629 215 629 215 629 358.5 c 128,-1,11
 629 502 629 502 625 634 c 0,12,13
 624 669 624 669 610 681.5 c 128,-1,14
 596 694 596 694 535 700 c 1,15,-1
 535 738 l 1,16,-1
 777 738 l 1,17,-1
 777 702 l 1,18,19
 710 696 710 696 696 675 c 1,20,-1
 690 644 l 1,21,22
 683 401 683 401 683 164 c 1,23,-1
 685 0 l 1,24,-1
 626 0 l 1,25,26
 585.882352941 60.1764705882 585.882352941 60.1764705882 524.941176471 137.588235294 c 128,-1,27
 464 215 464 215 426.5 263 c 0,28,29
 349.714285714 361.285714286 349.714285714 361.285714286 164 597 c 1,30,-1
 164 290 l 1,31,32
 169 99 169 99 169 80 c 128,-1,33
 169 61 169 61 191.5 52 c 128,-1,34
 214 43 214 43 255 39 c 1,35,-1
 255 0 l 1,36,-1
 19 0 l 1,37,-1
 19 36 l 1,38,39
 97 43 97 43 102 80 c 0,40,41
 109 130 109 130 109 450 c 2,42,-1
 109 527 l 1,0,-1
EndSplineSet
EndChar

StartChar: O
Encoding: 79 79 50
Width: 745
GlyphClass: 2
Flags: HW
LayerCount: 2
Fore
SplineSet
121 88.5 m 128,-1,1
 42 191 42 191 42 352 c 128,-1,2
 42 513 42 513 106 610 c 0,3,4
 140 661 140 661 201.5 695.5 c 0,5,6
 300.434782609 751 300.434782609 751 395 751 c 0,7,8
 551 751 551 751 627.5 662 c 128,-1,9
 704 573 704 573 704 399.5 c 128,-1,10
 704 226 704 226 633 122 c 0,11,12
 585 52 585 52 502.5 19 c 128,-1,13
 420 -14 420 -14 359 -14 c 0,14,0
 200 -14 200 -14 121 88.5 c 128,-1,1
144 379 m 0,15,16
 144 278.185185185 144 278.185185185 174.5 202.5 c 0,17,18
 188 169 188 169 216.5 132 c 128,-1,19
 245 95 245 95 288 73.5 c 128,-1,20
 331 52 331 52 405 52 c 0,21,22
 601 52 601 52 601 351 c 0,23,24
 601 520 601 520 548 597.5 c 128,-1,25
 495 675 495 675 413 687 c 0,26,27
 404 689 404 689 359 689 c 0,28,29
 260 689 260 689 202 616 c 128,-1,30
 144 543 144 543 144 379 c 0,15,16
EndSplineSet
EndChar

StartChar: P
Encoding: 80 80 51
Width: 637
GlyphClass: 2
Flags: HW
LayerCount: 2
Fore
SplineSet
225 338 m 1,0,-1
 223 83 l 2,1,2
 223 56.0263157895 223 56.0263157895 259 47.5 c 0,3,4
 289.063291139 40.3797468354 289.063291139 40.3797468354 333 37 c 2,5,-1
 371 34 l 1,6,-1
 371 0 l 1,7,-1
 29 0 l 1,8,-1
 29 37 l 1,9,10
 59 39 59 39 75 42 c 128,-1,11
 91 45 91 45 105 55 c 128,-1,12
 119 65 119 65 119 83 c 0,13,14
 122 185 122 185 122 372 c 128,-1,15
 122 559 122 559 119 661 c 0,16,17
 118 683 118 683 103.5 690.5 c 128,-1,18
 89 698 89 698 50 700 c 2,19,-1
 36 701 l 1,20,-1
 36 738 l 1,21,22
 92 734 92 734 178.5 734 c 128,-1,23
 265 734 265 734 315.5 739 c 128,-1,24
 366 744 366 744 376 744 c 2,25,-1
 396 744 l 2,26,27
 455 744 455 744 497.5 726.5 c 128,-1,28
 540 709 540 709 561.5 678.5 c 0,29,30
 602 621.046511628 602 621.046511628 602 541 c 0,31,32
 602 486.511627907 602 486.511627907 561.5 430 c 0,33,34
 484.1 322 484.1 322 332 322 c 0,35,36
 261 322 261 322 225 338 c 1,0,-1
226 402 m 1,37,38
 260 372 260 372 341 372 c 0,39,40
 382 372 382 372 412 383.5 c 128,-1,41
 442 395 442 395 456.5 410 c 128,-1,42
 471 425 471 425 479 448.5 c 0,43,44
 490 480.8125 490 480.8125 490 515.90625 c 128,-1,45
 490 551 490 551 488.5 568 c 128,-1,46
 487 585 487 585 480.5 610 c 0,47,48
 467.571549534 659.724809483 467.571549534 659.724809483 413 686 c 0,49,50
 393 695 393 695 384 695 c 0,51,52
 277 695 277 695 242 683 c 1,53,-1
 231 672 l 1,54,55
 228 591 228 591 226 402 c 1,37,38
EndSplineSet
EndChar

StartChar: Q
Encoding: 81 81 52
Width: 745
GlyphClass: 2
Flags: HW
LayerCount: 2
Fore
SplineSet
121 88.5 m 128,-1,1
 42 191 42 191 42 352 c 128,-1,2
 42 513 42 513 106 610 c 0,3,4
 140 661 140 661 201.5 695.5 c 0,5,6
 300.434782609 751 300.434782609 751 395 751 c 0,7,8
 551 751 551 751 627.5 662 c 128,-1,9
 704 573 704 573 704 412 c 128,-1,10
 704 251 704 251 655.5 159.5 c 128,-1,11
 607 68 607 68 511 23 c 1,12,13
 603 -78 603 -78 654 -114 c 1,14,15
 625 -152 625 -152 609 -191 c 1,16,-1
 595 -195 l 1,17,-1
 439 -2 l 1,18,19
 396 -14 396 -14 359 -14 c 0,20,0
 200 -14 200 -14 121 88.5 c 128,-1,1
144 379 m 0,21,22
 144 278.185185185 144 278.185185185 174.5 202.5 c 0,23,24
 188 169 188 169 216.5 132 c 128,-1,25
 245 95 245 95 288 73.5 c 128,-1,26
 331 52 331 52 405 52 c 0,27,28
 601 52 601 52 601 351 c 0,29,30
 601 520 601 520 548 597.5 c 128,-1,31
 495 675 495 675 413 687 c 0,32,33
 404 689 404 689 359 689 c 0,34,35
 260 689 260 689 202 616 c 128,-1,36
 144 543 144 543 144 379 c 0,21,22
EndSplineSet
EndChar

StartChar: R
Encoding: 82 82 53
Width: 669
GlyphClass: 2
Flags: HW
LayerCount: 2
Fore
SplineSet
32 0 m 1,0,-1
 32 37 l 1,1,2
 62 39 62 39 78.5 42 c 128,-1,3
 95 45 95 45 108.5 55 c 128,-1,4
 122 65 122 65 122 83 c 0,5,6
 122 429 122 429 115 661 c 0,7,8
 114 683 114 683 99.5 690.5 c 128,-1,9
 85 698 85 698 46 700 c 2,10,-1
 32 701 l 1,11,-1
 32 738 l 1,12,13
 88 734 88 734 170.5 734 c 128,-1,14
 253 734 253 734 308.5 739 c 128,-1,15
 364 744 364 744 372 744 c 2,16,-1
 392 744 l 2,17,18
 459 744 459 744 508.5 695 c 128,-1,19
 558 646 558 646 558 573.5 c 128,-1,20
 558 501 558 501 530 463 c 128,-1,21
 502 425 502 425 436 382 c 1,22,23
 541 176 541 176 614 60 c 1,24,-1
 669 36 l 1,25,-1
 669 0 l 1,26,27
 579 0 579 0 524 -4 c 1,28,-1
 349 357 l 1,29,-1
 321 357 l 2,30,31
 260 357 260 357 222 370 c 1,32,33
 219 159 219 159 219 83 c 0,34,35
 219 51.5151515152 219 51.5151515152 261.5 42.5 c 0,36,37
 278 39 278 39 309 37 c 1,38,-1
 309 0 l 1,39,-1
 32 0 l 1,0,-1
223 424 m 1,40,41
 251 407 251 407 328 407 c 0,42,43
 375 407 375 407 405 432.5 c 128,-1,44
 435 458 435 458 444.5 488.5 c 128,-1,45
 454 519 454 519 454 552 c 128,-1,46
 454 585 454 585 445.5 612 c 128,-1,47
 437 639 437 639 424.5 654 c 128,-1,48
 412 669 412 669 398 679.5 c 0,49,50
 374.666666667 697 374.666666667 697 359 697 c 0,51,52
 267 697 267 697 237 684 c 1,53,-1
 227 673 l 1,54,55
 225 629 225 629 223 424 c 1,40,41
EndSplineSet
EndChar

StartChar: S
Encoding: 83 83 54
Width: 519
GlyphClass: 2
Flags: HW
LayerCount: 2
Fore
SplineSet
412 528 m 1,0,-1
 379 637 l 1,1,2
 371 657 371 657 363 663 c 0,3,4
 334 689 334 689 268.5 689 c 128,-1,5
 203 689 203 689 170 666 c 128,-1,6
 137 643 137 643 137 584 c 0,7,8
 137 519.739130435 137 519.739130435 189.5 485.5 c 0,9,10
 201 478 201 478 217 469 c 2,11,-1
 369 390 l 2,12,13
 489 328 489 328 489 204 c 0,14,15
 489 151 489 151 476 120 c 128,-1,16
 463 89 463 89 424 44 c 1,17,18
 370 -15 370 -15 253 -15 c 0,19,20
 160 -15 160 -15 58 30 c 1,21,22
 65 126 65 126 65 232 c 1,23,-1
 102 232 l 1,24,-1
 116 178 l 2,25,26
 130 124 130 124 137.5 108.5 c 128,-1,27
 145 93 145 93 164 78 c 1,28,29
 215 56 215 56 276 56 c 128,-1,30
 337 56 337 56 366 79.5 c 128,-1,31
 395 103 395 103 395 165 c 0,32,33
 395 251 395 251 303 300 c 1,34,-1
 222 340 l 1,35,36
 163 371 163 371 145 382 c 128,-1,37
 127 393 127 393 115 405 c 2,38,-1
 107 414 l 1,39,40
 57 468 57 468 57 537.5 c 128,-1,41
 57 607 57 607 79.5 648.5 c 128,-1,42
 102 690 102 690 169 727 c 0,43,44
 217 753 217 753 294.5 753 c 128,-1,45
 372 753 372 753 444 715 c 1,46,-1
 456 704 l 1,47,48
 456 654 456 654 447 528 c 1,49,-1
 412 528 l 1,0,-1
EndSplineSet
EndChar

StartChar: T
Encoding: 84 84 55
Width: 608
GlyphClass: 2
Flags: HW
LayerCount: 2
Fore
SplineSet
0 727 m 1,0,-1
 11 738 l 1,1,-1
 597 738 l 1,2,-1
 608 727 l 1,3,4
 603 642 603 642 603 530 c 1,5,-1
 568 530 l 1,6,7
 542 624 542 624 534 640 c 1,8,9
 530 652 530 652 525 662 c 1,10,11
 518 669 518 669 507 671 c 0,12,13
 455 681 455 681 420 681 c 128,-1,14
 385 681 385 681 360 676 c 1,15,16
 352 487 352 487 352 83 c 0,17,18
 352 65 352 65 370.5 54.5 c 128,-1,19
 389 44 389 44 408 41 c 128,-1,20
 427 38 427 38 460 35 c 1,21,-1
 460 0 l 1,22,-1
 140 0 l 1,23,-1
 140 35 l 1,24,25
 219.636363636 41.6363636364 219.636363636 41.6363636364 238 60 c 0,26,27
 247 69 247 69 247 83 c 0,28,29
 250 277 250 277 250 446.5 c 128,-1,30
 250 616 250 616 248 676 c 1,31,32
 223 681 223 681 188 681 c 128,-1,33
 153 681 153 681 101 671 c 0,34,35
 90 669 90 669 83 662 c 1,36,37
 78 652 78 652 74 640 c 1,38,39
 66 624 66 624 40 530 c 1,40,-1
 5 530 l 1,41,42
 5 642 5 642 0 727 c 1,0,-1
EndSplineSet
EndChar

StartChar: U
Encoding: 85 85 56
Width: 757
GlyphClass: 2
Flags: HW
LayerCount: 2
Fore
SplineSet
618 356 m 2,0,-1
 616 655 l 2,1,2
 616 691 616 691 526 699 c 1,3,-1
 526 738 l 1,4,-1
 762 738 l 1,5,-1
 762 702 l 1,6,7
 685 693 685 693 682 658 c 1,8,-1
 681 640 l 2,9,10
 679 612 679 612 675 443 c 128,-1,11
 671 274 671 274 671 223.5 c 128,-1,12
 671 173 671 173 653 126 c 128,-1,13
 635 79 635 79 607.5 52.5 c 128,-1,14
 580 26 580 26 537 10.5 c 128,-1,15
 494 -5 494 -5 454 -9.5 c 128,-1,16
 414 -14 414 -14 358.5 -14 c 128,-1,17
 303 -14 303 -14 257 4 c 128,-1,18
 211 22 211 22 186 47.5 c 128,-1,19
 161 73 161 73 144.5 106.5 c 0,20,21
 118 160.303030303 118 160.303030303 118 214 c 0,22,23
 116 639 116 639 113.5 660 c 128,-1,24
 111 681 111 681 96 689.5 c 128,-1,25
 81 698 81 698 34 701 c 1,26,-1
 34 738 l 1,27,-1
 310 738 l 1,28,-1
 310 701 l 1,29,30
 278 699 278 699 261.5 695.5 c 0,31,32
 220 686.696969697 220 686.696969697 220 655 c 2,33,-1
 221 390 l 1,34,-1
 221 310 l 1,35,36
 222 255 222 255 222 214.5 c 128,-1,37
 222 174 222 174 232 150 c 128,-1,38
 242 126 242 126 264.5 101.5 c 128,-1,39
 287 77 287 77 331 61.5 c 128,-1,40
 375 46 375 46 429 46 c 128,-1,41
 483 46 483 46 516 57.5 c 128,-1,42
 549 69 549 69 569.5 89.5 c 128,-1,43
 590 110 590 110 600.5 150.5 c 0,44,45
 618 218 618 218 618 356 c 2,0,-1
EndSplineSet
EndChar

StartChar: V
Encoding: 86 86 57
Width: 750
GlyphClass: 2
Flags: HW
LayerCount: 2
Fore
SplineSet
0 701 m 1,0,-1
 0 738 l 1,1,-1
 276 738 l 1,2,-1
 276 701 l 1,3,4
 202 695 202 695 202 666 c 2,5,-1
 202 662 l 2,6,7
 202 645 202 645 283 410.5 c 128,-1,8
 364 176 364 176 391 121 c 1,9,10
 441 233 441 233 519 434 c 128,-1,11
 597 635 597 635 597 655.5 c 0,12,13
 597 676 597 676 581.5 685 c 128,-1,14
 566 694 566 694 514 699 c 1,15,-1
 514 738 l 1,16,-1
 750 738 l 1,17,-1
 750 702 l 1,18,19
 710 698 710 698 691.5 675.5 c 128,-1,20
 673 653 673 653 636 566 c 2,21,-1
 401 0 l 1,22,-1
 337 0 l 1,23,-1
 78 638 l 2,24,25
 65 670 65 670 49.5 684.5 c 128,-1,26
 34 699 34 699 0 701 c 1,0,-1
EndSplineSet
EndChar

StartChar: W
Encoding: 87 87 58
Width: 1000
GlyphClass: 2
Flags: HW
LayerCount: 2
Fore
SplineSet
0 701 m 1,0,-1
 0 738 l 1,1,-1
 260 738 l 1,2,-1
 260 701 l 1,3,4
 208 697 208 697 191.5 690.5 c 128,-1,5
 175 684 175 684 175 664.5 c 128,-1,6
 175 645 175 645 230 427.5 c 128,-1,7
 285 210 285 210 302 167 c 1,8,9
 331 240 331 240 394.5 444 c 128,-1,10
 458 648 458 648 458 666.5 c 128,-1,11
 458 685 458 685 441 691.5 c 128,-1,12
 424 698 424 698 382 701 c 1,13,-1
 382 738 l 1,14,-1
 659 738 l 1,15,-1
 659 701 l 1,16,17
 591 697 591 697 591 668 c 0,18,19
 591 660 591 660 614.5 565.5 c 0,20,21
 686.643356643 275.391608392 686.643356643 275.391608392 730 167 c 1,22,23
 773 296 773 296 821 467.5 c 128,-1,24
 869 639 869 639 869 658.5 c 128,-1,25
 869 678 869 678 850.5 686.5 c 128,-1,26
 832 695 832 695 786 699 c 1,27,-1
 786 738 l 1,28,-1
 1000 738 l 1,29,-1
 1000 702 l 1,30,31
 976 700 976 700 964 690.5 c 128,-1,32
 952 681 952 681 944 660 c 1,33,34
 753 34 753 34 746 0 c 1,35,-1
 672 0 l 1,36,37
 655 82 655 82 591.5 280 c 128,-1,38
 528 478 528 478 495 569 c 1,39,40
 469 500 469 500 395.5 273.5 c 128,-1,41
 322 47 322 47 314 0 c 1,42,-1
 236 0 l 1,43,44
 231 41 231 41 71 596 c 1,45,-1
 58 638 l 1,46,47
 51 669 51 669 39 684 c 128,-1,48
 27 699 27 699 0 701 c 1,0,-1
EndSplineSet
EndChar

StartChar: X
Encoding: 88 88 59
Width: 646
GlyphClass: 2
Flags: HW
LayerCount: 2
Fore
SplineSet
0 0 m 1,0,-1
 0 36 l 1,1,2
 26 39 26 39 66.5 77 c 0,3,4
 107 115 107 115 283 362 c 1,5,-1
 78 671 l 2,6,7
 59 698 59 698 17 701 c 1,8,-1
 17 738 l 1,9,-1
 294 738 l 1,10,-1
 294 701 l 1,11,12
 255 698 255 698 240.5 692.5 c 128,-1,13
 226 687 226 687 226 675 c 0,14,15
 226 651 226 651 353 444 c 1,16,17
 411 523 411 523 453.5 589.5 c 128,-1,18
 496 656 496 656 496 670 c 128,-1,19
 496 684 496 684 482.5 689.5 c 128,-1,20
 469 695 469 695 420 699 c 1,21,-1
 420 738 l 1,22,-1
 644 738 l 1,23,-1
 644 702 l 1,24,25
 601 697 601 697 549 630 c 1,26,-1
 379 401 l 1,27,-1
 511 182 l 2,28,29
 572 80 572 80 591 59.5 c 128,-1,30
 610 39 610 39 646 37 c 1,31,-1
 646 0 l 1,32,-1
 389 0 l 1,33,-1
 389 37 l 1,34,35
 464 43 464 43 464 66 c 0,36,37
 464 72 464 72 453 92 c 1,38,-1
 309 319 l 1,39,40
 250 240 250 240 196 160 c 128,-1,41
 142 80 142 80 142 69 c 0,42,43
 142 48 142 48 224 39 c 1,44,-1
 224 0 l 1,45,-1
 0 0 l 1,0,-1
EndSplineSet
EndChar

StartChar: Y
Encoding: 89 89 60
Width: 649
GlyphClass: 2
Flags: HW
LayerCount: 2
Fore
SplineSet
0 701 m 1,0,-1
 0 738 l 1,1,-1
 276 738 l 1,2,-1
 276 701 l 1,3,4
 227 697 227 697 210 690 c 128,-1,5
 193 683 193 683 193 668 c 0,6,7
 193 645 193 645 344 408 c 1,8,9
 511 647 511 647 511 673 c 0,10,11
 511 687 511 687 495.5 691.5 c 128,-1,12
 480 696 480 696 441 699 c 1,13,-1
 441 738 l 1,14,-1
 649 738 l 1,15,-1
 649 702 l 1,16,17
 610 697 610 697 594 677 c 1,18,-1
 370 367 l 1,19,20
 367 301 367 301 367 188.5 c 0,21,22
 367 76 367 76 372 67 c 0,23,24
 386 41 386 41 472 35 c 1,25,-1
 472 0 l 1,26,-1
 162 0 l 1,27,-1
 162 35 l 1,28,29
 194 38 194 38 213 41 c 128,-1,30
 232 44 232 44 249.5 54.5 c 128,-1,31
 267 65 267 65 267 83 c 2,32,-1
 263 358 l 1,33,34
 240 399 240 399 64 654 c 1,35,36
 36 698 36 698 0 701 c 1,0,-1
EndSplineSet
EndChar

StartChar: Z
Encoding: 90 90 61
Width: 661
GlyphClass: 2
Flags: HW
LayerCount: 2
Fore
SplineSet
21 11 m 1,0,-1
 467 682 l 1,1,2
 417 687 417 687 381.5 687 c 0,3,4
 346 687 346 687 186 683 c 0,5,6
 171 682 171 682 158.5 666 c 128,-1,7
 146 650 146 650 142 638 c 1,8,9
 134 622 134 622 108 528 c 1,10,-1
 74 528 l 1,11,12
 70 588 70 588 70 727 c 1,13,-1
 82 738 l 1,14,-1
 613 738 l 1,15,-1
 625 727 l 1,16,17
 206 136 206 136 169 60 c 1,18,19
 227 50 227 50 283 50 c 0,20,21
 497 50 497 50 511 63 c 1,22,23
 538 85 538 85 562 178 c 1,24,-1
 572 215 l 1,25,-1
 612 215 l 1,26,27
 604 95 604 95 604 0 c 1,28,-1
 33 0 l 1,29,-1
 21 11 l 1,0,-1
EndSplineSet
EndChar

StartChar: bracketleft
Encoding: 91 91 62
Width: 295
GlyphClass: 2
Flags: HW
LayerCount: 2
Fore
SplineSet
179 -202 m 1,0,-1
 111 -204 l 1,1,-1
 100 -193 l 1,2,-1
 100 786 l 1,3,-1
 111 797 l 1,4,5
 119 795 119 795 182 795 c 128,-1,6
 245 795 245 795 295 797 c 1,7,-1
 295 764 l 1,8,9
 206.633663366 762.267326733 206.633663366 762.267326733 196 741 c 0,10,11
 191 731 191 731 190 705 c 1,12,-1
 190 -113 l 1,13,14
 191 -139 191 -139 196 -149 c 0,15,16
 206.128712871 -169.257425743 206.128712871 -169.257425743 295 -171 c 1,17,-1
 295 -205 l 1,18,19
 220 -202 220 -202 179 -202 c 1,0,-1
EndSplineSet
EndChar

StartChar: backslash
Encoding: 92 92 63
Width: 480
GlyphClass: 2
Flags: HW
LayerCount: 2
Fore
SplineSet
-20 797 m 1,0,-1
 41 797 l 1,1,-1
 500 -140 l 1,2,-1
 437 -140 l 1,3,-1
 -20 797 l 1,0,-1
EndSplineSet
EndChar

StartChar: bracketright
Encoding: 93 93 64
Width: 295
GlyphClass: 2
Flags: HW
LayerCount: 2
Fore
SplineSet
184 -204 m 1,0,-1
 116 -202 l 1,1,2
 75 -202 75 -202 0 -205 c 1,3,-1
 0 -171 l 1,4,5
 88.8712871287 -169.257425743 88.8712871287 -169.257425743 99 -149 c 0,6,7
 104 -139 104 -139 105 -113 c 1,8,-1
 105 705 l 1,9,10
 104 731 104 731 99 741 c 0,11,12
 88.3663366337 762.267326733 88.3663366337 762.267326733 0 764 c 1,13,-1
 0 797 l 1,14,15
 50 795 50 795 113 795 c 128,-1,16
 176 795 176 795 184 797 c 1,17,-1
 195 786 l 1,18,-1
 195 -193 l 1,19,-1
 184 -204 l 1,0,-1
EndSplineSet
EndChar

StartChar: asciicircum
Encoding: 94 94 65
Width: 480
GlyphClass: 2
Flags: HW
LayerCount: 2
Fore
SplineSet
-3 273 m 1,0,-1
 202 734 l 1,1,-1
 272 747 l 1,2,-1
 483 273 l 1,3,-1
 472 261 l 1,4,-1
 411 273 l 1,5,-1
 240 657 l 1,6,-1
 69 273 l 1,7,-1
 8 261 l 1,8,-1
 -3 273 l 1,0,-1
EndSplineSet
EndChar

StartChar: underscore
Encoding: 95 95 66
Width: 500
GlyphClass: 2
Flags: HW
LayerCount: 2
Fore
SplineSet
0 -43 m 1,0,-1
 500 -42 l 1,1,-1
 500 -98 l 1,2,-1
 0 -98 l 1,3,-1
 0 -43 l 1,0,-1
EndSplineSet
EndChar

StartChar: grave
Encoding: 96 96 67
Width: 500
GlyphClass: 4
Flags: HW
LayerCount: 2
Fore
SplineSet
144 715 m 1,0,1
 145 733 145 733 163 746.5 c 128,-1,2
 181 760 181 760 202 760 c 1,3,4
 297 641 297 641 356 580 c 1,5,-1
 338 559 l 1,6,7
 251 617 251 617 144 715 c 1,0,1
EndSplineSet
EndChar

StartChar: a
Encoding: 97 97 68
Width: 478
GlyphClass: 2
Flags: HW
LayerCount: 2
Fore
SplineSet
415 392 m 2,0,-1
 411 128 l 2,1,2
 411 103 411 103 433.5 67.5 c 128,-1,3
 456 32 456 32 456 26.5 c 128,-1,4
 456 21 456 21 447 18 c 0,5,6
 377 -5 377 -5 368.5 -5 c 128,-1,7
 360 -5 360 -5 351.5 9.5 c 128,-1,8
 343 24 343 24 336 45 c 128,-1,9
 329 66 329 66 328 67 c 1,10,11
 313 57 313 57 291 42 c 128,-1,12
 269 27 269 27 260.5 21.5 c 128,-1,13
 252 16 252 16 236.5 8 c 128,-1,14
 221 0 221 0 209 -3 c 0,15,16
 181 -10 181 -10 133.5 -10 c 128,-1,17
 86 -10 86 -10 63 28 c 128,-1,18
 40 66 40 66 40 111 c 128,-1,19
 40 156 40 156 47 183 c 128,-1,20
 54 210 54 210 70 228 c 128,-1,21
 86 246 86 246 102 258 c 128,-1,22
 118 270 118 270 147.5 278.5 c 128,-1,23
 177 287 177 287 198.5 291.5 c 128,-1,24
 220 296 220 296 259 303.5 c 128,-1,25
 298 311 298 311 322 316 c 1,26,-1
 323 376 l 2,27,28
 323 422 323 422 290 442 c 128,-1,29
 257 462 257 462 210.5 462 c 128,-1,30
 164 462 164 462 146 438.5 c 128,-1,31
 128 415 128 415 107 338 c 1,32,-1
 66 342 l 1,33,34
 66 429.481481481 66 429.481481481 96.5 464.5 c 0,35,36
 132.416356877 505.737298637 132.416356877 505.737298637 174.208178439 515.868649318 c 128,-1,37
 216 526 216 526 259.5 526 c 128,-1,38
 303 526 303 526 334 516 c 128,-1,39
 365 506 365 506 380.5 493.5 c 128,-1,40
 396 481 396 481 404.5 459.5 c 128,-1,41
 413 438 413 438 414 425 c 128,-1,42
 415 412 415 412 415 392 c 2,0,-1
130 131 m 0,43,44
 130 57 130 57 197 57 c 0,45,46
 256 57 256 57 316 107 c 0,47,48
 323 113 323 113 323 180 c 128,-1,49
 323 247 323 247 322 277 c 1,50,51
 304 271 304 271 276.5 262 c 128,-1,52
 249 253 249 253 237.5 249 c 128,-1,53
 226 245 226 245 207 238.5 c 128,-1,54
 188 232 188 232 181.5 228 c 128,-1,55
 175 224 175 224 163.5 218 c 128,-1,56
 152 212 152 212 149 206.5 c 128,-1,57
 146 201 146 201 140 193.5 c 128,-1,58
 134 186 134 186 133 176.5 c 0,59,60
 130 148 130 148 130 131 c 0,43,44
EndSplineSet
Substitution2: "Single Substitution in Latin lookup 0 subtable" A
EndChar

StartChar: b
Encoding: 98 98 69
Width: 535
GlyphClass: 2
Flags: HW
LayerCount: 2
Fore
SplineSet
10 773 m 1,0,1
 84.4230769231 779.923076923 84.4230769231 779.923076923 120.711538462 788.461538462 c 128,-1,2
 157 797 157 797 160 797 c 0,3,4
 177 797 177 797 177 782 c 2,5,-1
 177 739 l 1,6,-1
 173 462 l 1,7,8
 292 527 292 527 327 527 c 0,9,10
 439.223880597 527 439.223880597 527 476.5 459.5 c 0,11,12
 509 400.648648649 509 400.648648649 509 279.824324324 c 128,-1,13
 509 159 509 159 466 94 c 0,14,15
 455 79 455 79 419.5 47 c 128,-1,16
 384 15 384 15 350 0 c 128,-1,17
 316 -15 316 -15 264.5 -15 c 128,-1,18
 213 -15 213 -15 159 2.5 c 128,-1,19
 105 20 105 20 86 47 c 1,20,21
 85 170 85 170 85 319.5 c 0,22,23
 85 703 85 703 74 725 c 0,24,25
 68 739 68 739 34 740 c 1,26,-1
 12 740 l 1,27,-1
 10 773 l 1,0,1
172 353 m 1,28,29
 171 293 171 293 171 200.5 c 128,-1,30
 171 108 171 108 181 98 c 1,31,32
 193 83 193 83 232 68.5 c 128,-1,33
 271 54 271 54 309 54 c 128,-1,34
 347 54 347 54 368.5 66.5 c 128,-1,35
 390 79 390 79 400.5 114 c 128,-1,36
 411 149 411 149 415.5 207 c 128,-1,37
 420 265 420 265 420 301 c 128,-1,38
 420 337 420 337 406.5 373.5 c 128,-1,39
 393 410 393 410 371 427 c 0,40,41
 330.882352941 458 330.882352941 458 288.441176471 458 c 128,-1,42
 246 458 246 458 172 419 c 1,43,-1
 172 353 l 1,28,29
EndSplineSet
Substitution2: "Single Substitution in Latin lookup 0 subtable" B
EndChar

StartChar: c
Encoding: 99 99 70
Width: 441
GlyphClass: 2
Flags: HW
LayerCount: 2
Fore
SplineSet
44 120 m 1,0,1
 30 180 30 180 30 249.5 c 128,-1,2
 30 319 30 319 43 383 c 0,3,4
 50 413 50 413 78 436 c 1,5,6
 123 478 123 478 159.5 498.5 c 128,-1,7
 196 519 196 519 213.5 522 c 128,-1,8
 231 525 231 525 265 525 c 128,-1,9
 299 525 299 525 341 517 c 128,-1,10
 383 509 383 509 396 504 c 1,11,12
 393 474 393 474 393 354 c 1,13,-1
 363 354 l 1,14,15
 353 398 353 398 347.5 417 c 128,-1,16
 342 436 342 436 304 446 c 128,-1,17
 266 456 266 456 213 456 c 128,-1,18
 160 456 160 456 139.5 418 c 128,-1,19
 119 380 119 380 119 272 c 0,20,21
 119 175.428571429 119 175.428571429 143 124 c 0,22,23
 171.466666667 63 171.466666667 63 255 63 c 0,24,25
 285 63 285 63 319 80.5 c 128,-1,26
 353 98 353 98 372 116 c 2,27,-1
 392 134 l 1,28,-1
 413 114 l 1,29,30
 374.491525424 65.8644067797 374.491525424 65.8644067797 344.745762712 39.9322033898 c 128,-1,31
 315 14 315 14 300.5 6.5 c 0,32,33
 214.63625731 -37.9122807018 214.63625731 -37.9122807018 114 16 c 1,34,35
 73 53 73 53 44 120 c 1,0,1
EndSplineSet
Substitution2: "Single Substitution in Latin lookup 0 subtable" C
EndChar

StartChar: d
Encoding: 100 100 71
Width: 527
GlyphClass: 2
Flags: HW
LayerCount: 2
Fore
SplineSet
357 514 m 1,0,-1
 355 664 l 2,1,2
 355 696 355 696 354.5 708.5 c 128,-1,3
 354 721 354 721 344.5 730 c 128,-1,4
 335 739 335 739 325.5 739.5 c 128,-1,5
 316 740 316 740 285 741 c 1,6,-1
 283 774 l 1,7,8
 359.076923077 781.076923077 359.076923077 781.076923077 395.038461538 789.538461538 c 128,-1,9
 431 798 431 798 434 798 c 0,10,11
 451 798 451 798 451 782 c 0,12,13
 451 567 451 567 447.5 369.5 c 128,-1,14
 444 172 444 172 444 137.5 c 128,-1,15
 444 103 444 103 469.5 65 c 128,-1,16
 495 27 495 27 495 25 c 128,-1,17
 495 23 495 23 486.5 19.5 c 128,-1,18
 478 16 478 16 465 12 c 128,-1,19
 452 8 452 8 431.5 -1 c 128,-1,20
 411 -10 411 -10 403 -10 c 128,-1,21
 395 -10 395 -10 387 6.5 c 128,-1,22
 379 23 379 23 371.5 43 c 128,-1,23
 364 63 364 63 359 68 c 1,24,25
 284 -15 284 -15 226 -15 c 0,26,27
 175.890909091 -15 175.890909091 -15 109.5 39.5 c 0,28,29
 76 67 76 67 53 120 c 128,-1,30
 30 173 30 173 30 235 c 128,-1,31
 30 297 30 297 36 338 c 128,-1,32
 42 379 42 379 49 401.5 c 128,-1,33
 56 424 56 424 70.5 442 c 128,-1,34
 85 460 85 460 92.5 466 c 128,-1,35
 100 472 100 472 117 482 c 2,36,-1
 151 502 l 2,37,38
 194 528 194 528 245.5 528 c 128,-1,39
 297 528 297 528 357 514 c 1,0,-1
157.5 123.5 m 128,-1,41
 197 71 197 71 254 71 c 128,-1,42
 311 71 311 71 358 116 c 1,43,44
 358 291 358 291 356.5 364.5 c 128,-1,45
 355 438 355 438 355 442 c 1,46,47
 308 470 308 470 237 470 c 0,48,49
 207 470 207 470 188.5 464.5 c 128,-1,50
 170 459 170 459 152 440.5 c 0,51,52
 118 405.555555556 118 405.555555556 118 290.777777778 c 128,-1,40
 118 176 118 176 157.5 123.5 c 128,-1,41
EndSplineSet
Substitution2: "Single Substitution in Latin lookup 0 subtable" D
EndChar

StartChar: e
Encoding: 101 101 72
Width: 467
GlyphClass: 2
Flags: HW
LayerCount: 2
Fore
SplineSet
52 399 m 0,0,1
 68 436 68 436 129 479.5 c 128,-1,2
 190 523 190 523 239.5 523 c 128,-1,3
 289 523 289 523 324 512 c 128,-1,4
 359 501 359 501 379 479.5 c 128,-1,5
 399 458 399 458 411.5 437.5 c 128,-1,6
 424 417 424 417 428.5 386.5 c 0,7,8
 436 335.666666667 436 335.666666667 436 310.333333333 c 2,9,-1
 436 281 l 1,10,11
 404 261 404 261 331 261 c 2,12,-1
 126 261 l 1,13,14
 126 153.588235294 126 153.588235294 142.5 123.5 c 0,15,16
 166.454545455 79.8181818182 166.454545455 79.8181818182 202 69 c 0,17,18
 225 62 225 62 256 62 c 0,19,20
 343 62 343 62 415 133 c 1,21,-1
 437 110 l 1,22,23
 433 106 433 106 418 90.5 c 128,-1,24
 403 75 403 75 398 70 c 128,-1,25
 393 65 393 65 379 51.5 c 128,-1,26
 365 38 365 38 357.5 33 c 128,-1,27
 350 28 350 28 336.5 18 c 128,-1,28
 323 8 323 8 313.5 4 c 128,-1,29
 304 0 304 0 290.5 -5.5 c 0,30,31
 267.181818182 -15 267.181818182 -15 236 -15 c 0,32,33
 176 -15 176 -15 133.5 8.5 c 128,-1,34
 91 32 91 32 69.5 72 c 0,35,36
 30 145.488372093 30 145.488372093 30 246.244186047 c 128,-1,37
 30 347 30 347 52 399 c 0,0,1
128 306 m 1,38,-1
 185 306 l 2,39,40
 318 306 318 306 343 324 c 1,41,42
 343 367 343 367 329 398.5 c 0,43,44
 302.555555556 458 302.555555556 458 236.777777778 458 c 128,-1,45
 171 458 171 458 149.5 424.5 c 128,-1,46
 128 391 128 391 128 306 c 1,38,-1
EndSplineSet
Substitution2: "Single Substitution in Latin lookup 0 subtable" E
EndChar

StartChar: f
Encoding: 102 102 73
Width: 365
GlyphClass: 2
Flags: HW
LayerCount: 2
Fore
SplineSet
425 685 m 1,0,-1
 424 648 l 1,1,-1
 381 647 l 1,2,3
 360 761 360 761 318 761 c 0,4,5
 282 761 282 761 250.5 684 c 128,-1,6
 219 607 219 607 219 519 c 2,7,-1
 219 504 l 1,8,-1
 353 504 l 1,9,-1
 350 448 l 1,10,-1
 219 448 l 1,11,12
 215 238 215 238 215 162 c 128,-1,13
 215 86 215 86 216 78.5 c 128,-1,14
 217 71 217 71 218 65 c 128,-1,15
 219 59 219 59 224 55.5 c 128,-1,16
 229 52 229 52 232.5 49.5 c 128,-1,17
 236 47 236 47 247 45 c 128,-1,18
 258 43 258 43 266 41 c 128,-1,19
 274 39 274 39 292.5 36.5 c 128,-1,20
 311 34 311 34 326 31 c 1,21,-1
 326 0 l 1,22,-1
 46 0 l 1,23,-1
 46 34 l 1,24,25
 82 39 82 39 91 40.5 c 128,-1,26
 100 42 100 42 112 50 c 128,-1,27
 124 58 124 58 125 68 c 128,-1,28
 126 78 126 78 126 125 c 128,-1,29
 126 172 126 172 120 448 c 1,30,-1
 30 448 l 1,31,-1
 30 482 l 1,32,-1
 119 497 l 1,33,34
 119 618 119 618 177 708 c 128,-1,35
 235 798 235 798 344 798 c 0,36,37
 393 798 393 798 409 771.5 c 128,-1,38
 425 745 425 745 425 685 c 1,0,-1
EndSplineSet
Substitution2: "Single Substitution in Latin lookup 0 subtable" F
EndChar

StartChar: g
Encoding: 103 103 74
Width: 475
GlyphClass: 2
Flags: HW
LayerCount: 2
Fore
SplineSet
10 -83 m 0,0,1
 10 -25.3571428571 10 -25.3571428571 68 14 c 0,2,3
 96 33 96 33 138 51 c 1,4,5
 59 62 59 62 59 105 c 0,6,7
 59 150 59 150 148 177 c 1,8,9
 97 200 97 200 75 225.5 c 128,-1,10
 53 251 53 251 44 299 c 0,11,12
 43 303 43 303 43 318 c 0,13,14
 43 372 43 372 59 406.5 c 128,-1,15
 75 441 75 441 135 482.5 c 128,-1,16
 195 524 195 524 259.5 524 c 128,-1,17
 324 524 324 524 372 484 c 1,18,19
 421 486 421 486 469 497 c 1,20,-1
 475 491 l 1,21,-1
 475 449 l 1,22,-1
 396 449 l 1,23,24
 404 438 404 438 410 405 c 128,-1,25
 416 372 416 372 416 338.5 c 0,26,27
 416 268.5625 416 268.5625 358 216 c 1,28,29
 306 186 306 186 232 170 c 1,30,31
 150 149 150 149 150 113 c 0,32,33
 150 99 150 99 162 89 c 128,-1,34
 174 79 174 79 193 79 c 2,35,-1
 312 79 l 2,36,37
 378 79 378 79 403 69 c 128,-1,38
 428 59 428 59 451.5 29 c 128,-1,39
 475 -1 475 -1 475 -32.5 c 128,-1,40
 475 -64 475 -64 461 -91.5 c 128,-1,41
 447 -119 447 -119 418.5 -145 c 128,-1,42
 390 -171 390 -171 337 -187.5 c 128,-1,43
 284 -204 284 -204 233 -204 c 128,-1,44
 182 -204 182 -204 149.5 -198.5 c 128,-1,45
 117 -193 117 -193 84 -180.5 c 128,-1,46
 51 -168 51 -168 30.5 -142.5 c 128,-1,47
 10 -117 10 -117 10 -83 c 0,0,1
96 -54 m 0,48,49
 96 -100 96 -100 140 -132.5 c 128,-1,50
 184 -165 184 -165 232 -165 c 0,51,52
 306 -165 306 -165 342.5 -132 c 128,-1,53
 379 -99 379 -99 379 -46 c 0,54,55
 379 30 379 30 262 30 c 0,56,57
 96 30 96 30 96 -54 c 0,48,49
135 324 m 0,58,59
 135 278 135 278 161 249 c 128,-1,60
 187 220 187 220 236 220 c 128,-1,61
 285 220 285 220 303 246 c 128,-1,62
 321 272 321 272 321 340.5 c 128,-1,63
 321 409 321 409 301 432 c 128,-1,64
 281 455 281 455 223 462 c 0,65,66
 218 463 218 463 209 463 c 0,67,68
 172 463 172 463 153.5 432.5 c 128,-1,69
 135 402 135 402 135 324 c 0,58,59
EndSplineSet
Substitution2: "Single Substitution in Latin lookup 0 subtable" G
EndChar

StartChar: h
Encoding: 104 104 75
Width: 565
GlyphClass: 2
Flags: HW
LayerCount: 2
Fore
SplineSet
96 76 m 2,0,-1
 97 544 l 2,1,2
 97 689 97 689 87 714.5 c 128,-1,3
 77 740 77 740 24 740 c 1,4,-1
 22 773 l 1,5,6
 96.4230769231 779.923076923 96.4230769231 779.923076923 132.711538462 788.461538462 c 128,-1,7
 169 797 169 797 172 797 c 0,8,9
 189 797 189 797 189 782 c 2,10,-1
 188 717 l 1,11,-1
 187 459 l 1,12,13
 303 524 303 524 375.5 524 c 128,-1,14
 448 524 448 524 470 476.5 c 128,-1,15
 492 429 492 429 492 321 c 1,16,-1
 489 109 l 2,17,18
 489 61 489 61 496.5 49.5 c 128,-1,19
 504 38 504 38 540 34 c 1,20,-1
 540 0 l 1,21,-1
 350 0 l 1,22,-1
 350 34 l 1,23,24
 386 42 386 42 393 56 c 128,-1,25
 400 70 400 70 400 131 c 2,26,-1
 400 310 l 2,27,28
 400 400 400 400 386.5 425.5 c 128,-1,29
 373 451 373 451 323 451 c 0,30,31
 293 451 293 451 250.5 438 c 128,-1,32
 208 425 208 425 187 411 c 1,33,34
 184 295 184 295 184 121 c 0,35,36
 184 65 184 65 192.5 50.5 c 128,-1,37
 201 36 201 36 241 34 c 1,38,-1
 241 0 l 1,39,-1
 37 0 l 1,40,-1
 37 34 l 1,41,42
 70 36 70 36 83 46 c 128,-1,43
 96 56 96 56 96 76 c 2,0,-1
EndSplineSet
Substitution2: "Single Substitution in Latin lookup 0 subtable" H
EndChar

StartChar: k
Encoding: 107 107 78
Width: 575
GlyphClass: 2
Flags: HW
LayerCount: 2
Fore
SplineSet
101 145 m 1,0,-1
 103 532 l 2,1,2
 103 649 103 649 97.5 676.5 c 128,-1,3
 92 704 92 704 89.5 714.5 c 128,-1,4
 87 725 87 725 74 731.5 c 128,-1,5
 61 738 61 738 54.5 738.5 c 128,-1,6
 48 739 48 739 25 740 c 1,7,-1
 23 773 l 1,8,9
 99.2641509434 780.094339623 99.2641509434 780.094339623 134.132075472 788.547169811 c 128,-1,10
 169 797 169 797 172 797 c 0,11,12
 190 797 190 797 190 782 c 2,13,-1
 190 739 l 1,14,-1
 189 295 l 1,15,16
 223 295 223 295 285 360 c 128,-1,17
 347 425 347 425 347 459 c 0,18,19
 347 476 347 476 326 476 c 0,20,21
 317 476 317 476 312 481.5 c 128,-1,22
 307 487 307 487 307 494 c 0,23,24
 307 509 307 509 326 510 c 1,25,26
 360 507 360 507 422 507 c 128,-1,27
 484 507 484 507 518 510 c 1,28,29
 536 510 536 510 536 494 c 0,30,31
 536 481.625 536 481.625 525 477.5 c 0,32,33
 513 473 513 473 510 473 c 1,34,35
 470 457 470 457 415 414.5 c 128,-1,36
 360 372 360 372 325 337 c 2,37,-1
 290 302 l 1,38,-1
 563 30 l 2,39,40
 575 18 575 18 575 10.5 c 128,-1,41
 575 3 575 3 566 0 c 1,42,-1
 563 0 l 2,43,44
 487 0 487 0 440 -4 c 1,45,46
 289 175 289 175 259.5 206.5 c 128,-1,47
 230 238 230 238 205 246 c 0,48,49
 194 250 194 250 187 253 c 1,50,51
 188 239 188 239 188 217 c 2,52,-1
 186 97 l 1,53,-1
 186 80.5 l 2,54,55
 186 74 186 74 187.5 68 c 128,-1,56
 189 62 189 62 189.5 58.5 c 128,-1,57
 190 55 190 55 194 51.5 c 128,-1,58
 198 48 198 48 199.5 46.5 c 128,-1,59
 201 45 201 45 208 43 c 128,-1,60
 215 41 215 41 218 40.5 c 128,-1,61
 221 40 221 40 231.5 37.5 c 128,-1,62
 242 35 242 35 248 34 c 1,63,-1
 248 0 l 1,64,-1
 32 0 l 1,65,-1
 32 34 l 1,66,67
 60 39.6 60 39.6 63 40.8 c 128,-1,68
 66 42 66 42 74 44 c 128,-1,69
 82 46 82 46 83.5 48.5 c 128,-1,70
 85 51 85 51 90 55 c 128,-1,71
 95 59 95 59 95 64.5 c 2,72,-1
 100 94.5 l 1,73,-1
 101 145 l 1,0,-1
EndSplineSet
Substitution2: "Single Substitution in Latin lookup 0 subtable" K
EndChar

StartChar: l
Encoding: 108 108 79
Width: 284
GlyphClass: 2
Flags: HW
LayerCount: 2
Fore
SplineSet
26 0 m 1,0,-1
 26 34 l 1,1,2
 34 35 34 35 47 37.5 c 128,-1,3
 60 40 60 40 64 40.5 c 128,-1,4
 68 41 68 41 76.5 44 c 128,-1,5
 85 47 85 47 87 49 c 128,-1,6
 89 51 89 51 94 57 c 128,-1,7
 99 63 99 63 99.5 69 c 128,-1,8
 100 75 100 75 102 85.5 c 128,-1,9
 104 96 104 96 104 108 c 2,10,-1
 104 323 l 2,11,12
 104 426 104 426 101 652 c 1,13,-1
 100 700 l 2,14,15
 99 725 99 725 88 732 c 128,-1,16
 77 739 77 739 44 739 c 2,17,-1
 31 739 l 1,18,-1
 29 772 l 1,19,20
 103.469273743 780.659217877 103.469273743 780.659217877 139.234636872 789.329608939 c 128,-1,21
 175 798 175 798 179 798 c 0,22,23
 196 798 196 798 196 783 c 0,24,25
 198 701 198 701 198 578 c 128,-1,26
 198 455 198 455 193 315.5 c 128,-1,27
 188 176 188 176 188 95 c 0,28,29
 188 57 188 57 199.5 48.5 c 128,-1,30
 211 40 211 40 262 34 c 1,31,-1
 262 0 l 1,32,-1
 26 0 l 1,0,-1
EndSplineSet
Substitution2: "Single Substitution in Latin lookup 0 subtable" L
EndChar

StartChar: m
Encoding: 109 109 80
Width: 834
GlyphClass: 2
Flags: HW
LayerCount: 2
Fore
SplineSet
379 107 m 2,0,-1
 380 389 l 2,1,2
 380 421 380 421 361.5 436.5 c 128,-1,3
 343 452 343 452 291 452 c 0,4,5
 271 452 271 452 241 439.5 c 128,-1,6
 211 427 211 427 192 415 c 1,7,8
 185 188 185 188 185 153.5 c 2,9,-1
 185 103.5 l 2,10,11
 185 88 185 88 187.5 76 c 128,-1,12
 190 64 190 64 191 58.5 c 128,-1,13
 192 53 192 53 198.5 48 c 128,-1,14
 205 43 205 43 208 42.5 c 0,15,16
 223 40 223 40 241 34 c 1,17,-1
 241 0 l 1,18,-1
 37 0 l 1,19,-1
 37 34 l 1,20,21
 70 36 70 36 82.5 46 c 128,-1,22
 95 56 95 56 95 76 c 0,23,24
 95 412 95 412 88 433 c 0,25,26
 86.5 437.5 86.5 437.5 79.25 444.25 c 128,-1,27
 72 451 72 451 34 455 c 1,28,-1
 32 493 l 1,29,30
 72 497 72 497 114 512 c 128,-1,31
 156 527 156 527 168 527 c 128,-1,32
 180 527 180 527 185 516 c 128,-1,33
 190 505 190 505 190 474 c 2,34,-1
 190 460 l 1,35,36
 196 463 196 463 213.5 473 c 128,-1,37
 231 483 231 483 238.5 487 c 128,-1,38
 246 491 246 491 260.5 499 c 128,-1,39
 275 507 275 507 284 510.5 c 128,-1,40
 293 514 293 514 305.5 518.5 c 0,41,42
 326.333333333 526 326.333333333 526 349 526 c 0,43,44
 407 526 407 526 474 455 c 1,45,46
 571 526 571 526 641 526 c 0,47,48
 682 526 682 526 709.5 502 c 0,49,50
 754 463.163636364 754 463.163636364 754 408 c 2,51,-1
 752 147 l 2,52,53
 752 68 752 68 760.5 52 c 128,-1,54
 769 36 769 36 804 34 c 1,55,-1
 811 34 l 1,56,-1
 811 0 l 1,57,-1
 607 0 l 1,58,-1
 607 34 l 1,59,60
 645 36 645 36 654.5 49.5 c 128,-1,61
 664 63 664 63 664 111 c 2,62,-1
 663 356 l 2,63,64
 663 385 663 385 661 399 c 128,-1,65
 659 413 659 413 651 427.5 c 128,-1,66
 643 442 643 442 624 447 c 128,-1,67
 605 452 605 452 575 452 c 128,-1,68
 545 452 545 452 473 414 c 1,69,70
 472 284 472 284 472 147 c 1,71,-1
 474 83 l 2,72,73
 474 71 474 71 478 63.5 c 128,-1,74
 482 56 482 56 482.5 51.5 c 128,-1,75
 483 47 483 47 490.5 44 c 128,-1,76
 498 41 498 41 499.5 40 c 128,-1,77
 501 39 501 39 513 37 c 128,-1,78
 525 35 525 35 529 34 c 1,79,-1
 529 0 l 1,80,-1
 325 0 l 1,81,-1
 325 34 l 1,82,83
 362 36 362 36 370.5 49.5 c 128,-1,84
 379 63 379 63 379 107 c 2,0,-1
EndSplineSet
Substitution2: "Single Substitution in Latin lookup 0 subtable" M
EndChar

StartChar: n
Encoding: 110 110 81
Width: 563
GlyphClass: 2
Flags: HW
LayerCount: 2
Fore
SplineSet
32 493 m 1,0,1
 73 497 73 497 114.5 512 c 128,-1,2
 156 527 156 527 168.5 527 c 128,-1,3
 181 527 181 527 186 515.5 c 128,-1,4
 191 504 191 504 191 474 c 2,5,-1
 191 460 l 1,6,7
 306 525 306 525 371.5 525 c 128,-1,8
 437 525 437 525 462 489.5 c 128,-1,9
 487 454 487 454 487 408 c 2,10,-1
 487 74 l 2,11,12
 487 52 487 52 496.5 44 c 128,-1,13
 506 36 506 36 540 34 c 1,14,-1
 540 0 l 1,15,-1
 336 0 l 1,16,-1
 336 34 l 1,17,18
 374 37 374 37 383.5 46 c 128,-1,19
 393 55 393 55 393 78 c 2,20,-1
 393 395 l 2,21,22
 393 420 393 420 377.5 433.5 c 128,-1,23
 362 447 362 447 345.5 449.5 c 128,-1,24
 329 452 329 452 307.5 452 c 128,-1,25
 286 452 286 452 250 440.5 c 128,-1,26
 214 429 214 429 194 415 c 1,27,28
 193 356 193 356 191 291.5 c 0,29,30
 187 162.5 187 162.5 187 112.75 c 128,-1,31
 187 63 187 63 197 49.5 c 128,-1,32
 207 36 207 36 246 34 c 1,33,-1
 246 0 l 1,34,-1
 36 0 l 1,35,-1
 36 34 l 1,36,37
 65.9811320755 38.2830188679 65.9811320755 38.2830188679 78.4905660377 45.641509434 c 128,-1,38
 91 53 91 53 93.5 67.5 c 0,39,40
 98 93.6 98 93.6 98 128.3 c 128,-1,41
 98 163 98 163 95 290.5 c 128,-1,42
 92 418 92 418 91 422.5 c 128,-1,43
 90 427 90 427 88.5 431.5 c 128,-1,44
 87 436 87 436 84.5 439 c 128,-1,45
 82 442 82 442 80.5 444 c 128,-1,46
 79 446 79 446 75 448 c 128,-1,47
 71 450 71 450 69 450.5 c 128,-1,48
 67 451 67 451 61.5 452 c 128,-1,49
 56 453 56 453 54 453.5 c 0,50,51
 48 455 48 455 35 455 c 1,52,-1
 32 493 l 1,0,1
EndSplineSet
Substitution2: "Single Substitution in Latin lookup 0 subtable" N
EndChar

StartChar: o
Encoding: 111 111 82
Width: 517
GlyphClass: 2
Flags: HW
LayerCount: 2
Fore
SplineSet
44 139.5 m 128,-1,1
 30 191 30 191 30 269.5 c 128,-1,2
 30 348 30 348 71 415 c 1,3,4
 98 457 98 457 165 491.5 c 128,-1,5
 232 526 232 526 276 526 c 0,6,7
 365 526 365 526 428 469 c 128,-1,8
 491 412 491 412 491 291.5 c 128,-1,9
 491 171 491 171 447 104 c 1,10,11
 388 25 388 25 332 0 c 0,12,13
 294 -17 294 -17 253 -17 c 128,-1,14
 212 -17 212 -17 186 -11.5 c 128,-1,15
 160 -6 160 -6 130.5 12 c 128,-1,16
 101 30 101 30 79.5 59 c 128,-1,0
 58 88 58 88 44 139.5 c 128,-1,1
166.5 101 m 128,-1,18
 208 54 208 54 287 54 c 0,19,20
 317 54 317 54 331 59 c 0,21,22
 400 86 400 86 400 267 c 0,23,24
 400 352 400 352 377.5 391.5 c 128,-1,25
 355 431 355 431 300 448 c 1,26,27
 272 455 272 455 249 455 c 128,-1,28
 226 455 226 455 215.5 454 c 128,-1,29
 205 453 205 453 188 448 c 128,-1,30
 171 443 171 443 162 431.5 c 128,-1,31
 153 420 153 420 143 400 c 0,32,33
 125 364 125 364 125 256 c 128,-1,17
 125 148 125 148 166.5 101 c 128,-1,18
EndSplineSet
Substitution2: "Single Substitution in Latin lookup 0 subtable" O
EndChar

StartChar: p
Encoding: 112 112 83
Width: 554
GlyphClass: 2
Flags: HW
LayerCount: 2
Fore
SplineSet
189 57 m 1,0,1
 185 -67 185 -67 185.5 -103 c 128,-1,2
 186 -139 186 -139 196 -150.5 c 128,-1,3
 206 -162 206 -162 245 -169 c 1,4,-1
 245 -203 l 1,5,-1
 41 -203 l 1,6,-1
 41 -171 l 1,7,8
 73 -167 73 -167 86 -157 c 128,-1,9
 99 -147 99 -147 99 -128 c 0,10,11
 98 -34 98 -34 98 415 c 0,12,13
 98 451 98 451 87.5 460 c 128,-1,14
 77 469 77 469 32 469 c 1,15,-1
 30 502 l 1,16,17
 107.886792453 509.245283019 107.886792453 509.245283019 142.443396226 517.622641509 c 128,-1,18
 177 526 177 526 180 526 c 0,19,20
 198 526 198 526 198 510 c 0,21,22
 198 509 198 509 196.5 484.5 c 128,-1,23
 195 460 195 460 195 454 c 1,24,25
 203 458 203 458 234.5 479 c 0,26,27
 305 526 305 526 360 526 c 0,28,29
 389 526 389 526 421 510 c 128,-1,30
 453 494 453 494 474 472.5 c 128,-1,31
 495 451 495 451 511.5 406 c 128,-1,32
 528 361 528 361 528 302 c 0,33,34
 528 158 528 158 468.5 76 c 128,-1,35
 409 -6 409 -6 316 -6 c 0,36,37
 269.5 -6 269.5 -6 250.75 1.5 c 128,-1,38
 232 9 232 9 223 14 c 128,-1,39
 214 19 214 19 208 26.5 c 128,-1,40
 202 34 202 34 199 38.5 c 128,-1,41
 196 43 196 43 193 49.5 c 128,-1,42
 190 56 190 56 189 57 c 1,0,1
194 412 m 1,43,-1
 189 226 l 1,44,45
 189 121 189 121 210.5 81.5 c 128,-1,46
 232 42 232 42 292 42 c 128,-1,47
 352 42 352 42 392 98.5 c 128,-1,48
 432 155 432 155 432 272 c 0,49,50
 432 449 432 449 317 449 c 0,51,52
 266 449 266 449 194 412 c 1,43,-1
EndSplineSet
Substitution2: "Single Substitution in Latin lookup 0 subtable" P
EndChar

StartChar: q
Encoding: 113 113 84
Width: 539
GlyphClass: 2
Flags: HW
LayerCount: 2
Fore
SplineSet
498 -167 m 2,0,-1
 505 -169 l 1,1,-1
 505 -203 l 1,2,-1
 301 -203 l 1,3,-1
 301 -171 l 1,4,5
 339 -164 339 -164 350.5 -145.5 c 128,-1,6
 362 -127 362 -127 362 -70 c 128,-1,7
 362 -13 362 -13 359 59 c 1,8,9
 263 -12 263 -12 197 -12 c 0,10,11
 115 -12 115 -12 72.5 59 c 128,-1,12
 30 130 30 130 30 230 c 0,13,14
 30 396 30 396 122 458 c 0,15,16
 180 497 180 497 211.5 511 c 128,-1,17
 243 525 243 525 264.5 525 c 128,-1,18
 286 525 286 525 353 514 c 128,-1,19
 420 503 420 503 505 502 c 1,20,-1
 505 468 l 1,21,22
 476 456 476 456 467 444.5 c 128,-1,23
 458 433 458 433 455 398 c 0,24,25
 446 294 446 294 446 113 c 128,-1,26
 446 -68 446 -68 447.5 -90 c 128,-1,27
 449 -112 449 -112 450 -127 c 128,-1,28
 451 -142 451 -142 459.5 -149 c 0,29,30
 471.888888889 -159.202614379 471.888888889 -159.202614379 484.444444444 -163.10130719 c 128,-1,31
 497 -167 497 -167 498 -167 c 2,0,-1
126 236 m 0,32,33
 126 144 126 144 160 102 c 128,-1,34
 194 60 194 60 244 60 c 128,-1,35
 294 60 294 60 337 91 c 0,36,37
 359 107 359 107 359 152 c 2,38,-1
 359 418 l 1,39,40
 356.951002227 442.587973274 356.951002227 442.587973274 314 450.5 c 0,41,42
 278.714285714 457 278.714285714 457 254 457 c 0,43,44
 126 457 126 457 126 236 c 0,32,33
EndSplineSet
Substitution2: "Single Substitution in Latin lookup 0 subtable" Q
EndChar

StartChar: r
Encoding: 114 114 85
Width: 398
GlyphClass: 2
Flags: HW
LayerCount: 2
Fore
SplineSet
194 362 m 2,0,-1
 193 91 l 2,1,2
 193 60 193 60 211 50.5 c 128,-1,3
 229 41 229 41 265.5 36 c 128,-1,4
 302 31 302 31 305 31 c 1,5,-1
 305 0 l 1,6,-1
 25 0 l 1,7,-1
 25 34 l 1,8,9
 49 37 49 37 57 37.5 c 128,-1,10
 65 38 65 38 77.5 43.5 c 128,-1,11
 90 49 90 49 92 53.5 c 128,-1,12
 94 58 94 58 98 73 c 128,-1,13
 102 88 102 88 102 103 c 2,14,-1
 102 182 l 2,15,16
 102 383 102 383 95 418 c 0,17,18
 87.2 457 87.2 457 37 457 c 1,19,-1
 35 495 l 1,20,21
 75 499 75 499 117 514 c 128,-1,22
 159 529 159 529 171 529 c 128,-1,23
 183 529 183 529 188 517.5 c 128,-1,24
 193 506 193 506 193 476 c 2,25,-1
 194 438 l 1,26,27
 282 523 282 523 333 523 c 0,28,29
 370 523 370 523 384 514 c 128,-1,30
 398 505 398 505 398 481 c 0,31,32
 398 473 398 473 382 373 c 1,33,-1
 346 373 l 1,34,35
 341 448 341 448 295 448 c 0,36,37
 269 448 269 448 231.5 424.5 c 128,-1,38
 194 401 194 401 194 362 c 2,0,-1
EndSplineSet
Substitution2: "Single Substitution in Latin lookup 0 subtable" R
EndChar

StartChar: s
Encoding: 115 115 86
Width: 387
GlyphClass: 2
Flags: HW
LayerCount: 2
Fore
SplineSet
70.5 277 m 128,-1,1
 45 308 45 308 45 357 c 128,-1,2
 45 406 45 406 62 432 c 0,3,4
 98 490 98 490 130 507.5 c 128,-1,5
 162 525 162 525 212 525 c 128,-1,6
 262 525 262 525 302 508 c 0,7,8
 313 504 313 504 318.5 500.5 c 0,9,10
 336 489.363636364 336 489.363636364 336 459 c 0,11,12
 336 456 336 456 335 443.5 c 0,13,14
 333 418.5 333 418.5 333 361 c 1,15,-1
 296 361 l 1,16,17
 295 374 295 374 287.5 399 c 128,-1,18
 280 424 280 424 271 437 c 0,19,20
 251 466 251 466 196 466 c 0,21,22
 142.782608696 466 142.782608696 466 125.5 439.5 c 0,23,24
 112 418.8 112 418.8 112 393.4 c 128,-1,25
 112 368 112 368 137 348.5 c 128,-1,26
 162 329 162 329 198 317 c 128,-1,27
 234 305 234 305 270.5 290.5 c 128,-1,28
 307 276 307 276 332 242.5 c 128,-1,29
 357 209 357 209 357 157 c 128,-1,30
 357 105 357 105 342 80 c 0,31,32
 315 37 315 37 278 8 c 0,33,34
 263 -3 263 -3 231 -10 c 128,-1,35
 199 -17 199 -17 183 -17 c 0,36,37
 76 -17 76 -17 55 19 c 0,38,39
 47 32 47 32 47 53 c 0,40,41
 47 134 47 134 51.5 152.5 c 128,-1,42
 56 171 56 171 72.5 171 c 128,-1,43
 89 171 89 171 93 157 c 128,-1,44
 97 143 97 143 100.5 118.5 c 0,45,46
 110.714285714 47 110.714285714 47 198 47 c 0,47,48
 242 47 242 47 267 67 c 128,-1,49
 292 87 292 87 292 121.5 c 128,-1,50
 292 156 292 156 266.5 176 c 128,-1,51
 241 196 241 196 204.5 207.5 c 128,-1,52
 168 219 168 219 132 232.5 c 128,-1,0
 96 246 96 246 70.5 277 c 128,-1,1
EndSplineSet
Substitution2: "Single Substitution in Latin lookup 0 subtable" S
EndChar

StartChar: t
Encoding: 116 116 87
Width: 335
GlyphClass: 2
Flags: HW
LayerCount: 2
Fore
SplineSet
94 188 m 1,0,-1
 97 448 l 1,1,-1
 10 448 l 1,2,-1
 10 478 l 1,3,-1
 97 495 l 1,4,-1
 97 587 l 1,5,-1
 174 611 l 1,6,7
 189 611 189 611 189 596 c 2,8,-1
 187 535 l 1,9,-1
 187 504 l 1,10,-1
 314 504 l 1,11,-1
 311 448 l 1,12,-1
 187 448 l 1,13,-1
 184 201 l 2,14,15
 184 124 184 124 193.5 90 c 128,-1,16
 203 56 203 56 229 56 c 128,-1,17
 255 56 255 56 304 85 c 1,18,-1
 325 65 l 1,19,20
 248 -15 248 -15 199 -15 c 0,21,22
 134 -15 134 -15 114 29 c 128,-1,23
 94 73 94 73 94 188 c 1,0,-1
EndSplineSet
Substitution2: "Single Substitution in Latin lookup 0 subtable" T
EndChar

StartChar: u
Encoding: 117 117 88
Width: 556
GlyphClass: 2
Flags: HW
LayerCount: 2
Fore
SplineSet
391 148 m 2,0,-1
 393 385 l 2,1,2
 393 457.230769231 393 457.230769231 379.5 464.5 c 0,3,4
 373 468 373 468 355 468 c 2,5,-1
 323 468 l 1,6,-1
 321 501 l 1,7,8
 398.886792453 508.245283019 398.886792453 508.245283019 433.443396226 516.622641509 c 128,-1,9
 468 525 468 525 471 525 c 0,10,11
 489 525 489 525 489 510 c 0,12,13
 489 384 489 384 485 265 c 128,-1,14
 481 146 481 146 481 124 c 128,-1,15
 481 102 481 102 503.5 66.5 c 128,-1,16
 526 31 526 31 526 25.5 c 128,-1,17
 526 20 526 20 517 17 c 0,18,19
 447 -6 447 -6 438.5 -6 c 128,-1,20
 430 -6 430 -6 421.5 8.5 c 128,-1,21
 413 23 413 23 406 44 c 128,-1,22
 399 65 399 65 398 66 c 1,23,24
 338 24 338 24 288 7.5 c 128,-1,25
 238 -9 238 -9 207.5 -9 c 128,-1,26
 177 -9 177 -9 143.5 20 c 128,-1,27
 110 49 110 49 99 92 c 1,28,29
 89 124 89 124 89 216 c 2,30,-1
 89 377 l 2,31,32
 89 401.666666667 89 401.666666667 79.5 446 c 0,33,34
 78 453 78 453 67 458 c 128,-1,35
 56 463 56 463 50 463.5 c 128,-1,36
 44 464 44 464 24 464 c 1,37,-1
 22 498 l 1,38,39
 85.5142857143 504.685714286 85.5142857143 504.685714286 122.757142857 514.842857143 c 128,-1,40
 160 525 160 525 164 525 c 0,41,42
 182 525 182 525 182 510 c 2,43,-1
 178 218 l 1,44,45
 178 144 178 144 186.5 120 c 128,-1,46
 195 96 195 96 213.5 83 c 128,-1,47
 232 70 232 70 250.5 70 c 128,-1,48
 269 70 269 70 302.5 77 c 128,-1,49
 336 84 336 84 357.5 95.5 c 128,-1,50
 379 107 379 107 385 115.5 c 128,-1,51
 391 124 391 124 391 148 c 2,0,-1
EndSplineSet
Substitution2: "Single Substitution in Latin lookup 0 subtable" U
EndChar

StartChar: v
Encoding: 118 118 89
Width: 492
GlyphClass: 2
Flags: HW
LayerCount: 2
Fore
SplineSet
412 509 m 1,0,-1
 478 513 l 2,1,2
 492 513 492 513 492 498 c 0,3,4
 492 495 492 495 490.5 492.5 c 128,-1,5
 489 490 489 490 485.5 484 c 128,-1,6
 482 478 482 478 476.5 469.5 c 128,-1,7
 471 461 471 461 461.5 442.5 c 128,-1,8
 452 424 452 424 440 399.5 c 0,9,10
 386.352941176 289.970588235 386.352941176 289.970588235 322 113 c 0,11,12
 286.8 16.2 286.8 16.2 279.4 5.1 c 128,-1,13
 272 -6 272 -6 266 -9.5 c 0,14,15
 256.571428571 -15 256.571428571 -15 237.285714286 -15 c 128,-1,16
 218 -15 218 -15 208.5 2.5 c 128,-1,17
 199 20 199 20 181.5 79.5 c 128,-1,18
 164 139 164 139 155.5 166.5 c 128,-1,19
 147 194 147 194 131.5 249.5 c 128,-1,20
 116 305 116 305 106.5 337.5 c 0,21,22
 76.3057324841 440.796178344 76.3057324841 440.796178344 50.5 458 c 0,23,24
 39.5135135135 465.324324324 39.5135135135 465.324324324 22.7567567568 466.162162162 c 128,-1,25
 6 467 6 467 2 468 c 1,26,-1
 0 501 l 1,27,28
 68.564516129 509.790322581 68.564516129 509.790322581 103.782258065 519.39516129 c 128,-1,29
 139 529 139 529 143 529 c 0,30,31
 160 529 160 529 160 514.5 c 0,32,33
 160 485 160 485 238 200 c 1,34,-1
 265 105 l 1,35,36
 371 385 371 385 371 446 c 0,37,38
 371 473 371 473 353 473 c 128,-1,39
 335 473 335 473 335 493 c 0,40,41
 335 511 335 511 369 511 c 1,42,-1
 412 509 l 1,0,-1
EndSplineSet
Substitution2: "Single Substitution in Latin lookup 0 subtable" V
EndChar

StartChar: w
Encoding: 119 119 90
Width: 811
GlyphClass: 2
Flags: HW
LayerCount: 2
Fore
SplineSet
721 509 m 1,0,-1
 797 513 l 2,1,2
 811 513 811 513 811 498 c 0,3,4
 811 494 811 494 807.5 490 c 128,-1,5
 804 486 804 486 794 472.5 c 128,-1,6
 784 459 784 459 770.5 436 c 0,7,8
 712.557522124 337.283185841 712.557522124 337.283185841 631 113 c 0,9,10
 595.8 16.2 595.8 16.2 588.4 5.1 c 128,-1,11
 581 -6 581 -6 575 -9.5 c 0,12,13
 565.571428571 -15 565.571428571 -15 546.285714286 -15 c 128,-1,14
 527 -15 527 -15 517.5 2.5 c 128,-1,15
 508 20 508 20 490.5 79.5 c 128,-1,16
 473 139 473 139 464 168 c 128,-1,17
 455 197 455 197 437.5 259.5 c 128,-1,18
 420 322 420 322 414 343 c 1,19,-1
 371 241 l 1,20,21
 321.929577465 116.436619718 321.929577465 116.436619718 312.464788732 88.7183098592 c 128,-1,22
 303 61 303 61 298 48.5 c 128,-1,23
 293 36 293 36 288 24.5 c 128,-1,24
 283 13 283 13 279 7 c 128,-1,25
 275 1 275 1 271.5 -4 c 128,-1,26
 268 -9 268 -9 263 -11 c 0,27,28
 253 -15 253 -15 235 -15 c 128,-1,29
 217 -15 217 -15 208 1.5 c 128,-1,30
 199 18 199 18 181.5 77 c 128,-1,31
 164 136 164 136 156 163 c 128,-1,32
 148 190 148 190 136 232.5 c 128,-1,33
 124 275 124 275 115.5 304 c 128,-1,34
 107 333 107 333 97 365 c 0,35,36
 69.2340425532 453.85106383 69.2340425532 453.85106383 39.5 463 c 0,37,38
 30.4776119403 465.776119403 30.4776119403 465.776119403 18.2388059701 466.388059701 c 128,-1,39
 6 467 6 467 2 468 c 1,40,-1
 0 501 l 1,41,42
 68.2711864407 509.983050847 68.2711864407 509.983050847 103.13559322 519.491525424 c 128,-1,43
 138 529 138 529 142 529 c 0,44,45
 160 529 160 529 160 514.5 c 0,46,47
 160 485 160 485 238 200 c 1,48,-1
 265 105 l 1,49,50
 370 384 370 384 370 444 c 0,51,52
 370 456 370 456 362 473 c 128,-1,53
 354 490 354 490 354 495 c 0,54,55
 354 513 354 513 428 513 c 0,56,57
 444 513 444 513 450 511.5 c 128,-1,58
 456 510 456 510 459.5 509.5 c 128,-1,59
 463 509 463 509 465 507 c 128,-1,60
 467 505 467 505 468.5 504.5 c 0,61,62
 472 503.333333333 472 503.333333333 472 498 c 0,63,64
 477.217391304 456.260869565 477.217391304 456.260869565 553 182 c 2,65,-1
 574 105 l 1,66,67
 680 385 680 385 680 446 c 0,68,69
 680 463 680 463 674.5 469.5 c 128,-1,70
 669 476 669 476 662 475.5 c 0,71,72
 644 474.214285714 644 474.214285714 644 492.607142857 c 128,-1,73
 644 511 644 511 678 511 c 1,74,-1
 721 509 l 1,0,-1
EndSplineSet
Substitution2: "Single Substitution in Latin lookup 0 subtable" W
EndChar

StartChar: x
Encoding: 120 120 91
Width: 453
GlyphClass: 2
Flags: HW
LayerCount: 2
Fore
SplineSet
372 512 m 1,0,-1
 430 514 l 2,1,2
 450 514 450 514 450 493 c 0,3,4
 450 481.142857143 450 481.142857143 433 477.5 c 0,5,6
 411.156626506 472.819277108 411.156626506 472.819277108 392 446 c 1,7,8
 350 395 350 395 284 295 c 1,9,10
 428.208731241 68.894952251 428.208731241 68.894952251 440.604365621 41.4474761255 c 128,-1,11
 453 14 453 14 453 2 c 0,12,13
 453 -18 453 -18 436 -18 c 0,14,15
 405 -18 405 -18 355 40 c 128,-1,16
 305 98 305 98 223 224 c 1,17,18
 211 205 211 205 196 182.5 c 128,-1,19
 181 160 181 160 173 147.5 c 128,-1,20
 165 135 165 135 155 120 c 128,-1,21
 145 105 145 105 140 96 c 128,-1,22
 135 87 135 87 130.5 78.5 c 0,23,24
 122 62.4444444444 122 62.4444444444 122 54 c 0,25,26
 122 40 122 40 159 34 c 1,27,-1
 159 0 l 1,28,-1
 -5 0 l 1,29,-1
 -5 34 l 1,30,31
 17 36 17 36 24 40 c 0,32,33
 42 50 42 50 73 92.5 c 128,-1,34
 104 135 104 135 190 266 c 1,35,36
 167 303 167 303 143 342.5 c 128,-1,37
 119 382 119 382 109 398 c 128,-1,38
 99 414 99 414 87 431.5 c 128,-1,39
 75 449 75 449 66.5 454 c 0,40,41
 46.1232876712 465.98630137 46.1232876712 465.98630137 19 469 c 1,42,-1
 17 502 l 1,43,44
 52 506 52 506 86 516 c 128,-1,45
 120 526 120 526 126.5 526 c 128,-1,46
 133 526 133 526 137.5 525 c 128,-1,47
 142 524 142 524 146.5 520 c 128,-1,48
 151 516 151 516 155 511.5 c 128,-1,49
 159 507 159 507 165 498 c 128,-1,50
 171 489 171 489 176 480 c 128,-1,51
 181 471 181 471 189.5 455.5 c 128,-1,52
 198 440 198 440 206 425 c 128,-1,53
 214 410 214 410 227 386.5 c 128,-1,54
 240 363 240 363 252 341 c 1,55,56
 329 449 329 449 329 459.5 c 128,-1,57
 329 470 329 470 323 475.5 c 128,-1,58
 317 481 317 481 310.5 481 c 0,59,60
 292 481 292 481 292 497 c 0,61,62
 292 503.818181818 292 503.818181818 299 508.909090909 c 128,-1,63
 306 514 306 514 315 514 c 2,64,-1
 372 512 l 1,0,-1
EndSplineSet
Substitution2: "Single Substitution in Latin lookup 0 subtable" X
EndChar

StartChar: y
Encoding: 121 121 92
Width: 492
GlyphClass: 2
Flags: HW
LayerCount: 2
Fore
SplineSet
412 509 m 1,0,-1
 478 513 l 2,1,2
 492 513 492 513 492 498 c 0,3,4
 492 495 492 495 490.5 492.5 c 128,-1,5
 489 490 489 490 485.5 484 c 128,-1,6
 482 478 482 478 476.5 469.5 c 128,-1,7
 471 461 471 461 461.5 442.5 c 128,-1,8
 452 424 452 424 440 399.5 c 0,9,10
 416.553846154 351.630769231 416.553846154 351.630769231 371 241 c 1,11,12
 280 13 280 13 227 -154 c 0,13,14
 214 -194 214 -194 209.5 -201 c 128,-1,15
 205 -208 205 -208 193 -208 c 0,16,17
 127 -208 127 -208 127 -179 c 0,18,19
 127 -163 127 -163 162.5 -106.5 c 128,-1,20
 198 -50 198 -50 198 -16 c 128,-1,21
 198 18 198 18 140.5 220 c 128,-1,22
 83 422 83 422 59 450 c 0,23,24
 48.8064516129 462.741935484 48.8064516129 462.741935484 37.4032258065 464.370967742 c 128,-1,25
 26 466 26 466 16 466.5 c 128,-1,26
 6 467 6 467 2 468 c 1,27,-1
 0 501 l 1,28,29
 66.0581395349 509.691860465 66.0581395349 509.691860465 102.529069767 519.345930233 c 128,-1,30
 139 529 139 529 143 529 c 0,31,32
 160 529 160 529 160 514.5 c 0,33,34
 160 485 160 485 238 200 c 1,35,-1
 265 105 l 1,36,37
 371 388 371 388 371 446 c 0,38,39
 371 473 371 473 353 473 c 128,-1,40
 335 473 335 473 335 493 c 0,41,42
 335 511 335 511 369 511 c 1,43,-1
 412 509 l 1,0,-1
EndSplineSet
Substitution2: "Single Substitution in Latin lookup 0 subtable" Y
EndChar

StartChar: z
Encoding: 122 122 93
Width: 516
GlyphClass: 2
Flags: HW
LayerCount: 2
Fore
SplineSet
479 -14 m 1,0,-1
 480 -30 l 1,1,-1
 436 -27 l 1,2,3
 436 -5 436 -5 420.5 -0.5 c 128,-1,4
 405 4 405 4 341.5 4 c 128,-1,5
 278 4 278 4 44 0 c 1,6,-1
 33 26 l 1,7,-1
 340 457 l 1,8,9
 340 461 340 461 238 461 c 0,10,11
 212.25 461 212.25 461 192.625 461 c 128,-1,12
 173 461 173 461 155.5 455 c 128,-1,13
 138 449 138 449 132.5 443.5 c 128,-1,14
 127 438 127 438 118 418 c 128,-1,15
 109 398 109 398 105 380 c 128,-1,16
 101 362 101 362 92 321 c 1,17,-1
 54 321 l 1,18,19
 56 369 56 369 57.5 429.5 c 128,-1,20
 59 490 59 490 62 499.5 c 128,-1,21
 65 509 65 509 79 509 c 2,22,-1
 234 506 l 1,23,-1
 447 510 l 2,24,25
 476 510 476 510 476 490 c 128,-1,26
 476 470 476 470 413 394 c 2,27,-1
 387 362 l 1,28,29
 316 273 316 273 265.5 198.5 c 0,30,31
 184 78.2673267327 184 78.2673267327 184 56 c 0,32,33
 184 51 184 51 197 51 c 0,34,35
 290.8 51 290.8 51 372.5 60.5 c 0,36,37
 394 63 394 63 407.5 73.5 c 128,-1,38
 421 84 421 84 421.5 85.5 c 128,-1,39
 422 87 422 87 425.5 96 c 128,-1,40
 429 105 429 105 449 182 c 1,41,-1
 491 179 l 1,42,43
 479 69 479 69 479 -14 c 1,0,-1
EndSplineSet
Substitution2: "Single Substitution in Latin lookup 0 subtable" Z
EndChar

StartChar: braceleft
Encoding: 123 123 94
Width: 388
GlyphClass: 2
Flags: HW
LayerCount: 2
Fore
SplineSet
50 282 m 1,0,-1
 56 314 l 1,1,2
 120 330 120 330 160 343 c 1,3,4
 171 359 171 359 172.5 454.5 c 128,-1,5
 174 550 174 550 181 647 c 128,-1,6
 188 744 188 744 212 768 c 1,7,8
 282 785 282 785 379 801 c 1,9,-1
 388 768 l 1,10,11
 333 756 333 756 284 740 c 1,12,13
 275 726 275 726 272 663.5 c 128,-1,14
 269 601 269 601 267 516 c 128,-1,15
 265 431 265 431 257 384 c 0,16,17
 252 352 252 352 214.5 326 c 128,-1,18
 177 300 177 300 154 297 c 1,19,20
 176 295 176 295 214 269 c 128,-1,21
 252 243 252 243 257 211 c 0,22,23
 265 164 265 164 267 79 c 128,-1,24
 269 -6 269 -6 272 -68.5 c 128,-1,25
 275 -131 275 -131 284 -145 c 1,26,27
 324 -159 324 -159 388 -175 c 1,28,-1
 379 -208 l 1,29,30
 254 -185 254 -185 212 -175 c 1,31,32
 188 -152 188 -152 180.5 -53 c 128,-1,33
 173 46 173 46 171.5 142.5 c 128,-1,34
 170 239 170 239 160 253 c 1,35,36
 114 268 114 268 50 282 c 1,0,-1
EndSplineSet
EndChar

StartChar: bar
Encoding: 124 124 95
Width: 240
GlyphClass: 2
Flags: HW
LayerCount: 2
Fore
SplineSet
81 -203 m 1,0,-1
 81 797 l 1,1,-1
 159 797 l 1,2,-1
 159 -203 l 1,3,-1
 81 -203 l 1,0,-1
EndSplineSet
EndChar

StartChar: braceright
Encoding: 125 125 96
Width: 388
GlyphClass: 2
Flags: HW
LayerCount: 2
Fore
SplineSet
0 -175 m 1,0,1
 64 -159 64 -159 104 -145 c 1,2,3
 113 -131 113 -131 116 -68.5 c 128,-1,4
 119 -6 119 -6 121 79 c 128,-1,5
 123 164 123 164 131 211 c 0,6,7
 136 243 136 243 174 269 c 128,-1,8
 212 295 212 295 234 297 c 1,9,10
 211 300 211 300 173.5 326 c 128,-1,11
 136 352 136 352 131 384 c 0,12,13
 123 431 123 431 121 516 c 128,-1,14
 119 601 119 601 116 663.5 c 128,-1,15
 113 726 113 726 104 740 c 1,16,17
 55 756 55 756 0 768 c 1,18,-1
 9 801 l 1,19,20
 106 785 106 785 176 768 c 1,21,22
 200 744 200 744 207 647 c 128,-1,23
 214 550 214 550 215.5 454.5 c 128,-1,24
 217 359 217 359 228 343 c 1,25,26
 284 325 284 325 338 313 c 1,27,-1
 332 281 l 1,28,29
 277 269 277 269 228 253 c 1,30,31
 218 239 218 239 216.5 142.5 c 128,-1,32
 215 46 215 46 207.5 -53 c 128,-1,33
 200 -152 200 -152 176 -175 c 1,34,35
 134 -185 134 -185 9 -208 c 1,36,-1
 0 -175 l 1,0,1
EndSplineSet
EndChar

StartChar: asciitilde
Encoding: 126 126 97
Width: 480
GlyphClass: 2
Flags: HW
LayerCount: 2
Fore
SplineSet
2 286 m 1,0,1
 33 328 33 328 65 352.5 c 128,-1,2
 97 377 97 377 139.5 377 c 0,3,4
 182 377 182 377 251 345.5 c 128,-1,5
 320 314 320 314 344 314 c 0,6,7
 381 314 381 314 424 373 c 1,8,-1
 477 340 l 1,9,10
 418 248 418 248 339 248 c 0,11,12
 300 248 300 248 231 279.5 c 128,-1,13
 162 311 162 311 130.5 311 c 0,14,15
 99 311 99 311 55 252 c 1,16,-1
 2 286 l 1,0,1
EndSplineSet
EndChar

StartChar: exclamdown
Encoding: 161 161 98
Width: 240
GlyphClass: 2
Flags: HW
LayerCount: 2
Fore
SplineSet
56 1 m 1,0,1
 93 463 93 463 110 553 c 1,2,-1
 143 547 l 1,3,-1
 148 463 l 1,4,5
 170 72 170 72 170 7 c 1,6,7
 99 -3 99 -3 68 -10 c 1,8,-1
 56 1 l 1,0,1
91.5 638 m 128,-1,10
 69 675 69 675 69 690 c 128,-1,11
 69 705 69 705 93.5 732 c 128,-1,12
 118 759 118 759 135 759 c 0,13,14
 149 759 149 759 166 717.5 c 128,-1,15
 183 676 183 676 183 664.5 c 128,-1,16
 183 653 183 653 165.5 627 c 128,-1,17
 148 601 148 601 131 601 c 128,-1,9
 114 601 114 601 91.5 638 c 128,-1,10
EndSplineSet
EndChar

StartChar: cent
Encoding: 162 162 99
Width: 480
GlyphClass: 2
Flags: HW
LayerCount: 2
Fore
SplineSet
63 120 m 1,0,1
 49 180 49 180 49 249.5 c 128,-1,2
 49 319 49 319 62 383 c 0,3,4
 69 413 69 413 97 436 c 1,5,6
 181 513 181 513 238 523 c 1,7,-1
 238 613 l 1,8,-1
 279 613 l 1,9,-1
 279 525 l 1,10,11
 318 525 318 525 360 517 c 128,-1,12
 402 509 402 509 415 504 c 1,13,14
 412 474 412 474 412 354 c 1,15,-1
 382 354 l 1,16,17
 372 398 372 398 366 418 c 0,18,19
 359 445 359 445 279 454 c 1,20,-1
 279 63 l 1,21,22
 308 64 308 64 341 82 c 128,-1,23
 374 100 374 100 392 117 c 2,24,-1
 411 134 l 1,25,-1
 432 114 l 1,26,27
 396.307692308 69.3846153846 396.307692308 69.3846153846 365.153846154 41.6923076923 c 128,-1,28
 334 14 334 14 316 4.5 c 128,-1,29
 298 -5 298 -5 279 -10 c 1,30,-1
 279 -91 l 1,31,-1
 238 -91 l 1,32,-1
 238 -14 l 1,33,34
 190 -14 190 -14 133 16 c 1,35,36
 92 53 92 53 63 120 c 1,0,1
158.5 418 m 128,-1,38
 138 380 138 380 138 281 c 128,-1,39
 138 182 138 182 159 130 c 128,-1,40
 180 78 180 78 238 66 c 1,41,-1
 238 456 l 1,42,37
 179 456 179 456 158.5 418 c 128,-1,38
EndSplineSet
EndChar

StartChar: sterling
Encoding: 163 163 100
Width: 488
GlyphClass: 2
Flags: HW
LayerCount: 2
Fore
SplineSet
25 33 m 1,0,1
 53 39 53 39 66 49 c 128,-1,2
 79 59 79 59 91 106 c 128,-1,3
 103 153 103 153 105 246 c 1,4,-1
 46 246 l 1,5,-1
 46 286 l 1,6,-1
 105 286 l 1,7,8
 106 294 106 294 107.5 313 c 128,-1,9
 109 332 109 332 110 338 c 128,-1,10
 111 344 111 344 113 357 c 128,-1,11
 115 370 115 370 118 377 c 0,12,13
 126.210526316 396.157894737 126.210526316 396.157894737 138 413 c 0,14,15
 225 530 225 530 320 530 c 0,16,17
 356 530 356 530 415 507 c 1,18,-1
 400 386 l 1,19,-1
 377 386 l 1,20,21
 367 428 367 428 353 461 c 1,22,23
 321 483 321 483 288.5 483 c 128,-1,24
 256 483 256 483 234 458 c 128,-1,25
 212 433 212 433 207.5 384.5 c 128,-1,26
 203 336 203 336 201 286 c 1,27,-1
 372 286 l 1,28,-1
 372 246 l 1,29,-1
 198 246 l 1,30,31
 192 119 192 119 140 60 c 1,32,33
 199 57 199 57 259 57 c 128,-1,34
 319 57 319 57 370 66 c 1,35,-1
 379 86 l 1,36,-1
 395 150 l 1,37,-1
 424 150 l 1,38,39
 424 40 424 40 428 0 c 1,40,41
 230 3 230 3 155.5 3 c 128,-1,42
 81 3 81 3 36 0 c 1,43,-1
 25 33 l 1,0,1
EndSplineSet
EndChar

StartChar: brokenbar
Encoding: 166 166 101
Width: 240
GlyphClass: 2
Flags: HW
LayerCount: 2
Fore
SplineSet
81 200 m 1,0,-1
 159 200 l 1,1,-1
 159 -203 l 1,2,-1
 81 -203 l 1,3,-1
 81 200 l 1,0,-1
81 394 m 1,4,-1
 81 797 l 1,5,-1
 159 797 l 1,6,-1
 159 394 l 1,7,-1
 81 394 l 1,4,-1
EndSplineSet
EndChar

StartChar: section
Encoding: 167 167 102
Width: 480
GlyphClass: 2
Flags: HW
LayerCount: 2
Fore
SplineSet
83 190.5 m 128,-1,1
 50 227 50 227 50 278 c 128,-1,2
 50 329 50 329 67 357 c 128,-1,3
 84 385 84 385 128 416 c 2,4,-1
 179 451 l 1,5,6
 77 509 77 509 77 604 c 0,7,8
 77 679 77 679 143 733 c 0,9,10
 195 776 195 776 275 776 c 0,11,12
 303 776 303 776 339.5 765 c 128,-1,13
 376 754 376 754 397 738 c 1,14,15
 392 703 392 703 392 594 c 1,16,-1
 355 594 l 1,17,18
 354 608 354 608 345.5 642 c 128,-1,19
 337 676 337 676 328 689 c 128,-1,20
 319 702 319 702 293 711.5 c 128,-1,21
 267 721 267 721 233.5 721 c 128,-1,22
 200 721 200 721 172.5 698 c 128,-1,23
 145 675 145 675 145 638.5 c 128,-1,24
 145 602 145 602 173 571.5 c 128,-1,25
 201 541 201 541 271 503 c 2,26,-1
 329 472 l 2,27,28
 376 446 376 446 403 414 c 128,-1,29
 430 382 430 382 430 319 c 128,-1,30
 430 256 430 256 401 221.5 c 128,-1,31
 372 187 372 187 307 161 c 1,32,-1
 343 139 l 2,33,34
 368 124 368 124 382 105 c 0,35,36
 415 56 415 56 415 -1 c 0,37,38
 415 -98 415 -98 335 -164 c 0,39,40
 287 -203 287 -203 219 -203 c 0,41,42
 123 -203 123 -203 80 -162 c 1,43,44
 86 -120 86 -120 86 -16 c 1,45,-1
 121 -16 l 1,46,47
 128 -82 128 -82 150 -114.5 c 128,-1,48
 172 -147 172 -147 224.5 -147 c 128,-1,49
 277 -147 277 -147 312 -121 c 128,-1,50
 347 -95 347 -95 347 -42 c 0,51,52
 347 -26 347 -26 341 -2 c 1,53,54
 319 31 319 31 294.5 50 c 128,-1,55
 270 69 270 69 193 111.5 c 128,-1,0
 116 154 116 154 83 190.5 c 128,-1,1
134 303 m 0,56,57
 134 252 134 252 207 214 c 2,58,-1
 263 185 l 1,59,60
 269 185 269 185 288.5 195.5 c 128,-1,61
 308 206 308 206 330 234.5 c 128,-1,62
 352 263 352 263 352 297 c 128,-1,63
 352 331 352 331 321 361.5 c 128,-1,64
 290 392 290 392 259 407 c 2,65,-1
 228 422 l 1,66,67
 134 394 134 394 134 303 c 0,56,57
EndSplineSet
EndChar

StartChar: dieresis
Encoding: 168 168 103
Width: 500
GlyphClass: 4
Flags: HW
LayerCount: 2
Fore
SplineSet
117.5 609 m 128,-1,1
 97 634 97 634 97 645.5 c 128,-1,2
 97 657 97 657 113.5 687 c 128,-1,3
 130 717 130 717 148 717 c 128,-1,4
 166 717 166 717 188 698.5 c 128,-1,5
 210 680 210 680 210 656 c 128,-1,6
 210 632 210 632 189.5 608 c 128,-1,7
 169 584 169 584 153.5 584 c 128,-1,0
 138 584 138 584 117.5 609 c 128,-1,1
304.5 609 m 128,-1,9
 284 634 284 634 284 645.5 c 128,-1,10
 284 657 284 657 301 687 c 128,-1,11
 318 717 318 717 336 717 c 128,-1,12
 354 717 354 717 376 698.5 c 128,-1,13
 398 680 398 680 398 656 c 128,-1,14
 398 632 398 632 377 608 c 128,-1,15
 356 584 356 584 340.5 584 c 128,-1,8
 325 584 325 584 304.5 609 c 128,-1,9
EndSplineSet
EndChar

StartChar: copyright
Encoding: 169 169 104
Width: 776
GlyphClass: 2
Flags: HW
LayerCount: 2
Fore
SplineSet
136.5 86.5 m 128,-1,1
 36 191 36 191 36 338 c 128,-1,2
 36 485 36 485 140.5 585.5 c 128,-1,3
 245 686 245 686 390.5 686 c 128,-1,4
 536 686 536 686 638 583.5 c 128,-1,5
 740 481 740 481 740 332.5 c 128,-1,6
 740 184 740 184 636.5 83 c 128,-1,7
 533 -18 533 -18 385 -18 c 128,-1,0
 237 -18 237 -18 136.5 86.5 c 128,-1,1
175 551.5 m 128,-1,9
 85 465 85 465 85 338 c 128,-1,10
 85 211 85 211 171 121 c 128,-1,11
 257 31 257 31 386 31 c 128,-1,12
 515 31 515 31 603.5 119 c 128,-1,13
 692 207 692 207 692 335.5 c 128,-1,14
 692 464 692 464 601 551 c 128,-1,15
 510 638 510 638 387.5 638 c 128,-1,8
 265 638 265 638 175 551.5 c 128,-1,9
230 222 m 1,16,17
 219 273 219 273 219 329 c 128,-1,18
 219 385 219 385 229 435 c 1,19,20
 235 456 235 456 238 459 c 0,21,22
 282 502 282 502 315 523 c 128,-1,23
 348 544 348 544 363.5 547 c 128,-1,24
 379 550 379 550 424.5 550 c 128,-1,25
 470 550 470 550 515 533 c 1,26,27
 513 517 513 517 513 411 c 1,28,-1
 488 411 l 1,29,-1
 476 464 l 2,30,31
 472 478 472 478 441 486 c 128,-1,32
 410 494 410 494 367 494 c 128,-1,33
 324 494 324 494 307.5 463.5 c 128,-1,34
 291 433 291 433 291 359.5 c 128,-1,35
 291 286 291 286 300 250 c 1,36,37
 311 220 311 220 332 196 c 1,38,39
 360 173 360 173 388 173 c 128,-1,40
 416 173 416 173 446 188 c 128,-1,41
 476 203 476 203 494 218 c 2,42,-1
 512 233 l 1,43,-1
 529 217 l 1,44,-1
 439 119 l 1,45,46
 395 112 395 112 387 112 c 0,47,48
 332 112 332 112 287 138 c 1,49,50
 253 168 253 168 230 222 c 1,16,17
EndSplineSet
EndChar

StartChar: ordfeminine
Encoding: 170 170 105
Width: 310
GlyphClass: 2
Flags: HW
LayerCount: 2
Fore
SplineSet
57 457.5 m 128,-1,1
 40 474 40 474 40 504 c 128,-1,2
 40 534 40 534 47.5 551 c 128,-1,3
 55 568 55 568 64 577.5 c 128,-1,4
 73 587 73 587 93 594 c 128,-1,5
 113 601 113 601 126.5 604 c 128,-1,6
 140 607 140 607 168 611.5 c 128,-1,7
 196 616 196 616 210 619 c 1,8,-1
 210 665 l 2,9,10
 210 676 210 676 181.5 687.5 c 128,-1,11
 153 699 153 699 134 699 c 128,-1,12
 115 699 115 699 102 681.5 c 128,-1,13
 89 664 89 664 84 646 c 2,14,-1
 80 629 l 1,15,-1
 55 629 l 1,16,-1
 62 702 l 1,17,18
 118 734 118 734 162 734 c 128,-1,19
 206 734 206 734 249 708 c 0,20,21
 264 698 264 698 267 686 c 1,22,-1
 265 494 l 1,23,24
 266 479 266 479 279.5 471.5 c 128,-1,25
 293 464 293 464 310 464 c 1,26,-1
 310 449 l 1,27,28
 284.5 449 284.5 449 246 442 c 2,29,-1
 234 440 l 1,30,-1
 214 482 l 1,31,-1
 147 442 l 1,32,-1
 124 439 l 1,33,0
 74 441 74 441 57 457.5 c 128,-1,1
94 517 m 0,34,35
 94 476 94 476 140 476 c 0,36,37
 151 476 151 476 173 483 c 1,38,-1
 211 506 l 1,39,-1
 210 597 l 1,40,41
 169 589 169 589 112 565 c 1,42,43
 94 553 94 553 94 517 c 0,34,35
EndSplineSet
EndChar

StartChar: guillemotleft
Encoding: 171 171 106
Width: 523
GlyphClass: 2
Flags: HW
LayerCount: 2
Fore
SplineSet
28 245 m 1,0,1
 67 273 67 273 148 344.5 c 128,-1,2
 229 416 229 416 250 437 c 1,3,-1
 282 421 l 1,4,-1
 129 242 l 1,5,-1
 280 65 l 1,6,-1
 251 50 l 1,7,8
 111 188 111 188 28 245 c 1,0,1
225 245 m 1,9,10
 264 273 264 273 345 344.5 c 128,-1,11
 426 416 426 416 447 437 c 1,12,-1
 479 421 l 1,13,-1
 325 242 l 1,14,-1
 477 65 l 1,15,-1
 448 50 l 1,16,17
 308 188 308 188 225 245 c 1,9,10
EndSplineSet
EndChar

StartChar: registered
Encoding: 174 174 108
Width: 625
GlyphClass: 2
Flags: HW
LayerCount: 2
Fore
SplineSet
120 326.5 m 128,-1,1
 50 402 50 402 50 512 c 128,-1,2
 50 622 50 622 128 700.5 c 128,-1,3
 206 779 206 779 320.5 779 c 128,-1,4
 435 779 435 779 505 703 c 128,-1,5
 575 627 575 627 575 517 c 128,-1,6
 575 407 575 407 498.5 329 c 128,-1,7
 422 251 422 251 315 251 c 0,8,0
 190 251 190 251 120 326.5 c 128,-1,1
160 674.5 m 128,-1,10
 97 607 97 607 97 512.5 c 128,-1,11
 97 418 97 418 157.5 352.5 c 128,-1,12
 218 287 218 287 313 287 c 128,-1,13
 408 287 408 287 470 354.5 c 128,-1,14
 532 422 532 422 532 515.5 c 128,-1,15
 532 609 532 609 471.5 675.5 c 128,-1,16
 411 742 411 742 317 742 c 128,-1,9
 223 742 223 742 160 674.5 c 128,-1,10
179 372 m 1,17,-1
 179 390 l 1,18,19
 218 392 218 392 218 408 c 0,20,21
 218 553 218 553 215 633 c 0,22,23
 215 641 215 641 208.5 644 c 0,24,25
 208.217391304 644.130434783 208.217391304 644.130434783 179 649 c 1,26,-1
 179 667 l 1,27,28
 191 666 191 666 233.5 666 c 128,-1,29
 276 666 276 666 300 668 c 128,-1,30
 324 670 324 670 328 670 c 2,31,-1
 337 670 l 2,32,33
 366 670 366 670 388 650 c 128,-1,34
 410 630 410 630 410 601 c 128,-1,35
 410 572 410 572 397.5 557 c 128,-1,36
 385 542 385 542 356 525 c 1,37,38
 403 442 403 442 435 396 c 1,39,-1
 459 387 l 1,40,-1
 459 372 l 1,41,42
 420 372 420 372 395 370 c 1,43,-1
 318 515 l 1,44,-1
 306 515 l 2,45,46
 277 515 277 515 262 520 c 1,47,48
 261 464 261 464 261 408 c 0,49,50
 261 392 261 392 301 390 c 1,51,-1
 301 372 l 1,52,53
 289 373 289 373 240 373 c 128,-1,54
 191 373 191 373 179 372 c 1,17,-1
264 638 m 1,55,-1
 263 544 l 1,56,57
 274 537 274 537 306.5 537 c 128,-1,58
 339 537 339 537 351.5 554 c 128,-1,59
 364 571 364 571 364 592.5 c 128,-1,60
 364 614 364 614 354 627 c 0,61,62
 338.615384615 647 338.615384615 647 322 647 c 0,63,64
 282 647 282 647 269 642 c 1,65,-1
 264 638 l 1,55,-1
EndSplineSet
EndChar

StartChar: macron
Encoding: 175 175 109
Width: 500
GlyphClass: 4
Flags: HW
LayerCount: 2
Fore
SplineSet
125 602 m 1,0,-1
 138 663 l 1,1,-1
 375 663 l 1,2,-1
 363 602 l 1,3,-1
 125 602 l 1,0,-1
EndSplineSet
EndChar

StartChar: degree
Encoding: 176 176 110
Width: 310
GlyphClass: 2
Flags: HW
LayerCount: 2
Fore
SplineSet
40 576 m 0,0,1
 40 624 40 624 67 658 c 0,2,3
 83 679 83 679 121 696.5 c 128,-1,4
 159 714 159 714 183 714 c 0,5,6
 229 714 229 714 262 687.5 c 128,-1,7
 295 661 295 661 295 598.5 c 128,-1,8
 295 536 295 536 265 503 c 0,9,10
 259 495 259 495 239 477 c 0,11,12
 200.111111111 442 200.111111111 442 149 442 c 0,13,14
 110.583333333 442 110.583333333 442 78.5 464 c 0,15,16
 40 490.4 40 490.4 40 576 c 0,0,1
110 658 m 128,-1,18
 92 638 92 638 92 578.5 c 128,-1,19
 92 519 92 519 113.5 498.5 c 128,-1,20
 135 478 135 478 176 478 c 0,21,22
 190 478 190 478 200 480 c 1,23,24
 244 496 244 496 244 598 c 0,25,26
 244 678 244 678 164 678 c 0,27,17
 128 678 128 678 110 658 c 128,-1,18
EndSplineSet
EndChar

StartChar: acute
Encoding: 180 180 112
Width: 500
GlyphClass: 4
Flags: HW
LayerCount: 2
Fore
SplineSet
144 579 m 1,0,1
 203 640 203 640 298 759 c 1,2,3
 319 759 319 759 337 745.5 c 128,-1,4
 355 732 355 732 356 714 c 1,5,6
 249 616 249 616 162 558 c 1,7,-1
 144 579 l 1,0,1
EndSplineSet
EndChar

StartChar: paragraph
Encoding: 182 182 113
Width: 480
GlyphClass: 2
Flags: HW
LayerCount: 2
Fore
SplineSet
46.5 467 m 128,-1,1
 30 504 30 504 30 546 c 128,-1,2
 30 588 30 588 38 618 c 128,-1,3
 46 648 46 648 57.5 667.5 c 128,-1,4
 69 687 69 687 91 701 c 128,-1,5
 113 715 113 715 131 722 c 128,-1,6
 149 729 149 729 180.5 732.5 c 0,7,8
 230 738 230 738 290 738 c 2,9,-1
 419 738 l 1,10,-1
 419 -170 l 1,11,-1
 383 -170 l 1,12,-1
 383 703 l 1,13,-1
 305 703 l 1,14,-1
 305 -170 l 1,15,-1
 270 -170 l 1,16,-1
 270 348 l 1,17,-1
 241 348 l 2,18,19
 193.034482759 348 193.034482759 348 152.017241379 367.5 c 128,-1,20
 111 387 111 387 87 408.5 c 128,-1,0
 63 430 63 430 46.5 467 c 128,-1,1
EndSplineSet
EndChar

StartChar: cedilla
Encoding: 184 184 115
Width: 500
GlyphClass: 2
Flags: HW
LayerCount: 2
Fore
SplineSet
176 -168 m 1,0,1
 223 -168 223 -168 248.5 -156.5 c 128,-1,2
 274 -145 274 -145 274 -130 c 128,-1,3
 274 -115 274 -115 254 -103.5 c 128,-1,4
 234 -92 234 -92 201 -91 c 1,5,-1
 189 -80 l 1,6,-1
 220 8 l 1,7,-1
 244 6 l 1,8,-1
 234 -43 l 1,9,10
 324 -61 324 -61 324 -119 c 0,11,12
 324 -162.142857143 324 -162.142857143 295.5 -182.5 c 0,13,14
 285 -190 285 -190 265 -199 c 1,15,16
 242 -203 242 -203 178 -206 c 1,17,-1
 176 -168 l 1,0,1
EndSplineSet
EndChar

StartChar: ordmasculine
Encoding: 186 186 116
Width: 350
GlyphClass: 2
Flags: HW
LayerCount: 2
Fore
SplineSet
52.5 507.5 m 128,-1,1
 40 540 40 540 40 588.5 c 128,-1,2
 40 637 40 637 60.5 666 c 128,-1,3
 81 695 81 695 121.5 714 c 128,-1,4
 162 733 162 733 189 733 c 0,5,6
 243 733 243 733 281 702 c 128,-1,7
 319 671 319 671 319 604 c 128,-1,8
 319 537 319 537 292 501 c 0,9,10
 287 493 287 493 265.5 472.5 c 128,-1,11
 244 452 244 452 222 443 c 128,-1,12
 200 434 200 434 172.5 434 c 128,-1,13
 145 434 145 434 125.5 440 c 128,-1,14
 106 446 106 446 85.5 460.5 c 128,-1,0
 65 475 65 475 52.5 507.5 c 128,-1,1
123 499.5 m 128,-1,16
 148 474 148 474 195 474 c 0,17,18
 216 474 216 474 222 476 c 0,19,20
 264 491 264 491 264 591 c 0,21,22
 264 637 264 637 250.5 659 c 128,-1,23
 237 681 237 681 203 690 c 0,24,25
 191 694 191 694 172 694 c 128,-1,26
 153 694 153 694 143.5 692 c 128,-1,27
 134 690 134 690 121.5 681.5 c 0,28,29
 98 665.52 98 665.52 98 595.26 c 128,-1,15
 98 525 98 525 123 499.5 c 128,-1,16
EndSplineSet
EndChar

StartChar: guillemotright
Encoding: 187 187 117
Width: 523
GlyphClass: 2
Flags: HW
LayerCount: 2
Fore
SplineSet
45 421 m 1,0,-1
 77 437 l 1,1,2
 93 420 93 420 176 346.5 c 128,-1,3
 259 273 259 273 298 245 c 1,4,5
 219 190 219 190 75 50 c 1,6,-1
 46 65 l 1,7,-1
 198 242 l 1,8,-1
 45 421 l 1,0,-1
242 421 m 1,9,-1
 273 437 l 1,10,11
 293 417 293 417 374.5 345 c 128,-1,12
 456 273 456 273 495 245 c 1,13,14
 416 190 416 190 272 50 c 1,15,-1
 243 65 l 1,16,-1
 395 242 l 1,17,-1
 242 421 l 1,9,-1
EndSplineSet
EndChar

StartChar: questiondown
Encoding: 191 191 118
Width: 445
GlyphClass: 2
Flags: HW
LayerCount: 2
Fore
SplineSet
56 232 m 0,0,1
 56 429 56 429 230 429 c 0,2,3
 274 429 274 429 313 402 c 1,4,5
 324 505 324 505 327 521 c 1,6,-1
 360 515 l 1,7,-1
 371 307 l 1,8,9
 310 359 310 359 263 359 c 0,10,11
 193 359 193 359 163.5 325 c 128,-1,12
 134 291 134 291 134 224 c 0,13,14
 134 192 134 192 142 139.5 c 128,-1,15
 150 87 150 87 169.5 69.5 c 128,-1,16
 189 52 189 52 224.5 52 c 128,-1,17
 260 52 260 52 282.5 56.5 c 128,-1,18
 305 61 305 61 317.5 66 c 128,-1,19
 330 71 330 71 338 82.5 c 128,-1,20
 346 94 346 94 348 101 c 128,-1,21
 350 108 350 108 352.5 123 c 128,-1,22
 355 138 355 138 357 144 c 1,23,-1
 382 144 l 1,24,25
 386 64 386 64 386 51 c 0,26,27
 386 16 386 16 363 3 c 128,-1,28
 340 -10 340 -10 284.5 -10 c 128,-1,29
 229 -10 229 -10 196 2.5 c 128,-1,30
 163 15 163 15 141 32.5 c 128,-1,31
 119 50 119 50 102 69 c 0,32,33
 72.8571428571 101.571428571 72.8571428571 101.571428571 69 117 c 0,34,35
 56 182 56 182 56 232 c 0,0,1
308.5 606 m 128,-1,37
 286 643 286 643 286 658 c 128,-1,38
 286 673 286 673 310.5 700 c 128,-1,39
 335 727 335 727 352 727 c 0,40,41
 366 727 366 727 383 685.5 c 128,-1,42
 400 644 400 644 400 632.5 c 128,-1,43
 400 621 400 621 382.5 595 c 128,-1,44
 365 569 365 569 348 569 c 128,-1,36
 331 569 331 569 308.5 606 c 128,-1,37
EndSplineSet
EndChar

StartChar: AE
Encoding: 198 198 125
Width: 1033
GlyphClass: 2
Flags: HW
LayerCount: 2
Fore
SplineSet
157 77 m 0,0,1
 157 45.32 157 45.32 236 39 c 1,2,-1
 236 0 l 1,3,-1
 0 0 l 1,4,-1
 0 36 l 1,5,6
 33 39 33 39 51.5 50 c 128,-1,7
 70 61 70 61 95 95 c 128,-1,8
 120 129 120 129 167 210 c 2,9,-1
 430 673 l 1,10,11
 434 678 434 678 434 683.5 c 128,-1,12
 434 689 434 689 432 691.5 c 128,-1,13
 430 694 430 694 423.5 695.5 c 0,14,15
 404 700 404 700 378 700 c 1,16,-1
 364 701 l 1,17,-1
 364 738 l 1,18,19
 418 734 418 734 533 734 c 128,-1,20
 648 734 648 734 694 737 c 1,21,-1
 956 738 l 1,22,-1
 968 727 l 1,23,24
 966 716 966 716 954 633.5 c 128,-1,25
 942 551 942 551 941 542 c 1,26,-1
 907 542 l 1,27,28
 886 650 l 1,29,30
 878 670 878 670 870 676 c 1,31,32
 822 685 822 685 741.5 685 c 128,-1,33
 661 685 661 685 643 678.5 c 128,-1,34
 625 672 625 672 624 651 c 0,35,36
 622 597 622 597 620 413 c 1,37,38
 762 413 762 413 867 418 c 1,39,-1
 857 344 l 1,40,-1
 839 344 l 1,41,42
 803 370 803 370 619 370 c 1,43,-1
 617 83 l 2,44,45
 617 59 617 59 653 51.5 c 128,-1,46
 689 44 689 44 781.5 44 c 128,-1,47
 874 44 874 44 889 56 c 0,48,49
 913 77 913 77 940 178 c 2,50,-1
 954 232 l 1,51,-1
 991 232 l 1,52,53
 982 109 982 109 982 0 c 1,54,-1
 423 0 l 1,55,-1
 423 37 l 1,56,57
 453 39 453 39 469 42 c 128,-1,58
 485 45 485 45 499 55 c 128,-1,59
 513 65 513 65 513 83 c 0,60,61
 513 85 513 85 515 249 c 1,62,-1
 249 249 l 1,63,64
 235 229 235 229 196 160.5 c 128,-1,65
 157 92 157 92 157 77 c 0,0,1
270 292 m 1,66,-1
 515 292 l 1,67,68
 516 330 516 330 516 441 c 128,-1,69
 516 552 516 552 513 661 c 0,70,71
 512 669 512 669 507.5 675 c 128,-1,72
 503 681 503 681 496 681 c 128,-1,73
 489 681 489 681 485 671 c 1,74,-1
 270 292 l 1,66,-1
EndSplineSet
EndChar

StartChar: Ccedilla
Encoding: 199 199 126
Width: 728
GlyphClass: 2
Flags: HW
LayerCount: 2
Fore
SplineSet
73 366 m 0,0,1
 73 490 73 490 108 572 c 0,2,3
 129 621 129 621 194 677.5 c 128,-1,4
 259 734 259 734 344 745 c 0,5,6
 395 752 395 752 461 752 c 0,7,8
 590 752 590 752 643 723 c 1,9,-1
 655 712 l 1,10,11
 655 676 655 676 645 536 c 1,12,-1
 611 536 l 1,13,14
 576 660 576 660 561 671 c 1,15,16
 488 690 488 690 413 690 c 0,17,18
 270 690 270 690 221.5 620 c 128,-1,19
 173 550 173 550 173 362 c 0,20,21
 173 153 173 153 307 72 c 0,22,23
 362 38 362 38 437.5 38 c 0,24,25
 513 38 513 38 579 89 c 1,26,27
 589 107 589 107 608 178 c 2,28,-1
 622 232 l 1,29,-1
 659 232 l 1,30,31
 655 191 655 191 655 33 c 1,32,33
 536 -10 536 -10 437 -16 c 1,34,-1
 374 -16 l 1,35,-1
 369 -43 l 1,36,37
 459 -61 459 -61 459 -119 c 0,38,39
 459 -142 459 -142 449.5 -158.5 c 128,-1,40
 440 -175 440 -175 430 -182 c 128,-1,41
 420 -189 420 -189 400 -199 c 1,42,43
 377 -203 377 -203 313 -206 c 1,44,-1
 310 -168 l 1,45,46
 357 -168 357 -168 382.5 -156.5 c 128,-1,47
 408 -145 408 -145 408 -130 c 0,48,49
 408 -115 408 -115 388 -103.5 c 128,-1,50
 368 -92 368 -92 335 -91 c 1,51,-1
 323 -80 l 1,52,-1
 347 -13 l 1,53,54
 73 18 73 18 73 366 c 0,0,1
EndSplineSet
EndChar

StartChar: Oslash
Encoding: 216 216 141
Width: 745
GlyphClass: 2
Flags: HW
LayerCount: 2
Fore
SplineSet
42 358 m 0,0,1
 42 513 42 513 106 610 c 0,2,3
 140 661 140 661 201.5 695.5 c 0,4,5
 300.434782609 751 300.434782609 751 390.717391304 751 c 128,-1,6
 481 751 481 751 545 722 c 1,7,-1
 579 791 l 1,8,-1
 620 772 l 1,9,-1
 584 700 l 1,10,11
 704 618 704 618 704 411 c 0,12,13
 704 99.6 704 99.6 502.5 19 c 0,14,15
 420 -14 420 -14 357 -14 c 128,-1,16
 294 -14 294 -14 239 5 c 1,17,-1
 205 -63 l 1,18,-1
 166 -45 l 1,19,-1
 199 23 l 1,20,21
 120 66 120 66 81 153.5 c 128,-1,22
 42 241 42 241 42 358 c 0,0,1
144 379 m 0,23,24
 144 192 144 192 240 106 c 1,25,-1
 507 645 l 1,26,27
 466 679 466 679 413 687 c 0,28,29
 404 689 404 689 359 689 c 0,30,31
 260 689 260 689 202 616 c 128,-1,32
 144 543 144 543 144 379 c 0,23,24
276 79 m 1,33,-1
 285 75 l 1,34,35
 331 52 331 52 405 52 c 0,36,37
 601 52 601 52 601 351 c 0,38,39
 601 524 601 524 539 609 c 1,40,-1
 276 79 l 1,33,-1
EndSplineSet
EndChar

StartChar: germandbls
Encoding: 223 223 147
Width: 598
GlyphClass: 2
Flags: HW
LayerCount: 2
Fore
SplineSet
199 519 m 2,0,-1
 195 131 l 2,1,2
 195 65 195 65 202.5 53 c 128,-1,3
 210 41 210 41 256 36 c 0,4,5
 265 35 265 35 269 34 c 1,6,-1
 269 0 l 1,7,-1
 26 0 l 1,8,-1
 26 34 l 1,9,10
 62 39 62 39 71 40.5 c 128,-1,11
 80 42 80 42 92 50 c 128,-1,12
 104 58 104 58 105 68 c 128,-1,13
 106 78 106 78 106 125 c 128,-1,14
 106 172 106 172 100 448 c 2,15,-1
 99 497 l 1,16,17
 99 618 99 618 157 708 c 128,-1,18
 215 798 215 798 324 798 c 0,19,20
 400 798 400 798 442 759 c 128,-1,21
 484 720 484 720 484 663 c 0,22,23
 484 636 484 636 469.5 609.5 c 128,-1,24
 455 583 455 583 437 564.5 c 128,-1,25
 419 546 419 546 404.5 520 c 128,-1,26
 390 494 390 494 390 464.5 c 128,-1,27
 390 435 390 435 408.5 406 c 128,-1,28
 427 377 427 377 453 354 c 128,-1,29
 479 331 479 331 505 306 c 128,-1,30
 531 281 531 281 549.5 243 c 128,-1,31
 568 205 568 205 568 155 c 128,-1,32
 568 105 568 105 553 80 c 0,33,34
 523 32 523 32 492 8 c 0,35,36
 477 -3 477 -3 445 -10 c 128,-1,37
 413 -17 413 -17 397 -17 c 0,38,39
 356 -17 356 -17 317 6.5 c 128,-1,40
 278 30 278 30 278 53 c 0,41,42
 278 134 278 134 282.5 152.5 c 128,-1,43
 287 171 287 171 302.5 171 c 128,-1,44
 318 171 318 171 324.5 151.5 c 128,-1,45
 331 132 331 132 334.5 109 c 128,-1,46
 338 86 338 86 357.5 66.5 c 128,-1,47
 377 47 377 47 415.5 47 c 128,-1,48
 454 47 454 47 478.5 66 c 128,-1,49
 503 85 503 85 503 116 c 128,-1,50
 503 147 503 147 482.5 177 c 128,-1,51
 462 207 462 207 433 235.5 c 128,-1,52
 404 264 404 264 374.5 292.5 c 0,53,54
 304 360.610169492 304 360.610169492 304 410 c 0,55,56
 304 469.473684211 304 469.473684211 324.5 504 c 0,57,58
 337.430555556 525.777777778 337.430555556 525.777777778 357.215277778 548.388888889 c 128,-1,59
 377 571 377 571 386.5 582.5 c 0,60,61
 407 607.315789474 407 607.315789474 407 644.157894737 c 128,-1,62
 407 681 407 681 398.5 707 c 128,-1,63
 390 733 390 733 372 748.5 c 128,-1,64
 354 764 354 764 323 764 c 128,-1,65
 292 764 292 764 265 737 c 128,-1,66
 238 710 238 710 224.5 668.5 c 0,67,68
 199 590.111111111 199 590.111111111 199 519 c 2,0,-1
EndSplineSet
EndChar

StartChar: ae
Encoding: 230 230 154
Width: 760
GlyphClass: 2
Flags: HW
LayerCount: 2
Fore
SplineSet
322 316 m 1,0,-1
 323 376 l 2,1,2
 323 422 323 422 290 442 c 128,-1,3
 257 462 257 462 210.5 462 c 128,-1,4
 164 462 164 462 146 438.5 c 128,-1,5
 128 415 128 415 107 338 c 1,6,-1
 66 342 l 1,7,8
 66 429.481481481 66 429.481481481 96.5 464.5 c 0,9,10
 132.416356877 505.737298637 132.416356877 505.737298637 174.208178439 515.868649318 c 128,-1,11
 216 526 216 526 259 526 c 0,12,13
 373 526 373 526 402 464 c 1,14,15
 474 523 474 523 536 523 c 0,16,17
 631.534883721 523 631.534883721 523 672 479.5 c 0,18,19
 692 458 692 458 704.5 437.5 c 128,-1,20
 717 417 717 417 721.5 386.5 c 0,21,22
 729 335.666666667 729 335.666666667 729 310.333333333 c 2,23,-1
 729 281 l 1,24,25
 696 261 696 261 624 261 c 2,26,-1
 419 261 l 1,27,28
 419 139.307692308 419 139.307692308 448 102.5 c 0,29,30
 479.909090909 62 479.909090909 62 549 62 c 0,31,32
 636 62 636 62 708 133 c 1,33,-1
 730 110 l 1,34,35
 726 106 726 106 711 90.5 c 128,-1,36
 696 75 696 75 691 70 c 128,-1,37
 686 65 686 65 672 51.5 c 128,-1,38
 658 38 658 38 650.5 33 c 128,-1,39
 643 28 643 28 629.5 18 c 128,-1,40
 616 8 616 8 606.5 4 c 128,-1,41
 597 0 597 0 583.5 -5.5 c 0,42,43
 560.181818182 -15 560.181818182 -15 529 -15 c 0,44,45
 407 -15 407 -15 355 85 c 1,46,-1
 328 67 l 2,47,48
 313 57 313 57 291 42 c 128,-1,49
 269 27 269 27 260.5 21.5 c 128,-1,50
 252 16 252 16 236.5 8 c 128,-1,51
 221 0 221 0 209 -3 c 0,52,53
 181 -10 181 -10 133.5 -10 c 128,-1,54
 86 -10 86 -10 63 28 c 128,-1,55
 40 66 40 66 40 111 c 128,-1,56
 40 156 40 156 47 183 c 128,-1,57
 54 210 54 210 70 228 c 128,-1,58
 86 246 86 246 102 258 c 128,-1,59
 118 270 118 270 147.5 278.5 c 128,-1,60
 177 287 177 287 198.5 291.5 c 128,-1,61
 220 296 220 296 259 303.5 c 128,-1,62
 298 311 298 311 322 316 c 1,0,-1
130 131 m 0,63,64
 130 57 130 57 197 57 c 0,65,66
 256 57 256 57 316 107 c 0,67,68
 323 113 323 113 323 180 c 128,-1,69
 323 247 323 247 322 277 c 1,70,71
 304 271 304 271 276.5 262 c 128,-1,72
 249 253 249 253 237.5 249 c 128,-1,73
 226 245 226 245 207 238.5 c 128,-1,74
 188 232 188 232 181.5 228 c 128,-1,75
 175 224 175 224 163.5 218 c 128,-1,76
 152 212 152 212 149 206.5 c 128,-1,77
 146 201 146 201 140 193.5 c 128,-1,78
 134 186 134 186 133 176.5 c 0,79,80
 130 148 130 148 130 131 c 0,63,64
421 306 m 1,81,-1
 478 306 l 2,82,83
 611 306 611 306 636 324 c 1,84,85
 636 367 636 367 622 398.5 c 0,86,87
 595.555555556 458 595.555555556 458 529.777777778 458 c 128,-1,88
 464 458 464 458 442.5 424.5 c 128,-1,89
 421 391 421 391 421 306 c 1,81,-1
EndSplineSet
EndChar

StartChar: ccedilla
Encoding: 231 231 155
Width: 441
GlyphClass: 2
Flags: HW
LayerCount: 2
Fore
SplineSet
44 120 m 1,0,1
 30 180 30 180 30 231 c 128,-1,2
 30 282 30 282 36 341.5 c 128,-1,3
 42 401 42 401 54 413 c 0,4,5
 137.950832672 494.903251388 137.950832672 494.903251388 182.5 511.5 c 0,6,7
 208 521 208 521 221.5 523 c 128,-1,8
 235 525 235 525 266.5 525 c 128,-1,9
 298 525 298 525 339.5 517 c 128,-1,10
 381 509 381 509 396 504 c 1,11,12
 392 477 392 477 392 354 c 1,13,-1
 363 354 l 1,14,-1
 347 418 l 2,15,16
 342 436 342 436 304 446 c 128,-1,17
 266 456 266 456 212.5 456 c 128,-1,18
 159 456 159 456 138.5 418 c 128,-1,19
 118 380 118 380 118 292.5 c 128,-1,20
 118 205 118 205 130 154 c 1,21,22
 144 118 144 118 170 88 c 1,23,24
 206 59 206 59 240 59 c 128,-1,25
 274 59 274 59 311 77.5 c 128,-1,26
 348 96 348 96 370 115 c 2,27,-1
 392 134 l 1,28,-1
 413 114 l 1,29,-1
 302 -7 l 1,30,-1
 289 -9 l 1,31,32
 271 -13 271 -13 251 -15 c 1,33,-1
 217 -15 l 1,34,-1
 211 -43 l 1,35,36
 301 -61 301 -61 301 -119 c 0,37,38
 301 -142 301 -142 291.5 -158.5 c 128,-1,39
 282 -175 282 -175 272 -182 c 128,-1,40
 262 -189 262 -189 242 -199 c 1,41,42
 219 -203 219 -203 155 -206 c 1,43,-1
 152 -168 l 1,44,45
 200 -168 200 -168 225 -156.5 c 128,-1,46
 250 -145 250 -145 250 -130 c 128,-1,47
 250 -115 250 -115 230.5 -103.5 c 128,-1,48
 211 -92 211 -92 177 -91 c 1,49,-1
 165 -80 l 1,50,-1
 190 -11 l 1,51,52
 149 -4 149 -4 114 16 c 1,53,54
 71 55 71 55 44 120 c 1,0,1
EndSplineSet
EndChar

StartChar: oslash
Encoding: 248 248 170
Width: 517
GlyphClass: 2
Flags: HW
LayerCount: 2
Fore
SplineSet
30 260 m 0,0,1
 30 348 30 348 71 415 c 1,2,3
 98 457 98 457 165 491.5 c 128,-1,4
 232 526 232 526 277.5 526 c 128,-1,5
 323 526 323 526 366 509 c 1,6,-1
 398 573 l 1,7,-1
 433 554 l 1,8,-1
 401 490 l 1,9,10
 491 429 491 429 491 300 c 128,-1,11
 491 171 491 171 447 104 c 1,12,13
 388 25 388 25 332 0 c 0,14,15
 294 -17 294 -17 245 -17 c 128,-1,16
 196 -17 196 -17 156 -2 c 1,17,-1
 126 -63 l 1,18,-1
 92 -45 l 1,19,-1
 122 16 l 1,20,21
 30 81 30 81 30 260 c 0,0,1
165 102 m 1,22,-1
 330 436 l 1,23,-1
 300 448 l 1,24,25
 272 455 272 455 249 455 c 128,-1,26
 226 455 226 455 215.5 454 c 128,-1,27
 205 453 205 453 188 448 c 128,-1,28
 171 443 171 443 162 431.5 c 128,-1,29
 153 420 153 420 143 400 c 0,30,31
 125 364 125 364 125 258.5 c 128,-1,32
 125 153 125 153 165 102 c 1,22,-1
195 75 m 1,33,34
 228 54 228 54 272.5 54 c 128,-1,35
 317 54 317 54 331 59 c 0,36,37
 400 86 400 86 400 267 c 0,38,39
 400 371 400 371 362 412 c 1,40,-1
 195 75 l 1,33,34
EndSplineSet
EndChar

StartChar: dotlessi
Encoding: 305 305 214
Width: 282
GlyphClass: 2
Flags: HW
LayerCount: 2
Fore
SplineSet
30 0 m 1,0,-1
 30 34 l 1,1,2
 81 38 81 38 94 47.5 c 128,-1,3
 107 57 107 57 107 87 c 2,4,-1
 107 295 l 2,5,6
 107 382 107 382 102.5 416 c 128,-1,7
 98 450 98 450 88 459.5 c 128,-1,8
 78 469 78 469 50 469 c 2,9,-1
 35 469 l 1,10,-1
 33 502 l 1,11,12
 107.423076923 508.923076923 107.423076923 508.923076923 143.711538462 517.461538462 c 128,-1,13
 180 526 180 526 183 526 c 0,14,15
 200 526 200 526 200 510 c 0,16,17
 200 498 200 498 199 444.5 c 0,18,19
 195 230.5 195 230.5 195 75 c 0,20,21
 195 55 195 55 211 45.5 c 128,-1,22
 227 36 227 36 262 34 c 1,23,-1
 262 0 l 1,24,-1
 30 0 l 1,0,-1
EndSplineSet
EndChar

StartChar: OE
Encoding: 338 338 233
Width: 1102
GlyphClass: 2
Flags: HW
LayerCount: 2
Fore
SplineSet
1051 -2 m 1,0,-1
 630 0 l 2,1,2
 606 0 606 0 511.5 -7 c 128,-1,3
 417 -14 417 -14 359 -14 c 0,4,5
 199 -14 199 -14 120.5 89 c 128,-1,6
 42 192 42 192 42 352.5 c 128,-1,7
 42 513 42 513 106 610 c 0,8,9
 152 679 152 679 238.5 712 c 128,-1,10
 325 745 325 745 385.5 745 c 128,-1,11
 446 745 446 745 530.5 738.5 c 128,-1,12
 615 732 615 732 637 732 c 2,13,-1
 1025 736 l 1,14,-1
 1037 725 l 1,15,16
 1035 717 1035 717 1023 634 c 128,-1,17
 1011 551 1011 551 1010 540 c 1,18,-1
 976 540 l 1,19,20
 957 642 957 642 953 654 c 128,-1,21
 949 666 949 666 938 674 c 1,22,23
 902 683 902 683 815.5 683 c 128,-1,24
 729 683 729 683 711 676.5 c 128,-1,25
 693 670 693 670 693 649 c 0,26,27
 690 551 690 551 688 411 c 1,28,29
 872 411 872 411 935 417 c 1,30,-1
 925 343 l 1,31,-1
 907 343 l 1,32,33
 874.795100223 366.259094284 874.795100223 366.259094284 744.5 367.5 c 0,34,35
 692 368 692 368 688 368 c 1,36,37
 686 220 686 220 686 81 c 0,38,39
 686 57 686 57 722 49.5 c 128,-1,40
 758 42 758 42 850.5 42 c 128,-1,41
 943 42 943 42 958 54 c 0,42,43
 983 76 983 76 1009 176 c 2,44,-1
 1023 230 l 1,45,-1
 1060 230 l 1,46,47
 1057 204 1057 204 1054 109 c 128,-1,48
 1051 14 1051 14 1051 -2 c 1,0,-1
163 536.5 m 128,-1,50
 144 472 144 472 144 379.5 c 128,-1,51
 144 287 144 287 168 219 c 128,-1,52
 192 151 192 151 234.5 111.5 c 0,53,54
 316.810126582 35 316.810126582 35 443 35 c 0,55,56
 529.8 35 529.8 35 565 57 c 0,57,58
 581 67 581 67 581 81 c 0,59,60
 584 177 584 177 584 381.5 c 128,-1,61
 584 586 584 586 581 659 c 0,62,63
 579 701 579 701 420 701 c 0,64,65
 354 701 354 701 306 686 c 128,-1,66
 258 671 258 671 220 636 c 128,-1,49
 182 601 182 601 163 536.5 c 128,-1,50
EndSplineSet
EndChar

StartChar: oe
Encoding: 339 339 234
Width: 836
GlyphClass: 2
Flags: HW
LayerCount: 2
Fore
SplineSet
44 139.5 m 128,-1,1
 30 191 30 191 30 269.5 c 128,-1,2
 30 348 30 348 71 415 c 1,3,4
 98 457 98 457 165 491.5 c 128,-1,5
 232 526 232 526 276 526 c 0,6,7
 393 526 393 526 452 441 c 1,8,9
 485 474 485 474 529 498.5 c 128,-1,10
 573 523 573 523 615.5 523 c 128,-1,11
 658 523 658 523 693 512 c 128,-1,12
 728 501 728 501 748 479.5 c 128,-1,13
 768 458 768 458 780.5 437.5 c 128,-1,14
 793 417 793 417 797.5 386.5 c 0,15,16
 805 335.666666667 805 335.666666667 805 310.333333333 c 2,17,18
 805 281 l 1,19,20
 772 261 772 261 700 261 c 2,21,-1
 495 261 l 1,22,23
 495 153.588235294 495 153.588235294 511.5 123.5 c 0,24,25
 535.454545455 79.8181818182 535.454545455 79.8181818182 571 69 c 0,26,27
 594 62 594 62 625 62 c 0,28,29
 712 62 712 62 784 133 c 1,30,-1
 806 110 l 1,31,32
 803 107 803 107 789 92.5 c 128,-1,33
 775 78 775 78 770.5 74 c 128,-1,34
 766 70 766 70 753.5 57.5 c 128,-1,35
 741 45 741 45 735 40.5 c 128,-1,36
 729 36 729 36 716.5 26 c 128,-1,37
 704 16 704 16 696 12 c 128,-1,38
 688 8 688 8 675.5 1.5 c 128,-1,39
 663 -5 663 -5 653 -8 c 0,40,41
 629.666666667 -15 629.666666667 -15 605 -15 c 0,42,43
 483 -15 483 -15 431 84 c 1,44,45
 383 26 383 26 341 4.5 c 128,-1,46
 299 -17 299 -17 255.5 -17 c 128,-1,47
 212 -17 212 -17 186 -11.5 c 128,-1,48
 160 -6 160 -6 130.5 12 c 128,-1,49
 101 30 101 30 79.5 59 c 128,-1,0
 58 88 58 88 44 139.5 c 128,-1,1
166.5 101 m 128,-1,51
 208 54 208 54 287 54 c 0,52,53
 317 54 317 54 331 59 c 0,54,55
 400 86 400 86 400 267 c 0,56,57
 400 352 400 352 377.5 391.5 c 128,-1,58
 355 431 355 431 300 448 c 1,59,60
 272 455 272 455 249 455 c 128,-1,61
 226 455 226 455 215.5 454 c 128,-1,62
 205 453 205 453 188 448 c 128,-1,63
 171 443 171 443 162 431.5 c 128,-1,64
 153 420 153 420 143 400 c 0,65,66
 125 364 125 364 125 256 c 128,-1,50
 125 148 125 148 166.5 101 c 128,-1,51
497 306 m 1,67,-1
 553 306 l 2,68,69
 686 306 686 306 712 324 c 1,70,71
 712 367 712 367 698 398.5 c 0,72,73
 671.555555556 458 671.555555556 458 605.777777778 458 c 128,-1,74
 540 458 540 458 518.5 424.5 c 128,-1,75
 497 391 497 391 497 306 c 1,67,-1
EndSplineSet
EndChar

StartChar: longs
Encoding: 383 383 268
Width: 345
GlyphClass: 2
Flags: HW
LayerCount: 2
Fore
SplineSet
405 685 m 1,0,-1
 404 648 l 1,1,-1
 361 647 l 1,2,3
 340 761 340 761 298 761 c 0,4,5
 262 761 262 761 230.5 684 c 128,-1,6
 199 607 199 607 199 519 c 2,7,-1
 199 448 l 1,8,9
 195 238 195 238 195 162 c 128,-1,10
 195 86 195 86 196 78.5 c 128,-1,11
 197 71 197 71 198 65 c 128,-1,12
 199 59 199 59 204 55.5 c 128,-1,13
 209 52 209 52 212.5 49.5 c 128,-1,14
 216 47 216 47 227 45 c 128,-1,15
 238 43 238 43 246 41 c 128,-1,16
 254 39 254 39 272.5 36.5 c 128,-1,17
 291 34 291 34 306 31 c 1,18,-1
 306 0 l 1,19,-1
 26 0 l 1,20,-1
 26 34 l 1,21,22
 62 39 62 39 71 40.5 c 128,-1,23
 80 42 80 42 92 50 c 128,-1,24
 104 58 104 58 105 68 c 128,-1,25
 106 78 106 78 106 125 c 128,-1,26
 106 172 106 172 100 448 c 2,27,-1
 99 497 l 1,28,29
 99 618 99 618 157 708 c 128,-1,30
 215 798 215 798 324 798 c 0,31,32
 373 798 373 798 389 771.5 c 128,-1,33
 405 745 405 745 405 685 c 1,0,-1
EndSplineSet
EndChar

StartChar: uni0237
Encoding: 567 567 269
Width: 251
GlyphClass: 2
Flags: HW
LayerCount: 2
Fore
SplineSet
-5 -185 m 1,0,1
 1 -177 1 -177 20 -154 c 128,-1,2
 39 -131 39 -131 49.5 -112.5 c 128,-1,3
 60 -94 60 -94 71 -66 c 128,-1,4
 82 -38 82 -38 84.5 21.5 c 0,5,6
 90 152.4 90 152.4 90 368 c 0,7,8
 90 434 90 434 79.5 452 c 128,-1,9
 69 470 69 470 33 470 c 2,10,-1
 18 470 l 1,11,-1
 16 503 l 1,12,13
 93.8867924528 510.245283019 93.8867924528 510.245283019 128.443396226 518.622641509 c 128,-1,14
 163 527 163 527 166 527 c 0,15,16
 183 527 183 527 183 511 c 2,17,-1
 183 357 l 2,18,19
 183 144 183 144 173.5 77.5 c 128,-1,20
 164 11 164 11 160 -6.5 c 128,-1,21
 156 -24 156 -24 144 -54 c 128,-1,22
 132 -84 132 -84 123 -95 c 128,-1,23
 114 -106 114 -106 93.5 -129 c 128,-1,24
 73 -152 73 -152 57.5 -165 c 128,-1,25
 42 -178 42 -178 12 -202 c 1,26,-1
 -5 -185 l 1,0,1
EndSplineSet
EndChar

StartChar: circumflex
Encoding: 710 710 270
Width: 500
GlyphClass: 4
Flags: HW
LayerCount: 2
Fore
SplineSet
126 581 m 1,0,1
 199 687 199 687 237 752 c 1,2,-1
 277 752 l 1,3,4
 337 638 337 638 374 583 c 1,5,-1
 358 570 l 1,6,-1
 245 676 l 1,7,-1
 146 568 l 1,8,-1
 126 581 l 1,0,1
EndSplineSet
EndChar

StartChar: caron
Encoding: 711 711 271
Width: 500
GlyphClass: 4
Flags: HW
LayerCount: 2
Fore
SplineSet
388 732 m 1,0,1
 347.75 683 347.75 683 260 566 c 1,2,-1
 220 566 l 1,3,4
 206 591 206 591 112 716 c 1,5,-1
 139 748 l 1,6,-1
 252 642 l 1,7,-1
 376 750 l 1,8,-1
 388 732 l 1,0,1
EndSplineSet
EndChar

StartChar: breve
Encoding: 728 728 272
Width: 500
GlyphClass: 4
Flags: HW
LayerCount: 2
Fore
SplineSet
114 686 m 1,0,-1
 169 711 l 1,1,-1
 181 699 l 1,2,3
 214 638 214 638 262 638 c 0,4,5
 310 638 310 638 355 713 c 1,6,-1
 386 699 l 1,7,8
 326 580 326 580 240 580 c 0,9,10
 200 580 200 580 166 608.5 c 128,-1,11
 132 637 132 637 114 686 c 1,0,-1
EndSplineSet
EndChar

StartChar: dotaccent
Encoding: 729 729 273
Width: 500
GlyphClass: 4
Flags: HW
LayerCount: 2
Fore
SplineSet
211 609.5 m 128,-1,1
 191 634 191 634 191 645.5 c 128,-1,2
 191 657 191 657 207.5 687 c 128,-1,3
 224 717 224 717 242 717 c 128,-1,4
 260 717 260 717 282 698.5 c 128,-1,5
 304 680 304 680 304 656 c 128,-1,6
 304 632 304 632 283.5 608.5 c 128,-1,7
 263 585 263 585 247 585 c 128,-1,0
 231 585 231 585 211 609.5 c 128,-1,1
EndSplineSet
EndChar

StartChar: ring
Encoding: 730 730 274
Width: 500
GlyphClass: 4
Flags: HW
LayerCount: 2
Fore
SplineSet
166 656 m 0,0,1
 166 684 166 684 181 707 c 0,2,3
 191 721 191 721 215.5 732.5 c 128,-1,4
 240 744 240 744 264 744 c 128,-1,5
 288 744 288 744 311 725 c 128,-1,6
 334 706 334 706 334 666.5 c 128,-1,7
 334 627 334 627 318 604 c 1,8,9
 290 576 290 576 275.5 570 c 128,-1,10
 261 564 261 564 243 564 c 0,11,12
 166 564 166 564 166 656 c 0,0,1
258 597 m 0,13,14
 269 597 269 597 272 598 c 0,15,16
 294 607 294 607 294 657 c 0,17,18
 294 681 294 681 287 692.5 c 0,19,20
 275.739130435 711 275.739130435 711 245 711 c 0,21,22
 232 711 232 711 226 709 c 0,23,24
 208 703 208 703 208 650 c 128,-1,25
 208 597 208 597 258 597 c 0,13,14
EndSplineSet
EndChar

StartChar: tilde
Encoding: 732 732 275
Width: 500
GlyphClass: 4
Flags: HW
LayerCount: 2
Fore
SplineSet
91 602 m 1,0,1
 107 626 107 626 147 663.5 c 128,-1,2
 187 701 187 701 201 701 c 128,-1,3
 215 701 215 701 253.5 679 c 128,-1,4
 292 657 292 657 327 648 c 1,5,6
 358 657 358 657 394 691 c 1,7,-1
 409 679 l 1,8,9
 393 655 393 655 358 621.5 c 128,-1,10
 323 588 323 588 307.5 588 c 0,11,12
 292 588 292 588 247 614.5 c 128,-1,13
 202 641 202 641 183 641 c 1,14,15
 150 631 150 631 104 588 c 1,16,-1
 91 602 l 1,0,1
EndSplineSet
EndChar

StartChar: gravecmb
Encoding: 768 768 277
Width: 0
GlyphClass: 4
Flags: HW
LayerCount: 2
Fore
SplineSet
-356 715 m 1,0,1
 -355 733 -355 733 -337.5 746.5 c 128,-1,2
 -320 760 -320 760 -299 760 c 1,3,4
 -204 641 -204 641 -146 580 c 1,5,-1
 -162 559 l 1,6,7
 -201 584 -201 584 -262.5 634 c 128,-1,8
 -324 684 -324 684 -356 715 c 1,0,1
EndSplineSet
EndChar

StartChar: acutecmb
Encoding: 769 769 278
Width: 0
GlyphClass: 4
Flags: HW
LayerCount: 2
Fore
SplineSet
-309 579 m 1,0,1
 -251 640 -251 640 -156 759 c 1,2,3
 -135 759 -135 759 -117 745.5 c 128,-1,4
 -99 732 -99 732 -98 714 c 1,5,6
 -205 616 -205 616 -292 558 c 1,7,-1
 -309 579 l 1,0,1
EndSplineSet
EndChar

StartChar: figuredash
Encoding: 8210 8210 291
Width: 480
GlyphClass: 2
Flags: HW
LayerCount: 2
Fore
SplineSet
26 250 m 1,0,-1
 40 316 l 1,1,-1
 442 316 l 1,2,-1
 454 305 l 1,3,-1
 441 250 l 1,4,-1
 26 250 l 1,0,-1
EndSplineSet
EndChar

StartChar: endash
Encoding: 8211 8211 292
Width: 500
GlyphClass: 2
Flags: HW
LayerCount: 2
Fore
SplineSet
26 250 m 1,0,-1
 40 316 l 1,1,-1
 462 316 l 1,2,-1
 474 305 l 1,3,-1
 461 250 l 1,4,-1
 26 250 l 1,0,-1
EndSplineSet
Substitution2: "'ss01' Style Set 1 in Latin lookup 2 subtable" figuredash
Substitution2: "'salt' Stylistic Alternatives in Latin lookup 1 subtable" figuredash
EndChar

StartChar: emdash
Encoding: 8212 8212 293
Width: 1000
GlyphClass: 2
Flags: HW
LayerCount: 2
Fore
SplineSet
26 250 m 1,0,-1
 40 316 l 1,1,-1
 962 316 l 1,2,-1
 974 305 l 1,3,-1
 961 250 l 1,4,-1
 26 250 l 1,0,-1
EndSplineSet
Substitution2: "'ss01' Style Set 1 in Latin lookup 2 subtable" uni2014.alt
Substitution2: "'salt' Stylistic Alternatives in Latin lookup 1 subtable" uni2014.alt
EndChar

StartChar: quoteleft
Encoding: 8216 8216 295
Width: 240
GlyphClass: 2
Flags: HW
LayerCount: 2
Fore
SplineSet
89 585 m 128,-1,1
 66 621 66 621 66 649.5 c 128,-1,2
 66 678 66 678 103.5 738 c 128,-1,3
 141 798 141 798 155 798 c 0,4,5
 157 798 157 798 163 793 c 128,-1,6
 169 788 169 788 169 784.5 c 128,-1,7
 169 781 169 781 150 752.5 c 128,-1,8
 131 724 131 724 131 701 c 128,-1,9
 131 678 131 678 152.5 647 c 128,-1,10
 174 616 174 616 174 610 c 128,-1,11
 174 604 174 604 166 590.5 c 0,12,13
 141.407407407 549 141.407407407 549 126.703703704 549 c 128,-1,0
 112 549 112 549 89 585 c 128,-1,1
EndSplineSet
EndChar

StartChar: quoteright
Encoding: 8217 8217 296
Width: 240
GlyphClass: 2
Flags: HW
LayerCount: 2
Fore
SplineSet
87.5 700 m 128,-1,1
 66 731 66 731 66 737 c 128,-1,2
 66 743 66 743 74 756.5 c 0,3,4
 98.5925925926 798 98.5925925926 798 113.296296296 798 c 128,-1,5
 128 798 128 798 151 762 c 128,-1,6
 174 726 174 726 174 697.5 c 128,-1,7
 174 669 174 669 136.5 609 c 128,-1,8
 99 549 99 549 85 549 c 0,9,10
 83 549 83 549 77 554 c 128,-1,11
 71 559 71 559 71 562.5 c 128,-1,12
 71 566 71 566 90 594.5 c 128,-1,13
 109 623 109 623 109 646 c 128,-1,0
 109 669 109 669 87.5 700 c 128,-1,1
EndSplineSet
EndChar

StartChar: dagger
Encoding: 8224 8224 301
Width: 564
GlyphClass: 2
Flags: HW
LayerCount: 2
Fore
SplineSet
30 475 m 0,0,1
 30 511 30 511 42 523 c 1,2,-1
 232 516 l 1,3,4
 224 559 224 559 224 612.5 c 128,-1,5
 224 666 224 666 231 722 c 1,6,7
 246 738 246 738 285 738 c 0,8,9
 315 738 315 738 319 734 c 128,-1,10
 323 730 323 730 324.5 727.5 c 128,-1,11
 326 725 326 725 328 725 c 1,12,13
 335 661 335 661 335 611.5 c 128,-1,14
 335 562 335 562 328 516 c 1,15,-1
 530 523 l 1,16,17
 532 515 532 515 532 501 c 128,-1,18
 532 487 532 487 522 464 c 1,19,-1
 328 467 l 1,20,-1
 328 266 l 2,21,22
 328 28 328 28 319 -46 c 128,-1,23
 310 -120 310 -120 282 -120 c 0,24,25
 252 -120 252 -120 242 -7 c 128,-1,26
 232 106 232 106 232 458 c 2,27,-1
 232 467 l 1,28,-1
 31 464 l 1,29,30
 30 467 30 467 30 475 c 0,0,1
EndSplineSet
EndChar

StartChar: daggerdbl
Encoding: 8225 8225 302
Width: 564
GlyphClass: 2
Flags: HW
LayerCount: 2
Fore
SplineSet
32 95 m 1,0,1
 30 105 30 105 30 119.5 c 128,-1,2
 30 134 30 134 40 154 c 1,3,-1
 234 151 l 1,4,5
 224 230 224 230 224 314.5 c 128,-1,6
 224 399 224 399 232 467 c 1,7,-1
 31 464 l 1,8,9
 30 467 30 467 30 475 c 0,10,11
 30 511 30 511 42 523 c 1,12,-1
 232 516 l 1,13,14
 224 559 224 559 224 612.5 c 128,-1,15
 224 666 224 666 231 722 c 1,16,17
 247 738 247 738 286 738 c 0,18,19
 317 738 317 738 320 734 c 0,20,21
 326 726 326 726 328 725 c 1,22,23
 335 661 335 661 335 611.5 c 128,-1,24
 335 562 335 562 328 516 c 1,25,-1
 530 523 l 1,26,27
 532 515 532 515 532 501 c 128,-1,28
 532 487 532 487 522 464 c 1,29,-1
 328 467 l 1,30,31
 338 387 338 387 338 309 c 128,-1,32
 338 231 338 231 330 151 c 1,33,-1
 531 155 l 1,34,35
 532 151 532 151 532 144 c 0,36,37
 532 109 532 109 520 95 c 1,38,-1
 330 102 l 1,39,40
 338 59 338 59 338 5.5 c 128,-1,41
 338 -48 338 -48 331 -103 c 1,42,43
 316 -120 316 -120 276 -120 c 0,44,45
 248 -120 248 -120 243.5 -115.5 c 128,-1,46
 239 -111 239 -111 237.5 -108.5 c 128,-1,47
 236 -106 236 -106 234 -106 c 1,48,49
 227 -43 227 -43 227 6.5 c 128,-1,50
 227 56 227 56 234 103 c 1,51,-1
 32 95 l 1,0,1
EndSplineSet
EndChar

StartChar: bullet
Encoding: 8226 8226 303
Width: 480
GlyphClass: 2
Flags: HW
LayerCount: 2
Fore
SplineSet
369 351 m 1,0,-1
 371 322 l 2,1,2
 371 311 371 311 336 271.5 c 128,-1,3
 301 232 301 232 260 198 c 0,4,5
 254 194 254 194 246 194 c 128,-1,6
 238 194 238 194 204 217 c 2,7,-1
 172 239 l 1,8,-1
 143 262 l 2,9,10
 124 277 124 277 116.5 290 c 128,-1,11
 109 303 109 303 109 329 c 0,12,13
 109 344 109 344 163.5 400 c 128,-1,14
 218 456 218 456 233 456.5 c 128,-1,15
 248 457 248 457 306.5 413.5 c 128,-1,16
 365 370 365 370 369 351 c 1,0,-1
EndSplineSet
EndChar

StartChar: perthousand
Encoding: 8240 8240 305
Width: 1008
GlyphClass: 2
Flags: HW
LayerCount: 2
Fore
SplineSet
75.5 258.5 m 128,-1,1
 42 301 42 301 42 375.5 c 128,-1,2
 42 450 42 450 88 487 c 128,-1,3
 134 524 134 524 172 524 c 0,4,5
 237 524 237 524 270.5 477 c 128,-1,6
 304 430 304 430 304 367 c 0,7,8
 304 335 304 335 293 307 c 128,-1,9
 282 279 282 279 249 247.5 c 128,-1,10
 216 216 216 216 162.5 216 c 128,-1,0
 109 216 109 216 75.5 258.5 c 128,-1,1
99 424 m 0,11,12
 92 403 92 403 92 365 c 128,-1,13
 92 327 92 327 119 301 c 128,-1,14
 146 275 146 275 183 275 c 128,-1,15
 220 275 220 275 235.5 295.5 c 128,-1,16
 251 316 251 316 251 363.5 c 128,-1,17
 251 411 251 411 225.5 438 c 128,-1,18
 200 465 200 465 168 465 c 0,19,20
 112.666666667 465 112.666666667 465 99 424 c 0,11,12
149 -3 m 1,21,-1
 502 537 l 1,22,-1
 540 513 l 1,23,-1
 187 -27 l 1,24,-1
 149 -3 l 1,21,-1
425.5 30.5 m 128,-1,26
 392 73 392 73 392 147.5 c 128,-1,27
 392 222 392 222 438 259 c 128,-1,28
 484 296 484 296 522 296 c 0,29,30
 588 296 588 296 621 249 c 128,-1,31
 654 202 654 202 654 139 c 0,32,33
 654 105 654 105 643 78 c 128,-1,34
 632 51 632 51 599 19.5 c 128,-1,35
 566 -12 566 -12 512.5 -12 c 128,-1,25
 459 -12 459 -12 425.5 30.5 c 128,-1,26
449 195.5 m 0,36,37
 442 175 442 175 442 137 c 128,-1,38
 442 99 442 99 469 73 c 128,-1,39
 496 47 496 47 533 47 c 128,-1,40
 570 47 570 47 585.5 67 c 128,-1,41
 601 87 601 87 601 135 c 128,-1,42
 601 183 601 183 576 209.5 c 128,-1,43
 551 236 551 236 519 236 c 0,44,45
 462.829268293 236 462.829268293 236 449 195.5 c 0,36,37
737.5 30.5 m 128,-1,47
 704 73 704 73 704 147.5 c 128,-1,48
 704 222 704 222 750 259 c 128,-1,49
 796 296 796 296 834 296 c 0,50,51
 900 296 900 296 933 249 c 128,-1,52
 966 202 966 202 966 139 c 0,53,54
 966 105 966 105 955 78 c 128,-1,55
 944 51 944 51 911 19.5 c 128,-1,56
 878 -12 878 -12 824.5 -12 c 128,-1,46
 771 -12 771 -12 737.5 30.5 c 128,-1,47
761 195.5 m 0,57,58
 754 175 754 175 754 137 c 128,-1,59
 754 99 754 99 781 73 c 128,-1,60
 808 47 808 47 845 47 c 128,-1,61
 882 47 882 47 897.5 67 c 128,-1,62
 913 87 913 87 913 135 c 128,-1,63
 913 183 913 183 888 209.5 c 128,-1,64
 863 236 863 236 831 236 c 0,65,66
 774.829268293 236 774.829268293 236 761 195.5 c 0,57,58
EndSplineSet
EndChar

StartChar: guilsinglleft
Encoding: 8249 8249 306
Width: 325
GlyphClass: 2
Flags: HW
LayerCount: 2
Fore
SplineSet
28 245 m 1,0,1
 67 273 67 273 150 346.5 c 128,-1,2
 233 420 233 420 249 437 c 1,3,-1
 281 421 l 1,4,-1
 128 242 l 1,5,-1
 280 65 l 1,6,-1
 251 50 l 1,7,8
 107 190 107 190 28 245 c 1,0,1
EndSplineSet
EndChar

StartChar: guilsinglright
Encoding: 8250 8250 307
Width: 326
GlyphClass: 2
Flags: HW
LayerCount: 2
Fore
SplineSet
45 421 m 1,0,-1
 76 437 l 1,1,2
 97 416 97 416 178 344.5 c 128,-1,3
 259 273 259 273 298 245 c 1,4,5
 223 193 223 193 75 50 c 1,6,-1
 46 65 l 1,7,-1
 198 242 l 1,8,-1
 45 421 l 1,0,-1
EndSplineSet
EndChar

StartChar: Euro
Encoding: 8364 8364 308
Width: 480
GlyphClass: 2
Flags: HW
LayerCount: 2
Fore
SplineSet
5 285 m 1,0,-1
 24 332 l 1,1,-1
 79 332 l 1,2,3
 87 380 87 380 95 399 c 0,4,5
 111 436 111 436 172 479.5 c 128,-1,6
 233 523 233 523 286 523 c 0,7,8
 397 523 397 523 446 451 c 1,9,-1
 423 395 l 1,10,-1
 407 394 l 1,11,12
 383 427 383 427 359 442.5 c 128,-1,13
 335 458 335 458 277 458 c 128,-1,14
 219 458 219 458 196 429.5 c 128,-1,15
 173 401 173 401 171 332 c 1,16,-1
 397 332 l 1,17,-1
 378 285 l 1,18,-1
 169 285 l 1,19,-1
 169 240 l 1,20,-1
 359 240 l 1,21,-1
 340 193 l 1,22,-1
 171 193 l 1,23,24
 175 131 175 131 203 96.5 c 128,-1,25
 231 62 231 62 299 62 c 0,26,27
 386 62 386 62 458 133 c 1,28,-1
 480 110 l 1,29,30
 477 107 477 107 463 92.5 c 128,-1,31
 449 78 449 78 444.5 74 c 128,-1,32
 440 70 440 70 427.5 57.5 c 128,-1,33
 415 45 415 45 409 40.5 c 128,-1,34
 403 36 403 36 390.5 26 c 128,-1,35
 378 16 378 16 370 12 c 128,-1,36
 362 8 362 8 349.5 1.5 c 128,-1,37
 337 -5 337 -5 327 -8 c 0,38,39
 303.666666667 -15 303.666666667 -15 279 -15 c 0,40,41
 181 -15 181 -15 133 43.5 c 128,-1,42
 85 102 85 102 75 193 c 1,43,-1
 8 193 l 1,44,-1
 27 240 l 1,45,-1
 73 240 l 1,46,-1
 73 246 l 2,47,48
 73 272 73 272 74 285 c 1,49,-1
 5 285 l 1,0,-1
EndSplineSet
EndChar

StartChar: minus
Encoding: 8722 8722 309
Width: 480
GlyphClass: 2
Flags: HW
LayerCount: 2
Fore
SplineSet
11 250 m 1,0,-1
 25 316 l 1,1,-1
 460 316 l 1,2,-1
 472 305 l 1,3,-1
 459 250 l 1,4,-1
 11 250 l 1,0,-1
EndSplineSet
EndChar

StartChar: f_f
Encoding: 64256 64256 310
Width: 684
GlyphClass: 3
Flags: HW
LayerCount: 2
Fore
SplineSet
744 685 m 1,0,-1
 743 648 l 1,1,-1
 700 647 l 1,2,3
 679 761 679 761 637 761 c 0,4,5
 601 761 601 761 569.5 684 c 128,-1,6
 538 607 538 607 538 519 c 2,7,-1
 538 504 l 1,8,-1
 672 504 l 1,9,-1
 669 448 l 1,10,-1
 538 448 l 1,11,12
 534 238 534 238 534 162 c 128,-1,13
 534 86 534 86 535 78.5 c 128,-1,14
 536 71 536 71 537 65 c 128,-1,15
 538 59 538 59 543 55.5 c 128,-1,16
 548 52 548 52 551.5 49.5 c 128,-1,17
 555 47 555 47 566 45 c 128,-1,18
 577 43 577 43 585 41 c 128,-1,19
 593 39 593 39 611.5 36.5 c 128,-1,20
 630 34 630 34 645 31 c 1,21,-1
 645 0 l 1,22,-1
 365 0 l 1,23,-1
 365 34 l 1,24,25
 401 39 401 39 410 40.5 c 128,-1,26
 419 42 419 42 431 50 c 128,-1,27
 443 58 443 58 444 68 c 128,-1,28
 445 78 445 78 445 125 c 128,-1,29
 445 172 445 172 439 448 c 1,30,-1
 219 448 l 1,31,32
 215 238 215 238 215 162 c 128,-1,33
 215 86 215 86 216 78.5 c 128,-1,34
 217 71 217 71 218 65 c 128,-1,35
 219 59 219 59 224 55.5 c 128,-1,36
 229 52 229 52 232.5 49.5 c 128,-1,37
 236 47 236 47 247 45 c 128,-1,38
 258 43 258 43 266 41 c 128,-1,39
 274 39 274 39 292.5 36.5 c 128,-1,40
 311 34 311 34 326 31 c 1,41,-1
 326 0 l 1,42,-1
 46 0 l 1,43,-1
 46 34 l 1,44,45
 82 39 82 39 91 40.5 c 128,-1,46
 100 42 100 42 112 50 c 128,-1,47
 124 58 124 58 125 68 c 128,-1,48
 126 78 126 78 126 125 c 128,-1,49
 126 172 126 172 120 448 c 1,50,-1
 30 448 l 1,51,-1
 30 482 l 1,52,-1
 119 497 l 1,53,54
 119 618 119 618 177 708 c 128,-1,55
 235 798 235 798 344 798 c 0,56,57
 393 798 393 798 409 771.5 c 128,-1,58
 425 745 425 745 425 685 c 1,59,-1
 424 648 l 1,60,-1
 381 647 l 1,61,62
 360 761 360 761 318 761 c 0,63,64
 282 761 282 761 250.5 684 c 128,-1,65
 219 607 219 607 219 519 c 2,66,-1
 219 504 l 1,67,-1
 438 504 l 1,68,69
 440.197693575 671.024711697 440.197693575 671.024711697 537.5 753.5 c 0,70,71
 590 798 590 798 663 798 c 0,72,73
 712 798 712 798 728 771.5 c 128,-1,74
 744 745 744 745 744 685 c 1,0,-1
EndSplineSet
Ligature2: "'liga' Standard Ligatures in Latin lookup 3 per glyph data 1" f f
EndChar

StartChar: f_i
Encoding: 64257 64257 311
Width: 600
GlyphClass: 3
Flags: HW
LayerCount: 2
Fore
SplineSet
384 449 m 1,0,-1
 317 448 l 1,1,-1
 219 448 l 1,2,3
 215 238 215 238 215 162 c 128,-1,4
 215 86 215 86 216 78.5 c 128,-1,5
 217 71 217 71 218 65 c 128,-1,6
 219 59 219 59 224 55.5 c 128,-1,7
 229 52 229 52 232.5 49.5 c 128,-1,8
 236 47 236 47 247 45 c 128,-1,9
 258 43 258 43 266 41 c 128,-1,10
 274 39 274 39 292.5 36.5 c 128,-1,11
 311 34 311 34 326 31 c 1,12,-1
 326 0 l 1,13,-1
 46 0 l 1,14,-1
 46 34 l 1,15,16
 82 39 82 39 91 40.5 c 128,-1,17
 100 42 100 42 112 50 c 128,-1,18
 124 58 124 58 125 68 c 128,-1,19
 126 78 126 78 126 125 c 128,-1,20
 126 172 126 172 120 448 c 1,21,-1
 30 448 l 1,22,-1
 30 482 l 1,23,-1
 119 497 l 1,24,25
 119 799 119 799 374 799 c 0,26,27
 441 799 441 799 460 779.5 c 128,-1,28
 479 760 479 760 479 709 c 2,29,-1
 478 649 l 1,30,-1
 435 645 l 1,31,32
 413 763 413 763 350 763 c 0,33,34
 299 763 299 763 266.5 711.5 c 128,-1,35
 234 660 234 660 224 598 c 0,36,37
 219 567 219 567 219 504 c 1,38,-1
 340 504 l 2,39,40
 394 504 394 504 446 515 c 128,-1,41
 498 526 498 526 501 526 c 0,42,43
 518 526 518 526 518 510 c 0,44,45
 518 498 518 498 517 444.5 c 0,46,47
 513 230.5 513 230.5 513 75 c 0,48,49
 513 55 513 55 529 45.5 c 128,-1,50
 545 36 545 36 580 34 c 1,51,-1
 580 0 l 1,52,-1
 348 0 l 1,53,-1
 348 34 l 1,54,55
 399 38 399 38 412 47.5 c 128,-1,56
 425 57 425 57 425 87 c 2,57,-1
 425 295 l 2,58,59
 425 403 425 403 421 426 c 128,-1,60
 417 449 417 449 396 449 c 2,61,-1
 384 449 l 1,0,-1
EndSplineSet
Ligature2: "'liga' Standard Ligatures in Latin lookup 3 per glyph data 1" f i
EndChar

StartChar: f_l
Encoding: 64258 64258 312
Width: 612
GlyphClass: 3
Flags: HW
LayerCount: 2
Fore
SplineSet
432 138 m 1,0,-1
 435 652 l 2,1,2
 435 724 435 724 417 743.5 c 128,-1,3
 399 763 399 763 357.5 763 c 128,-1,4
 316 763 316 763 289 739 c 128,-1,5
 262 715 262 715 247.5 676.5 c 0,6,7
 219 600.827586207 219 600.827586207 219 519 c 2,8,-1
 219 504 l 1,9,-1
 353 504 l 1,10,-1
 350 448 l 1,11,-1
 219 448 l 1,12,13
 216 290 216 290 216 188 c 128,-1,14
 216 86 216 86 217 78.5 c 128,-1,15
 218 71 218 71 219 65 c 128,-1,16
 220 59 220 59 225 55.5 c 128,-1,17
 230 52 230 52 233.5 49.5 c 128,-1,18
 237 47 237 47 247.5 45 c 128,-1,19
 258 43 258 43 266 41 c 128,-1,20
 274 39 274 39 292.5 36.5 c 128,-1,21
 311 34 311 34 326 31 c 1,22,-1
 326 0 l 1,23,-1
 46 0 l 1,24,-1
 46 34 l 1,25,26
 82 39 82 39 91 40.5 c 128,-1,27
 100 42 100 42 112 50 c 128,-1,28
 124 58 124 58 125 68 c 128,-1,29
 126 78 126 78 126 125 c 128,-1,30
 126 172 126 172 120 448 c 1,31,-1
 30 448 l 1,32,-1
 30 482 l 1,33,-1
 119 497 l 1,34,35
 119 618 119 618 177 708 c 128,-1,36
 235 798 235 798 344 798 c 2,37,-1
 508 798 l 2,38,39
 524 798 524 798 524 783 c 0,40,41
 526 702 526 702 526 575 c 128,-1,42
 526 448 526 448 521 308.5 c 128,-1,43
 516 169 516 169 516 113 c 128,-1,44
 516 57 516 57 527.5 48.5 c 128,-1,45
 539 40 539 40 590 34 c 1,46,-1
 590 0 l 1,47,-1
 354 0 l 1,48,-1
 354 34 l 1,49,50
 362 35 362 35 375 37.5 c 128,-1,51
 388 40 388 40 392 40.5 c 128,-1,52
 396 41 396 41 405 44 c 128,-1,53
 414 47 414 47 416 49 c 128,-1,54
 418 51 418 51 422.5 57 c 128,-1,55
 427 63 427 63 427.5 68.5 c 128,-1,56
 428 74 428 74 430 85 c 128,-1,57
 432 96 432 96 432 108 c 2,58,-1
 432 138 l 1,0,-1
EndSplineSet
Ligature2: "'liga' Standard Ligatures in Latin lookup 3 per glyph data 1" f l
EndChar

StartChar: f_f_i
Encoding: 64259 64259 313
Width: 919
GlyphClass: 3
Flags: HW
LayerCount: 2
Fore
SplineSet
703 449 m 1,0,-1
 636 448 l 1,1,-1
 538 448 l 1,2,3
 534 238 534 238 534 162 c 128,-1,4
 534 86 534 86 535 78.5 c 128,-1,5
 536 71 536 71 537 65 c 128,-1,6
 538 59 538 59 543 55.5 c 128,-1,7
 548 52 548 52 551.5 49.5 c 128,-1,8
 555 47 555 47 566 45 c 128,-1,9
 577 43 577 43 585 41 c 128,-1,10
 593 39 593 39 611.5 36.5 c 128,-1,11
 630 34 630 34 645 31 c 1,12,-1
 645 0 l 1,13,-1
 365 0 l 1,14,-1
 365 34 l 1,15,16
 401 39 401 39 410 40.5 c 128,-1,17
 419 42 419 42 431 50 c 128,-1,18
 443 58 443 58 444 68 c 128,-1,19
 445 78 445 78 445 125 c 128,-1,20
 445 172 445 172 439 448 c 1,21,-1
 219 448 l 1,22,23
 215 238 215 238 215 162 c 128,-1,24
 215 86 215 86 216 78.5 c 128,-1,25
 217 71 217 71 218 65 c 128,-1,26
 219 59 219 59 224 55.5 c 128,-1,27
 229 52 229 52 232.5 49.5 c 128,-1,28
 236 47 236 47 247 45 c 128,-1,29
 258 43 258 43 266 41 c 128,-1,30
 274 39 274 39 292.5 36.5 c 128,-1,31
 311 34 311 34 326 31 c 1,32,-1
 326 0 l 1,33,-1
 46 0 l 1,34,-1
 46 34 l 1,35,36
 82 39 82 39 91 40.5 c 128,-1,37
 100 42 100 42 112 50 c 128,-1,38
 124 58 124 58 125 68 c 128,-1,39
 126 78 126 78 126 125 c 128,-1,40
 126 172 126 172 120 448 c 1,41,-1
 30 448 l 1,42,-1
 30 482 l 1,43,-1
 119 497 l 1,44,45
 119 618 119 618 177 708 c 128,-1,46
 235 798 235 798 344 798 c 0,47,48
 393 798 393 798 409 771.5 c 128,-1,49
 425 745 425 745 425 685 c 1,50,-1
 424 648 l 1,51,-1
 381 647 l 1,52,53
 360 761 360 761 318 761 c 0,54,55
 282 761 282 761 250.5 684 c 128,-1,56
 219 607 219 607 219 519 c 2,57,-1
 219 504 l 1,58,-1
 438 504 l 1,59,60
 442 799 442 799 693 799 c 0,61,62
 760 799 760 799 779 779.5 c 128,-1,63
 798 760 798 760 798 709 c 2,64,-1
 797 649 l 1,65,-1
 754 645 l 1,66,67
 732 763 732 763 669 763 c 0,68,69
 618 763 618 763 585.5 711.5 c 128,-1,70
 553 660 553 660 543 598 c 0,71,72
 538 567 538 567 538 504 c 1,73,-1
 659 504 l 2,74,75
 713 504 713 504 765 515 c 128,-1,76
 817 526 817 526 820 526 c 0,77,78
 837 526 837 526 837 510 c 0,79,80
 837 498 837 498 835.5 444.5 c 0,81,82
 832 319.666666667 832 319.666666667 832 75 c 0,83,84
 832 55 832 55 848 45.5 c 128,-1,85
 864 36 864 36 899 34 c 1,86,-1
 899 0 l 1,87,-1
 667 0 l 1,88,-1
 667 34 l 1,89,90
 718 38 718 38 731 47.5 c 128,-1,91
 744 57 744 57 744 87 c 2,92,-1
 744 295 l 2,93,94
 744 403 744 403 740 426 c 128,-1,95
 736 449 736 449 715 449 c 2,96,-1
 703 449 l 1,0,-1
EndSplineSet
Ligature2: "'liga' Standard Ligatures in Latin lookup 3 per glyph data 0" f f i
EndChar

StartChar: f_f_l
Encoding: 64260 64260 314
Width: 931
GlyphClass: 3
Flags: HW
LayerCount: 2
Fore
SplineSet
751 138 m 1,0,-1
 754 652 l 2,1,2
 754 724 754 724 736 743.5 c 128,-1,3
 718 763 718 763 676.5 763 c 128,-1,4
 635 763 635 763 608 739 c 128,-1,5
 581 715 581 715 566.5 676.5 c 0,6,7
 538 600.827586207 538 600.827586207 538 519 c 2,8,-1
 538 504 l 1,9,-1
 672 504 l 1,10,-1
 669 448 l 1,11,-1
 538 448 l 1,12,13
 535 290 535 290 535 188 c 128,-1,14
 535 86 535 86 536 78.5 c 128,-1,15
 537 71 537 71 538 65 c 128,-1,16
 539 59 539 59 544 55.5 c 128,-1,17
 549 52 549 52 552.5 49.5 c 128,-1,18
 556 47 556 47 566.5 45 c 128,-1,19
 577 43 577 43 585 41 c 128,-1,20
 593 39 593 39 611.5 36.5 c 128,-1,21
 630 34 630 34 645 31 c 1,22,-1
 645 0 l 1,23,-1
 365 0 l 1,24,-1
 365 34 l 1,25,26
 401 39 401 39 410 40.5 c 128,-1,27
 419 42 419 42 431 50 c 128,-1,28
 443 58 443 58 444 68 c 128,-1,29
 445 78 445 78 445 125 c 128,-1,30
 445 172 445 172 439 448 c 1,31,-1
 219 448 l 1,32,33
 215 238 215 238 215 162 c 128,-1,34
 215 86 215 86 216 78.5 c 128,-1,35
 217 71 217 71 218 65 c 128,-1,36
 219 59 219 59 224 55.5 c 128,-1,37
 229 52 229 52 232.5 49.5 c 128,-1,38
 236 47 236 47 247 45 c 128,-1,39
 258 43 258 43 266 41 c 128,-1,40
 274 39 274 39 292.5 36.5 c 128,-1,41
 311 34 311 34 326 31 c 1,42,-1
 326 0 l 1,43,-1
 46 0 l 1,44,-1
 46 34 l 1,45,46
 82 39 82 39 91 40.5 c 128,-1,47
 100 42 100 42 112 50 c 128,-1,48
 124 58 124 58 125 68 c 128,-1,49
 126 78 126 78 126 125 c 128,-1,50
 126 172 126 172 120 448 c 1,51,-1
 30 448 l 1,52,-1
 30 482 l 1,53,-1
 119 497 l 1,54,55
 119 618 119 618 177 708 c 128,-1,56
 235 798 235 798 344 798 c 0,57,58
 393 798 393 798 409 771.5 c 128,-1,59
 425 745 425 745 425 685 c 1,60,-1
 424 648 l 1,61,-1
 381 647 l 1,62,63
 360 761 360 761 318 761 c 0,64,65
 282 761 282 761 250.5 684 c 128,-1,66
 219 607 219 607 219 519 c 2,67,-1
 219 504 l 1,68,-1
 438 504 l 1,69,70
 440.197693575 671.024711697 440.197693575 671.024711697 537.5 753.5 c 0,71,72
 590 798 590 798 663 798 c 2,73,-1
 827 798 l 2,74,75
 843 798 843 798 843 783 c 0,76,77
 845 702 845 702 845 575 c 128,-1,78
 845 448 845 448 840 308.5 c 128,-1,79
 835 169 835 169 835 113 c 128,-1,80
 835 57 835 57 846.5 48.5 c 128,-1,81
 858 40 858 40 909 34 c 1,82,-1
 909 0 l 1,83,-1
 673 0 l 1,84,-1
 673 34 l 1,85,86
 681 35 681 35 694 37.5 c 128,-1,87
 707 40 707 40 711 40.5 c 128,-1,88
 715 41 715 41 724 44 c 128,-1,89
 733 47 733 47 735 49 c 128,-1,90
 737 51 737 51 741.5 57 c 128,-1,91
 746 63 746 63 746.5 68.5 c 128,-1,92
 747 74 747 74 749 85 c 128,-1,93
 751 96 751 96 751 108 c 2,94,-1
 751 138 l 1,0,-1
EndSplineSet
Ligature2: "'liga' Standard Ligatures in Latin lookup 3 per glyph data 0" f f l
EndChar

StartChar: s_t
Encoding: 64262 64262 315
Width: 722
GlyphClass: 3
LigCaretCntFixed: 1
Flags: HW
LayerCount: 2
Fore
SplineSet
481 188 m 1,0,-1
 484 448 l 1,1,-1
 397 448 l 1,2,-1
 397 478 l 1,3,-1
 484 495 l 1,4,-1
 484 587 l 1,5,6
 541 604 541 604 541 654 c 0,7,8
 541 681 541 681 497 701 c 128,-1,9
 453 721 453 721 392.5 721 c 128,-1,10
 332 721 332 721 286.5 688 c 128,-1,11
 241 655 241 655 241 586 c 0,12,13
 241 558 241 558 251 522 c 1,14,15
 293 513 293 513 314 492 c 128,-1,16
 335 471 335 471 335 432 c 0,17,18
 335 418 335 418 324.5 404 c 128,-1,19
 314 390 314 390 300 390 c 128,-1,20
 286 390 286 390 269.5 407.5 c 128,-1,21
 253 425 253 425 246 442 c 2,22,-1
 239 460 l 1,23,24
 237 460 237 460 232 462 c 0,25,26
 222 466 222 466 195.5 466 c 128,-1,27
 169 466 169 466 151 458.5 c 128,-1,28
 133 451 133 451 125.5 439.5 c 0,29,30
 112 418.8 112 418.8 112 393.4 c 128,-1,31
 112 368 112 368 137 348.5 c 128,-1,32
 162 329 162 329 198 317 c 128,-1,33
 234 305 234 305 270.5 290.5 c 128,-1,34
 307 276 307 276 332 242.5 c 128,-1,35
 357 209 357 209 357 157 c 128,-1,36
 357 105 357 105 342 80 c 0,37,38
 315 37 315 37 278 8 c 0,39,40
 263 -3 263 -3 231 -10 c 128,-1,41
 199 -17 199 -17 183 -17 c 0,42,43
 76 -17 76 -17 55 19 c 0,44,45
 47 32 47 32 47 53 c 0,46,47
 47 134 47 134 51.5 152.5 c 128,-1,48
 56 171 56 171 71.5 171 c 128,-1,49
 87 171 87 171 92 158 c 128,-1,50
 97 145 97 145 99 127 c 128,-1,51
 101 109 101 109 107.5 91 c 128,-1,52
 114 73 114 73 136.5 60 c 128,-1,53
 159 47 159 47 200.5 47 c 128,-1,54
 242 47 242 47 267 67 c 128,-1,55
 292 87 292 87 292 121.5 c 128,-1,56
 292 156 292 156 266.5 176 c 128,-1,57
 241 196 241 196 204.5 207.5 c 128,-1,58
 168 219 168 219 132 232.5 c 128,-1,59
 96 246 96 246 70.5 277 c 128,-1,60
 45 308 45 308 45 357 c 128,-1,61
 45 406 45 406 62 432 c 0,62,63
 95 485 95 485 125.5 505 c 128,-1,64
 156 525 156 525 216 525 c 1,65,66
 204 562 204 562 204 597 c 0,67,68
 204 680 204 680 264.5 724 c 128,-1,69
 325 768 325 768 401.5 768 c 128,-1,70
 478 768 478 768 527.5 734.5 c 128,-1,71
 577 701 577 701 577 638 c 1,72,-1
 574 535 l 1,73,-1
 574 504 l 1,74,-1
 701 504 l 1,75,-1
 698 448 l 1,76,-1
 574 448 l 1,77,-1
 571 201 l 2,78,79
 571 124 571 124 580.5 90 c 128,-1,80
 590 56 590 56 616 56 c 128,-1,81
 642 56 642 56 691 85 c 1,82,-1
 712 65 l 1,83,84
 635 -15 635 -15 586 -15 c 0,85,86
 521 -15 521 -15 501 29 c 128,-1,87
 481 73 481 73 481 188 c 1,0,-1
EndSplineSet
Ligature2: "'dlig' Discretionary Ligatures in Latin lookup 4 subtable" s t
LCarets2: 1 -3 
EndChar

StartChar: circumflex.cap
Encoding: 65539 -1 316
Width: 0
GlyphClass: 4
Flags: HW
LayerCount: 2
Fore
SplineSet
-406 582 m 1,0,1
 -355 636 -355 636 -304 705 c 1,2,-1
 -264 705 l 1,3,4
 -221 642 -221 642 -166 583 c 1,5,-1
 -185 566 l 1,6,-1
 -288 634 l 1,7,-1
 -388 564 l 1,8,-1
 -406 582 l 1,0,1
EndSplineSet
EndChar

StartChar: acute.cap
Encoding: 65541 -1 318
Width: 0
GlyphClass: 4
Flags: HW
LayerCount: 2
Fore
SplineSet
-304 599 m 1,0,1
 -228 654 -228 654 -122 749 c 1,2,3
 -103 746 -103 746 -88 731 c 128,-1,4
 -73 716 -73 716 -73 699 c 2,5,-1
 -73 695 l 1,6,7
 -110 671 -110 671 -179 632.5 c 128,-1,8
 -248 594 -248 594 -291 575 c 1,9,-1
 -304 599 l 1,0,1
EndSplineSet
EndChar

StartChar: caron.cap
Encoding: 65542 -1 319
Width: 0
GlyphClass: 4
Flags: HW
LayerCount: 2
Fore
SplineSet
-372 678 m 1,0,-1
 -348 705 l 1,1,-1
 -250 637 l 1,2,-1
 -151 705 l 1,3,-1
 -136 688 l 1,4,5
 -209 611 -209 611 -240 566 c 1,6,-1
 -280 566 l 1,7,8
 -313 612 -313 612 -372 678 c 1,0,-1
EndSplineSet
EndChar

StartChar: grave.cap
Encoding: 65543 -1 320
Width: 0
GlyphClass: 4
Flags: HW
LayerCount: 2
Fore
SplineSet
-362 695 m 1,0,-1
 -362 699 l 2,1,2
 -362 716 -362 716 -347 731 c 128,-1,3
 -332 746 -332 746 -313 749 c 1,4,5
 -207 654 -207 654 -131 599 c 1,6,-1
 -144 575 l 1,7,8
 -187 594 -187 594 -256 632.5 c 128,-1,9
 -325 671 -325 671 -362 695 c 1,0,-1
EndSplineSet
EndChar

StartChar: uni2014.alt
Encoding: 65545 -1 322
Width: 750
GlyphClass: 2
Flags: HW
LayerCount: 2
Fore
SplineSet
25 250 m 1,0,-1
 39 316 l 1,1,-1
 711 316 l 1,2,-1
 723 305 l 1,3,-1
 710 250 l 1,4,-1
 25 250 l 1,0,-1
EndSplineSet
EndChar

StartChar: c_t
Encoding: 65546 -1 323
Width: 776
GlyphClass: 3
Flags: HW
LayerCount: 2
Fore
SplineSet
535 188 m 1,0,-1
 538 448 l 1,1,-1
 451 448 l 1,2,-1
 451 478 l 1,3,-1
 538 495 l 1,4,-1
 538 587 l 1,5,6
 595 604 595 604 595 654 c 0,7,8
 595 681 595 681 553 701 c 128,-1,9
 511 721 511 721 451 721 c 128,-1,10
 391 721 391 721 345.5 688 c 128,-1,11
 300 655 300 655 300 586 c 0,12,13
 300 554 300 554 309 522 c 1,14,15
 343 517 343 517 364 499 c 128,-1,16
 385 481 385 481 389.5 466.5 c 128,-1,17
 394 452 394 452 394 433.5 c 128,-1,18
 394 415 394 415 383 402.5 c 128,-1,19
 372 390 372 390 359 390 c 128,-1,20
 346 390 346 390 329.5 408 c 128,-1,21
 313 426 313 426 303 446 c 1,22,23
 269 456 269 456 214.5 456 c 128,-1,24
 160 456 160 456 139.5 418 c 128,-1,25
 119 380 119 380 119 272 c 0,26,27
 119 175.428571429 119 175.428571429 143 124 c 0,28,29
 171.466666667 63 171.466666667 63 255 63 c 0,30,31
 285 63 285 63 319 80.5 c 128,-1,32
 353 98 353 98 372 116 c 2,33,-1
 392 134 l 1,34,-1
 413 114 l 1,35,36
 374.491525424 65.8644067797 374.491525424 65.8644067797 344.745762712 39.9322033898 c 128,-1,37
 315 14 315 14 300.5 6.5 c 0,38,39
 214.63625731 -37.9122807018 214.63625731 -37.9122807018 114 16 c 1,40,41
 73 53 73 53 44 120 c 1,42,43
 30 180 30 180 30 249.5 c 128,-1,44
 30 319 30 319 43 383 c 0,45,46
 50 413 50 413 78 436 c 1,47,48
 123 478 123 478 159.5 498.5 c 128,-1,49
 196 519 196 519 213.5 522 c 128,-1,50
 231 525 231 525 260 525 c 2,51,-1
 275 525 l 1,52,53
 263 561 263 561 263 597 c 0,54,55
 263 679 263 679 323.5 723.5 c 128,-1,56
 384 768 384 768 459 768 c 128,-1,57
 534 768 534 768 582.5 735 c 128,-1,58
 631 702 631 702 631 638 c 1,59,-1
 628 535 l 1,60,-1
 628 504 l 1,61,-1
 755 504 l 1,62,-1
 752 448 l 1,63,-1
 628 448 l 1,64,-1
 625 201 l 2,65,66
 625 124 625 124 634.5 90 c 128,-1,67
 644 56 644 56 670 56 c 128,-1,68
 696 56 696 56 745 85 c 1,69,-1
 766 65 l 1,70,71
 689 -15 689 -15 640 -15 c 0,72,73
 575 -15 575 -15 555 29 c 128,-1,74
 535 73 535 73 535 188 c 1,0,-1
EndSplineSet
Ligature2: "'dlig' Discretionary Ligatures in Latin lookup 4 subtable" c t
EndChar

StartChar: f_t
Encoding: 65547 -1 324
Width: 678
GlyphClass: 3
Flags: HW
LayerCount: 2
Fore
SplineSet
437 188 m 1,0,-1
 440 448 l 1,1,-1
 219 448 l 1,2,3
 215 238 215 238 215 162 c 128,-1,4
 215 86 215 86 216 78.5 c 128,-1,5
 217 71 217 71 218 65 c 128,-1,6
 219 59 219 59 224 55.5 c 128,-1,7
 229 52 229 52 232.5 49.5 c 128,-1,8
 236 47 236 47 247 45 c 128,-1,9
 258 43 258 43 266 41 c 128,-1,10
 274 39 274 39 292.5 36.5 c 128,-1,11
 311 34 311 34 326 31 c 1,12,-1
 326 0 l 1,13,-1
 46 0 l 1,14,-1
 46 34 l 1,15,16
 82 39 82 39 91 40.5 c 128,-1,17
 100 42 100 42 112 50 c 128,-1,18
 124 58 124 58 125 68 c 128,-1,19
 126 78 126 78 126 125 c 128,-1,20
 126 172 126 172 120 448 c 1,21,-1
 30 448 l 1,22,-1
 30 482 l 1,23,-1
 119 497 l 1,24,25
 119 618 119 618 177 708 c 128,-1,26
 235 798 235 798 344 798 c 0,27,28
 393 798 393 798 409 771.5 c 128,-1,29
 425 745 425 745 425 685 c 1,30,-1
 424 648 l 1,31,-1
 381 647 l 1,32,33
 360 761 360 761 318 761 c 0,34,35
 282 761 282 761 250.5 684 c 128,-1,36
 219 607 219 607 219 519 c 2,37,-1
 219 504 l 1,38,-1
 440 504 l 1,39,-1
 440 587 l 1,40,-1
 517 611 l 1,41,42
 532 611 532 611 532 596 c 2,43,-1
 530 535 l 1,44,-1
 530 504 l 1,45,-1
 657 504 l 1,46,-1
 654 448 l 1,47,-1
 530 448 l 1,48,-1
 527 201 l 2,49,50
 527 124 527 124 536.5 90 c 128,-1,51
 546 56 546 56 572 56 c 128,-1,52
 598 56 598 56 647 85 c 1,53,-1
 668 65 l 1,54,55
 591 -15 591 -15 542 -15 c 0,56,57
 477 -15 477 -15 457 29 c 128,-1,58
 437 73 437 73 437 188 c 1,0,-1
EndSplineSet
Ligature2: "'liga' Standard Ligatures in Latin lookup 3 per glyph data 1" f t
EndChar

StartChar: f_f_t
Encoding: 65548 -1 325
Width: 997
GlyphClass: 3
Flags: HW
LayerCount: 2
Fore
SplineSet
756 188 m 1,0,-1
 759 448 l 1,1,-1
 538 448 l 1,2,3
 534 238 534 238 534 162 c 128,-1,4
 534 86 534 86 535 78.5 c 128,-1,5
 536 71 536 71 537 65 c 128,-1,6
 538 59 538 59 543 55.5 c 128,-1,7
 548 52 548 52 551.5 49.5 c 128,-1,8
 555 47 555 47 566 45 c 128,-1,9
 577 43 577 43 585 41 c 128,-1,10
 593 39 593 39 611.5 36.5 c 128,-1,11
 630 34 630 34 645 31 c 1,12,-1
 645 0 l 1,13,-1
 365 0 l 1,14,-1
 365 34 l 1,15,16
 401 39 401 39 410 40.5 c 128,-1,17
 419 42 419 42 431 50 c 128,-1,18
 443 58 443 58 444 68 c 128,-1,19
 445 78 445 78 445 125 c 128,-1,20
 445 172 445 172 439 448 c 1,21,-1
 219 448 l 1,22,23
 215 238 215 238 215 162 c 128,-1,24
 215 86 215 86 216 78.5 c 128,-1,25
 217 71 217 71 218 65 c 128,-1,26
 219 59 219 59 224 55.5 c 128,-1,27
 229 52 229 52 232.5 49.5 c 128,-1,28
 236 47 236 47 247 45 c 128,-1,29
 258 43 258 43 266 41 c 128,-1,30
 274 39 274 39 292.5 36.5 c 128,-1,31
 311 34 311 34 326 31 c 1,32,-1
 326 0 l 1,33,-1
 46 0 l 1,34,-1
 46 34 l 1,35,36
 82 39 82 39 91 40.5 c 128,-1,37
 100 42 100 42 112 50 c 128,-1,38
 124 58 124 58 125 68 c 128,-1,39
 126 78 126 78 126 125 c 128,-1,40
 126 172 126 172 120 448 c 1,41,-1
 30 448 l 1,42,-1
 30 482 l 1,43,-1
 119 497 l 1,44,45
 119 618 119 618 177 708 c 128,-1,46
 235 798 235 798 344 798 c 0,47,48
 393 798 393 798 409 771.5 c 128,-1,49
 425 745 425 745 425 685 c 1,50,-1
 424 648 l 1,51,-1
 381 647 l 1,52,53
 360 761 360 761 318 761 c 0,54,55
 282 761 282 761 250.5 684 c 128,-1,56
 219 607 219 607 219 519 c 2,57,-1
 219 504 l 1,58,-1
 438 504 l 1,59,60
 438 671.447619048 438 671.447619048 536.5 754 c 0,61,62
 589 798 589 798 663 798 c 0,63,64
 712 798 712 798 728 771.5 c 128,-1,65
 744 745 744 745 744 685 c 1,66,-1
 743 648 l 1,67,-1
 700 647 l 1,68,69
 679 761 679 761 637 761 c 0,70,71
 601 761 601 761 569.5 684 c 128,-1,72
 538 607 538 607 538 519 c 2,73,-1
 538 504 l 1,74,-1
 759 504 l 1,75,-1
 759 587 l 1,76,-1
 836 611 l 1,77,78
 851 611 851 611 851 596 c 2,79,-1
 849 535 l 1,80,-1
 849 504 l 1,81,-1
 976 504 l 1,82,-1
 973 448 l 1,83,-1
 849 448 l 1,84,-1
 846 201 l 2,85,86
 846 124 846 124 855.5 90 c 128,-1,87
 865 56 865 56 891 56 c 128,-1,88
 917 56 917 56 966 85 c 1,89,-1
 987 65 l 1,90,91
 910 -15 910 -15 861 -15 c 0,92,93
 796 -15 796 -15 776 29 c 128,-1,94
 756 73 756 73 756 188 c 1,0,-1
EndSplineSet
Ligature2: "'liga' Standard Ligatures in Latin lookup 3 per glyph data 0" f f t
EndChar

StartChar: exclam.ref1
Encoding: 65549 -1 326
Width: 1000
GlyphClass: 2
Flags: HW
LayerCount: 2
Fore
SplineSet
69 742 m 1,0,1
 140 752 140 752 171 759 c 1,2,-1
 183 748 l 1,3,4
 146 286 146 286 129 196 c 1,5,-1
 96 202 l 1,6,-1
 91 286 l 1,7,8
 69 676 69 676 69 742 c 1,0,1
EndSplineSet
EndChar

StartChar: question.ref1
Encoding: 65550 -1 327
Width: 1000
GlyphClass: 2
Flags: HW
LayerCount: 2
Fore
SplineSet
70 666 m 0,0,1
 70 701 70 701 93 714 c 128,-1,2
 116 727 116 727 171.5 727 c 128,-1,3
 227 727 227 727 260 714.5 c 128,-1,4
 293 702 293 702 315 684.5 c 128,-1,5
 337 667 337 667 354 648 c 0,6,7
 383.142857143 615.428571429 383.142857143 615.428571429 387 600 c 0,8,9
 400 535 400 535 400 485 c 0,10,11
 400 288 400 288 226 288 c 0,12,13
 182 288 182 288 143 315 c 1,14,15
 132 212 132 212 129 196 c 1,16,-1
 96 202 l 1,17,-1
 85 410 l 1,18,19
 146 358 146 358 193 358 c 0,20,21
 263 358 263 358 292.5 392 c 128,-1,22
 322 426 322 426 322 493 c 0,23,24
 322 525 322 525 314 577.5 c 128,-1,25
 306 630 306 630 286.5 647.5 c 128,-1,26
 267 665 267 665 231.5 665 c 128,-1,27
 196 665 196 665 173.5 660.5 c 128,-1,28
 151 656 151 656 138.5 651 c 128,-1,29
 126 646 126 646 118 634.5 c 128,-1,30
 110 623 110 623 108 616 c 128,-1,31
 106 609 106 609 103.5 594 c 128,-1,32
 101 579 101 579 99 573 c 1,33,-1
 74 573 l 1,34,35
 70 653 70 653 70 666 c 0,0,1
EndSplineSet
EndChar

StartChar: i.ref1
Encoding: 65551 -1 328
Width: 1000
GlyphClass: 2
Flags: HW
LayerCount: 2
Fore
SplineSet
109 629.5 m 128,-1,1
 89 654 89 654 89 665.5 c 128,-1,2
 89 677 89 677 105.5 707 c 128,-1,3
 122 737 122 737 140 737 c 128,-1,4
 158 737 158 737 180 718.5 c 128,-1,5
 202 700 202 700 202 676 c 128,-1,6
 202 652 202 652 181.5 628.5 c 128,-1,7
 161 605 161 605 145 605 c 128,-1,0
 129 605 129 605 109 629.5 c 128,-1,1
EndSplineSet
EndChar

StartChar: j.ref1
Encoding: 65552 -1 329
Width: 1000
GlyphClass: 2
Flags: HW
LayerCount: 2
Fore
SplineSet
90.5 629.5 m 128,-1,1
 70 654 70 654 70 665.5 c 128,-1,2
 70 677 70 677 87 707 c 128,-1,3
 104 737 104 737 122 737 c 128,-1,4
 140 737 140 737 162 718.5 c 128,-1,5
 184 700 184 700 184 676 c 128,-1,6
 184 652 184 652 163 628.5 c 128,-1,7
 142 605 142 605 126.5 605 c 128,-1,0
 111 605 111 605 90.5 629.5 c 128,-1,1
EndSplineSet
EndChar

StartChar: plusminus.ref1
Encoding: 65553 -1 330
Width: 1000
GlyphClass: 2
Flags: HW
LayerCount: 2
Fore
SplineSet
11 275 m 1,0,-1
 25 341 l 1,1,-1
 208 341 l 1,2,-1
 208 501 l 1,3,-1
 264 514 l 1,4,-1
 275 502 l 1,5,-1
 274 341 l 1,6,-1
 460 341 l 1,7,-1
 472 330 l 1,8,-1
 459 275 l 1,9,-1
 275 275 l 1,10,-1
 274 117 l 1,11,-1
 208 103 l 1,12,-1
 208 275 l 1,13,-1
 11 275 l 1,0,-1
EndSplineSet
EndChar

StartChar: dcaron.ref1
Encoding: 65554 -1 331
Width: 1000
GlyphClass: 2
Flags: HW
LayerCount: 2
Fore
SplineSet
526 710 m 1,0,1
 532 729 532 729 546.5 757 c 128,-1,2
 561 785 561 785 576 798 c 1,3,4
 630 769 630 769 654 736 c 1,5,6
 654 711 654 711 631.5 649.5 c 128,-1,7
 609 588 609 588 568 544 c 1,8,-1
 544 558 l 1,9,10
 586 620 586 620 586 659 c 0,11,12
 586 687 586 687 542 704 c 2,13,-1
 526 710 l 1,0,1
EndSplineSet
EndChar

StartChar: hungarumlaut.ref1
Encoding: 65555 -1 332
Width: 1000
GlyphClass: 2
Flags: HW
LayerCount: 2
Fore
SplineSet
236 579 m 1,0,1
 295 640 295 640 390 759 c 1,2,3
 411 759 411 759 428.5 745.5 c 128,-1,4
 446 732 446 732 447 714 c 1,5,6
 415 683 415 683 353.5 633 c 128,-1,7
 292 583 292 583 253 558 c 1,8,-1
 236 579 l 1,0,1
EndSplineSet
EndChar
